{
copyright = "Copyright (c) 2022 by Thanos Poulakidas. All rights reserved.";
familyName = "Geom ";
customParameters = (
{
name = glyphOrder;
value = (
.notdef,
null,
nonmarkingreturn,
space,
exclam,
quotedbl,
numbersign,
dollar,
percent,
ampersand,
quotesingle,
parenleft,
parenright,
asterisk,
plus,
comma,
hyphen,
period,
slash,
zero,
one,
two,
three,
four,
five,
six,
seven,
eight,
nine,
colon,
semicolon,
less,
equal,
greater,
question,
at,
A,
B,
C,
D,
E,
F,
G,
H,
J,
K,
L,
M,
N,
O,
P,
Q,
R,
S,
T,
U,
V,
W,
X,
Y,
Z,
bracketleft,
backslash,
bracketright,
asciicircum,
underscore,
grave,
a,
b,
c,
d,
e,
f,
g,
h,
i,
j,
k,
l,
m,
n,
o,
p,
q,
r,
s,
t,
u,
v,
w,
x,
y,
z,
braceleft,
bar,
braceright,
asciitilde,
uni00A0,
exclamdown,
cent,
sterling,
currency,
yen,
brokenbar,
section,
dieresis,
copyright,
ordfeminine,
guillemotleft,
logicalnot,
uni00AD,
registered,
degree,
plusminus,
twosuperior,
threesuperior,
acute,
uni00B5,
paragraph,
periodcentered,
cedilla,
onesuperior,
ordmasculine,
guillemotright,
onequarter,
onehalf,
threequarters,
questiondown,
Agrave,
Aacute,
Acircumflex,
Atilde,
Adieresis,
Aring,
AE,
Ccedilla,
Egrave,
Eacute,
Ecircumflex,
Edieresis,
Eth,
Ntilde,
Ograve,
Oacute,
Ocircumflex,
Otilde,
Odieresis,
multiply,
Oslash,
Ugrave,
Uacute,
Ucircumflex,
Udieresis,
Yacute,
Thorn,
germandbls,
agrave,
aacute,
acircumflex,
atilde,
adieresis,
aring,
ae,
ccedilla,
egrave,
eacute,
ecircumflex,
edieresis,
igrave,
iacute,
icircumflex,
idieresis,
eth,
ntilde,
ograve,
oacute,
ocircumflex,
otilde,
odieresis,
divide,
oslash,
ugrave,
uacute,
ucircumflex,
udieresis,
yacute,
thorn,
ydieresis,
Amacron,
amacron,
Abreve,
abreve,
Aogonek,
aogonek,
Cacute,
cacute,
Ccircumflex,
ccircumflex,
Cdotaccent,
cdotaccent,
Ccaron,
ccaron,
Dcaron,
dcaron,
Dcroat,
dcroat,
Emacron,
emacron,
Ebreve,
ebreve,
Edotaccent,
edotaccent,
Eogonek,
eogonek,
Ecaron,
ecaron,
Gcircumflex,
gcircumflex,
Gbreve,
gbreve,
Gdotaccent,
gdotaccent,
uni0122,
uni0123,
Hcircumflex,
hcircumflex,
itilde,
imacron,
ibreve,

glyphs = (
{
glyphname = .notdef;
layers = (
{
hints = (
{
horizontal = 1;
place = "{0, 57}";
type = Stem;
},
{
horizontal = 1;
place = "{663, 57}";
type = Stem;
},
{
place = "{42, 70}";
type = Stem;
},
{
place = "{501, 70}";
type = Stem;
}
);
layerId = "B00352CC-F18A-4BDE-802C-0D96B8769A1B";
paths = (
{
closed = 1;
nodes = (
"42 0 LINE",
"571 0 LINE",
"571 720 LINE",
"42 720 LINE"
);
},
{
closed = 1;
nodes = (
"307 421 LINE",
"144 663 LINE",
"468 663 LINE"
);
},
{
closed = 1;
nodes = (
"112 594 LINE",
"267 360 LINE",
"112 128 LINE"
);
},
{
closed = 1;
nodes = (
"346 360 LINE",
"501 593 LINE",
"501 128 LINE"
);
},
{
closed = 1;
nodes = (
"144 57 LINE",
"307 300 LINE",
"468 57 LINE"
);
}
);
width = 600;
}
);
},
{
glyphname = exclam;
layers = (
{
hints = (
{
horizontal = 1;
place = "{-13, 193}";
type = Stem;
},
{
horizontal = 1;
place = "{700, -20}";
target = down;
type = TopGhost;
},
{
place = "{62, 216}";
type = Stem;
}
);
layerId = "B00352CC-F18A-4BDE-802C-0D96B8769A1B";
paths = (
{
closed = 1;
nodes = (
"62 700 LINE",
"62 615 LINE",
"120 228 LINE",
"220 228 LINE",
"278 615 LINE",
"278 700 LINE"
);
},
{
closed = 1;
nodes = (
"62 20 OFFCURVE",
"109 -13 OFFCURVE",
"169 -13 CURVE SMOOTH",
"229 -13 OFFCURVE",
"277 20 OFFCURVE",
"277 84 CURVE SMOOTH",
"277 148 OFFCURVE",
"229 180 OFFCURVE",
"169 180 CURVE SMOOTH",
"109 180 OFFCURVE",
"62 148 OFFCURVE",
"62 84 CURVE SMOOTH"
);
}
);
width = 341;
}
);
unicode = 0021;
},
{
glyphname = quotedbl;
layers = (
{
hints = (
{
place = "{89, 483}";
type = Stem;
},
{
horizontal = 1;
place = "{341, 359}";
type = Stem;
},
{
horizontal = 1;
place = "{700, -20}";
target = down;
type = TopGhost;
}
);
layerId = "B00352CC-F18A-4BDE-802C-0D96B8769A1B";
paths = (
{
closed = 1;
nodes = (
"188 341 LINE",
"315 697 LINE",
"315 700 LINE",
"111 700 LINE",
"89 341 LINE"
);
},
{
closed = 1;
nodes = (
"345 341 LINE",
"445 341 LINE",
"572 697 LINE",
"572 700 LINE",
"368 700 LINE"
);
}
);
width = 660;
}
);
unicode = 0022;
},
{
glyphname = numbersign;
layers = (
{
hints = (
{
horizontal = 1;
place = "{0, 21}";
target = up;
type = BottomGhost;
},
{
horizontal = 1;
place = "{135, 161}";
type = Stem;
},
{
horizontal = 1;
place = "{408, 161}";
type = Stem;
},
{
horizontal = 1;
place = "{700, -20}";
target = down;
type = TopGhost;
},
{
place = "{33, 647}";
type = Stem;
}
);
layerId = "B00352CC-F18A-4BDE-802C-0D96B8769A1B";
paths = (
{
closed = 1;
nodes = (
"88 0 LINE",
"233 0 LINE",
"256 135 LINE",
"383 135 LINE",
"359 0 LINE",
"504 0 LINE",
"528 135 LINE",
"647 135 LINE",
"647 296 LINE",
"555 296 LINE",
"574 408 LINE",
"680 408 LINE",
"680 569 LINE",
"602 569 LINE",
"624 700 LINE",
"479 700 LINE",
"457 569 LINE",
"330 569 LINE",
"353 700 LINE",
"208 700 LINE",
"186 569 LINE",
"66 569 LINE",
"66 408 LINE",
"158 408 LINE",
"139 296 LINE",
"33 296 LINE",
"33 135 LINE",
"111 135 LINE"
);
},
{
closed = 1;
nodes = (
"433 412 LINE",
"413 292 LINE",
"279 292 LINE",
"300 412 LINE"
);
}
);
width = 712;
}
);
unicode = 0023;
},
{
glyphname = dollar;
layers = (
{
hints = (
{
place = "{41, 176}";
type = Stem;
},
{
place = "{278, 104}";
type = Stem;
},
{
place = "{284, 94}";
type = Stem;
},
{
place = "{445, 173}";
type = Stem;
},
{
horizontal = 1;
place = "{0, 21}";
target = up;
type = BottomGhost;
},
{
horizontal = 1;
place = "{555, 203}";
type = Stem;
},
{
horizontal = 1;
place = "{701, -20}";
target = down;
type = TopGhost;
}
);
layerId = "B00352CC-F18A-4BDE-802C-0D96B8769A1B";
paths = (
{
closed = 1;
nodes = (
"278 -98 LINE",
"382 -98 LINE",
"382 0 LINE",
"523 13 OFFCURVE",
"618 89 OFFCURVE",
"618 212 CURVE SMOOTH",
"618 335 OFFCURVE",
"538 393 OFFCURVE",
"379 430 CURVE",
"379 555 LINE",
"423 547 OFFCURVE",
"460 530 OFFCURVE",
"492 491 CURVE",
"589 599 LINE",
"541 652 OFFCURVE",
"467 689 OFFCURVE",
"384 698 CURVE",
"384 758 LINE",
"280 758 LINE",
"280 701 LINE",
"128 690 OFFCURVE",
"41 607 OFFCURVE",
"41 490 CURVE SMOOTH",
"41 366 OFFCURVE",
"124 309 OFFCURVE",
"284 272 CURVE",
"284 145 LINE",
"228 152 OFFCURVE",
"168 186 OFFCURVE",
"129 234 CURVE",
"18 115 LINE",
"94 40 OFFCURVE",
"189 2 OFFCURVE",
"278 2 CURVE"
);
},
{
closed = 1;
nodes = (
"217 530 OFFCURVE",
"236 551 OFFCURVE",
"285 555 CURVE",
"285 447 LINE",
"230 462 OFFCURVE",
"217 482 OFFCURVE",
"217 505 CURVE SMOOTH"
);
},
{
closed = 1;
nodes = (
"445 172 OFFCURVE",
"425 151 OFFCURVE",
"378 146 CURVE",
"378 256 LINE",
"430 240 OFFCURVE",
"445 222 OFFCURVE",
"445 199 CURVE SMOOTH"
);
}
);
width = 646;
}
);
unicode = 0024;
},
{
glyphname = percent;
layers = (
{
hints = (
{
place = "{38, 122}";
type = Stem;
},
{
place = "{277, 122}";
type = Stem;
},
{
place = "{506, 122}";
type = Stem;
},
{
place = "{745, 122}";
type = Stem;
},
{
horizontal = 1;
place = "{-10, 110}";
type = Stem;
},
{
horizontal = 1;
place = "{0, 21}";
target = up;
type = BottomGhost;
},
{
horizontal = 1;
place = "{257, 110}";
type = Stem;
},
{
horizontal = 1;
place = "{333, 110}";
type = Stem;
},
{
horizontal = 1;
place = "{600, 110}";
type = Stem;
},
{
horizontal = 1;
place = "{700, -20}";
target = down;
type = TopGhost;
}
);
layerId = "B00352CC-F18A-4BDE-802C-0D96B8769A1B";
paths = (
{
closed = 1;
nodes = (
"399 624 OFFCURVE",
"327 710 OFFCURVE",
"219 710 CURVE SMOOTH",
"110 710 OFFCURVE",
"38 625 OFFCURVE",
"38 522 CURVE SMOOTH",
"38 419 OFFCURVE",
"110 333 OFFCURVE",
"218 333 CURVE SMOOTH",
"326 333 OFFCURVE",
"399 419 OFFCURVE",
"399 523 CURVE SMOOTH"
);
},
{
closed = 1;
nodes = (
"790 700 LINE",
"655 700 LINE",
"115 0 LINE",
"250 0 LINE"
);
},
{
closed = 1;
nodes = (
"277 478 OFFCURVE",
"254 443 OFFCURVE",
"219 443 CURVE SMOOTH",
"186 443 OFFCURVE",
"160 478 OFFCURVE",
"160 523 CURVE SMOOTH",
"160 567 OFFCURVE",
"183 600 OFFCURVE",
"218 600 CURVE SMOOTH",
"253 600 OFFCURVE",
"277 566 OFFCURVE",
"277 522 CURVE SMOOTH"
);
},
{
closed = 1;
nodes = (
"867 284 OFFCURVE",
"795 367 OFFCURVE",
"687 367 CURVE SMOOTH",
"578 367 OFFCURVE",
"506 282 OFFCURVE",
"506 179 CURVE SMOOTH",
"506 77 OFFCURVE",
"578 -10 OFFCURVE",
"686 -10 CURVE SMOOTH",
"794 -10 OFFCURVE",
"867 79 OFFCURVE",
"867 180 CURVE SMOOTH"
);
},
{
closed = 1;
nodes = (
"745 135 OFFCURVE",
"722 100 OFFCURVE",
"687 100 CURVE SMOOTH",
"654 100 OFFCURVE",
"628 136 OFFCURVE",
"628 180 CURVE SMOOTH",
"628 225 OFFCURVE",
"650 257 OFFCURVE",
"686 257 CURVE SMOOTH",
"721 257 OFFCURVE",
"745 224 OFFCURVE",
"745 179 CURVE SMOOTH"
);
}
);
width = 904;
}
);
unicode = 0025;
},
{
glyphname = ampersand;
layers = (
{
hints = (
{
place = "{42, 194}";
type = Stem;
},
{
place = "{138, 164}";
type = Stem;
},
{
place = "{412, 154}";
type = Stem;
},
{
horizontal = 1;
place = "{-12, 143}";
type = Stem;
},
{
horizontal = 1;
place = "{-5, 21}";
target = up;
type = BottomGhost;
},
{
horizontal = 1;
place = "{586, 133}";
type = Stem;
}
);
layerId = "B00352CC-F18A-4BDE-802C-0D96B8769A1B";
paths = (
{
closed = 1;
nodes = (
"573 385 LINE",
"552 345 OFFCURVE",
"530 307 OFFCURVE",
"507 274 CURVE",
"429 355 LINE",
"512 394 OFFCURVE",
"566 452 OFFCURVE",
"566 537 CURVE SMOOTH",
"566 641 OFFCURVE",
"486 719 OFFCURVE",
"358 719 CURVE SMOOTH",
"221 719 OFFCURVE",
"138 630 OFFCURVE",
"138 529 CURVE SMOOTH",
"138 482 OFFCURVE",
"152 435 OFFCURVE",
"184 388 CURVE",
"88 345 OFFCURVE",
"42 280 OFFCURVE",
"42 192 CURVE SMOOTH",
"42 63 OFFCURVE",
"149 -12 OFFCURVE",
"292 -12 CURVE SMOOTH",
"373 -12 OFFCURVE",
"440 14 OFFCURVE",
"500 59 CURVE",
"560 -5 LINE",
"735 34 LINE",
"609 173 LINE",
"642 218 OFFCURVE",
"679 288 OFFCURVE",
"708 341 CURVE"
);
},
{
closed = 1;
nodes = (
"390 586 OFFCURVE",
"412 565 OFFCURVE",
"412 530 CURVE SMOOTH",
"412 495 OFFCURVE",
"389 467 OFFCURVE",
"338 442 CURVE",
"314 473 OFFCURVE",
"302 495 OFFCURVE",
"302 522 CURVE SMOOTH",
"302 561 OFFCURVE",
"325 586 OFFCURVE",
"358 586 CURVE SMOOTH"
);
},
{
closed = 1;
nodes = (
"401 161 LINE",
"374 142 OFFCURVE",
"346 131 OFFCURVE",
"318 131 CURVE SMOOTH",
"270 131 OFFCURVE",
"236 159 OFFCURVE",
"236 200 CURVE SMOOTH",
"236 231 OFFCURVE",
"251 257 OFFCURVE",
"286 278 CURVE"
);
}
);
width = 748;
}
);
unicode = 0026;
},
{
glyphname = quotesingle;
layers = (
{
hints = (
{
horizontal = 1;
place = "{700, -20}";
target = down;
type = TopGhost;
},
{
place = "{89, 230}";
type = Stem;
}
);
layerId = "B00352CC-F18A-4BDE-802C-0D96B8769A1B";
paths = (
{
closed = 1;
nodes = (
"89 341 LINE",
"192 341 LINE",
"319 697 LINE",
"319 700 LINE",
"111 700 LINE"
);
}
);
width = 408;
}
);
unicode = 0027;
},
{
glyphname = parenleft;
layers = (
{
hints = (
{
horizontal = 1;
place = "{706, -20}";
target = down;
type = TopGhost;
},
{
place = "{70, 186}";
type = Stem;
}
);
layerId = "B00352CC-F18A-4BDE-802C-0D96B8769A1B";
paths = (
{
closed = 1;
nodes = (
"256 418 OFFCURVE",
"312 508 OFFCURVE",
"441 597 CURVE",
"346 706 LINE",
"181 613 OFFCURVE",
"70 491 OFFCURVE",
"70 287 CURVE SMOOTH",
"70 83 OFFCURVE",
"171 -42 OFFCURVE",
"342 -130 CURVE",
"441 -23 LINE",
"312 66 OFFCURVE",
"256 156 OFFCURVE",
"256 287 CURVE SMOOTH"
);
}
);
width = 474;
}
);
unicode = 0028;
},
{
glyphname = parenright;
layers = (
{
hints = (
{
horizontal = 1;
place = "{706, -20}";
target = down;
type = TopGhost;
},
{
place = "{219, 186}";
type = Stem;
}
);
layerId = "B00352CC-F18A-4BDE-802C-0D96B8769A1B";
paths = (
{
closed = 1;
nodes = (
"219 156 OFFCURVE",
"163 66 OFFCURVE",
"34 -23 CURVE",
"133 -130 LINE",
"308 -40 OFFCURVE",
"405 84 OFFCURVE",
"405 287 CURVE SMOOTH",
"405 489 OFFCURVE",
"304 613 OFFCURVE",
"129 706 CURVE",
"34 597 LINE",
"163 508 OFFCURVE",
"219 418 OFFCURVE",
"219 287 CURVE SMOOTH"
);
}
);
width = 474;
}
);
unicode = 0029;
},
{
glyphname = asterisk;
layers = (
{
hints = (
{
horizontal = 1;
place = "{552, -20}";
target = down;
type = TopGhost;
},
{
horizontal = 1;
place = "{554, -20}";
target = down;
type = TopGhost;
},
{
horizontal = 1;
place = "{710, -20}";
target = down;
type = TopGhost;
},
{
place = "{169, 82}";
type = Stem;
}
);
layerId = "B00352CC-F18A-4BDE-802C-0D96B8769A1B";
paths = (
{
closed = 1;
nodes = (
"144 554 LINE",
"18 510 LINE",
"42 435 LINE",
"169 478 LINE",
"169 340 LINE",
"251 340 LINE",
"251 476 LINE",
"375 435 LINE",
"400 510 LINE",
"277 552 LINE",
"352 663 LINE",
"286 710 LINE",
"209 602 LINE",
"132 710 LINE",
"66 663 LINE"
);
}
);
width = 417;
}
);
unicode = 002A;
},
{
glyphname = plus;
layers = (
{
hints = (
{
horizontal = 1;
place = "{268, 168}";
type = Stem;
},
{
place = "{250, 174}";
type = Stem;
}
);
layerId = "B00352CC-F18A-4BDE-802C-0D96B8769A1B";
paths = (
{
closed = 1;
nodes = (
"424 608 LINE",
"250 608 LINE",
"250 436 LINE",
"81 436 LINE",
"81 268 LINE",
"250 268 LINE",
"250 96 LINE",
"424 96 LINE",
"424 268 LINE",
"593 268 LINE",
"593 436 LINE",
"424 436 LINE"
);
}
);
width = 674;
}
);
unicode = 002B;
},
{
glyphname = comma;
layers = (
{
hints = (
{
horizontal = 1;
place = "{-164, 361}";
type = Stem;
},
{
place = "{7, 233}";
type = Stem;
}
);
layerId = "B00352CC-F18A-4BDE-802C-0D96B8769A1B";
paths = (
{
closed = 1;
nodes = (
"240 197 LINE",
"69 197 LINE",
"7 -164 LINE",
"137 -164 LINE"
);
}
);
width = 280;
}
);
unicode = 002C;
},
{
glyphname = hyphen;
layers = (
{
hints = (
{
horizontal = 1;
place = "{189, 167}";
type = Stem;
},
{
place = "{22, 328}";
type = Stem;
}
);
layerId = "B00352CC-F18A-4BDE-802C-0D96B8769A1B";
paths = (
{
closed = 1;
nodes = (
"350 356 LINE",
"22 356 LINE",
"22 189 LINE",
"350 189 LINE"
);
}
);
width = 371;
}
);
unicode = 002D;
},
{
glyphname = period;
layers = (
{
hints = (
{
place = "{62, 225}";
type = Stem;
},
{
horizontal = 1;
place = "{-13, 219}";
type = Stem;
},
{
horizontal = 1;
place = "{-13, 21}";
target = up;
type = BottomGhost;
}
);
layerId = "B00352CC-F18A-4BDE-802C-0D96B8769A1B";
paths = (
{
closed = 1;
nodes = (
"62 25 OFFCURVE",
"111 -13 OFFCURVE",
"174 -13 CURVE SMOOTH",
"238 -13 OFFCURVE",
"287 25 OFFCURVE",
"287 97 CURVE SMOOTH",
"287 169 OFFCURVE",
"238 206 OFFCURVE",
"174 206 CURVE SMOOTH",
"111 206 OFFCURVE",
"62 169 OFFCURVE",
"62 97 CURVE SMOOTH"
);
}
);
width = 350;
}
);
unicode = 002E;
},
{
glyphname = slash;
layers = (
{
hints = (
{
horizontal = 1;
place = "{-128, 926}";
type = Stem;
},
{
place = "{-1, 597}";
type = Stem;
}
);
layerId = "B00352CC-F18A-4BDE-802C-0D96B8769A1B";
paths = (
{
closed = 1;
nodes = (
"596 798 LINE",
"442 798 LINE",
"-1 -128 LINE",
"153 -128 LINE"
);
}
);
width = 595;
}
);
unicode = 002F;
},
{
glyphname = zero;
layers = (
{
hints = (
{
horizontal = 1;
place = "{-14, 172}";
type = Stem;
},
{
horizontal = 1;
place = "{542, 172}";
type = Stem;
},
{
place = "{38, 195}";
type = Stem;
},
{
place = "{491, 195}";
type = Stem;
}
);
layerId = "B00352CC-F18A-4BDE-802C-0D96B8769A1B";
paths = (
{
closed = 1;
nodes = (
"164 714 OFFCURVE",
"38 548 OFFCURVE",
"38 350 CURVE SMOOTH",
"38 152 OFFCURVE",
"161 -14 OFFCURVE",
"361 -14 CURVE SMOOTH",
"561 -14 OFFCURVE",
"686 155 OFFCURVE",
"686 352 CURVE SMOOTH",
"686 550 OFFCURVE",
"562 714 OFFCURVE",
"363 714 CURVE SMOOTH"
);
},
{
closed = 1;
nodes = (
"438 542 OFFCURVE",
"491 461 OFFCURVE",
"491 350 CURVE SMOOTH",
"491 239 OFFCURVE",
"441 158 OFFCURVE",
"363 158 CURVE SMOOTH",
"286 158 OFFCURVE",
"233 240 OFFCURVE",
"233 352 CURVE SMOOTH",
"233 464 OFFCURVE",
"284 542 OFFCURVE",
"361 542 CURVE SMOOTH"
);
}
);
width = 723;
}
);
unicode = 0030;
},
{
glyphname = one;
layers = (
{
hints = (
{
horizontal = 1;
place = "{0, 21}";
target = up;
type = BottomGhost;
},
{
horizontal = 1;
place = "{524, 181}";
type = Stem;
},
{
place = "{169, 191}";
type = Stem;
}
);
layerId = "B00352CC-F18A-4BDE-802C-0D96B8769A1B";
paths = (
{
closed = 1;
nodes = (
"360 705 LINE",
"14 705 LINE",
"14 524 LINE",
"169 524 LINE",
"169 0 LINE",
"360 0 LINE"
);
}
);
width = 435;
}
);
unicode = 0031;
},
{
glyphname = two;
layers = (
{
hints = (
{
horizontal = 1;
place = "{0, 158}";
type = Stem;
},
{
horizontal = 1;
place = "{543, 169}";
type = Stem;
},
{
place = "{4, 177}";
type = Stem;
},
{
place = "{352, 195}";
type = Stem;
}
);
layerId = "B00352CC-F18A-4BDE-802C-0D96B8769A1B";
paths = (
{
closed = 1;
nodes = (
"133 712 OFFCURVE",
"4 622 OFFCURVE",
"4 453 CURVE",
"181 453 LINE",
"181 517 OFFCURVE",
"229 543 OFFCURVE",
"274 543 CURVE SMOOTH",
"320 543 OFFCURVE",
"352 516 OFFCURVE",
"352 472 CURVE SMOOTH",
"352 437 OFFCURVE",
"332 389 OFFCURVE",
"280 328 CURVE SMOOTH",
"0 0 LINE",
"554 0 LINE",
"554 158 LINE",
"366 158 LINE",
"429 242 LINE SMOOTH",
"506 343 OFFCURVE",
"547 406 OFFCURVE",
"547 489 CURVE SMOOTH",
"547 621 OFFCURVE",
"442 712 OFFCURVE",
"279 712 CURVE SMOOTH"
);
}
);
width = 595;
}
);
unicode = 0032;
},
{
glyphname = three;
layers = (
{
hints = (
{
place = "{412, 189}";
type = Stem;
},
{
horizontal = 1;
place = "{-14, 166}";
type = Stem;
},
{
horizontal = 1;
place = "{543, 157}";
type = Stem;
},
{
horizontal = 1;
place = "{561, 139}";
type = Stem;
}
);
layerId = "B00352CC-F18A-4BDE-802C-0D96B8769A1B";
paths = (
{
closed = 1;
nodes = (
"587 561 LINE",
"587 700 LINE",
"81 700 LINE",
"81 543 LINE",
"349 543 LINE",
"188 398 LINE",
"216 297 LINE",
"231 297 OFFCURVE",
"285 297 OFFCURVE",
"298 297 CURVE SMOOTH",
"371 297 OFFCURVE",
"412 270 OFFCURVE",
"412 225 CURVE SMOOTH",
"412 182 OFFCURVE",
"376 152 OFFCURVE",
"317 152 CURVE SMOOTH",
"266 152 OFFCURVE",
"213 175 OFFCURVE",
"168 219 CURVE",
"33 110 LINE",
"101 34 OFFCURVE",
"201 -14 OFFCURVE",
"328 -14 CURVE SMOOTH",
"493 -14 OFFCURVE",
"601 80 OFFCURVE",
"601 221 CURVE SMOOTH",
"601 340 OFFCURVE",
"520 397 OFFCURVE",
"420 418 CURVE"
);
}
);
width = 642;
}
);
unicode = 0033;
},
{
glyphname = four;
layers = (
{
hints = (
{
horizontal = 1;
place = "{0, 21}";
target = up;
type = BottomGhost;
},
{
horizontal = 1;
place = "{136, 145}";
type = Stem;
},
{
horizontal = 1;
place = "{705, -20}";
target = down;
type = TopGhost;
},
{
place = "{393, 188}";
type = Stem;
}
);
layerId = "B00352CC-F18A-4BDE-802C-0D96B8769A1B";
paths = (
{
closed = 1;
nodes = (
"385 705 LINE",
"22 274 LINE",
"54 136 LINE",
"393 136 LINE",
"393 0 LINE",
"581 0 LINE",
"581 136 LINE",
"670 136 LINE",
"670 281 LINE",
"581 281 LINE",
"581 705 LINE"
);
},
{
closed = 1;
nodes = (
"393 281 LINE",
"226 281 LINE",
"393 481 LINE"
);
}
);
width = 695;
}
);
unicode = 0034;
},
{
glyphname = five;
layers = (
{
hints = (
{
horizontal = 1;
place = "{-14, 165}";
type = Stem;
},
{
horizontal = 1;
place = "{316, 143}";
type = Stem;
},
{
horizontal = 1;
place = "{540, 160}";
type = Stem;
},
{
place = "{89, 160}";
type = Stem;
},
{
place = "{409, 189}";
type = Stem;
}
);
layerId = "B00352CC-F18A-4BDE-802C-0D96B8769A1B";
paths = (
{
closed = 1;
nodes = (
"194 281 LINE",
"227 301 OFFCURVE",
"263 316 OFFCURVE",
"306 316 CURVE SMOOTH",
"367 316 OFFCURVE",
"409 286 OFFCURVE",
"409 235 CURVE SMOOTH",
"409 184 OFFCURVE",
"370 151 OFFCURVE",
"306 151 CURVE SMOOTH",
"246 151 OFFCURVE",
"193 179 OFFCURVE",
"136 227 CURVE",
"25 97 LINE",
"98 29 OFFCURVE",
"184 -14 OFFCURVE",
"309 -14 CURVE SMOOTH",
"480 -14 OFFCURVE",
"598 81 OFFCURVE",
"598 237 CURVE SMOOTH",
"598 389 OFFCURVE",
"483 459 OFFCURVE",
"358 459 CURVE SMOOTH",
"311 459 OFFCURVE",
"278 449 OFFCURVE",
"246 434 CURVE",
"252 540 LINE",
"567 540 LINE",
"567 700 LINE",
"99 700 LINE",
"79 345 LINE"
);
}
);
width = 635;
}
);
unicode = 0035;
},
{
glyphname = six;
layers = (
{
hints = (
{
horizontal = 1;
place = "{-14, 151}";
type = Stem;
},
{
horizontal = 1;
place = "{319, 139}";
type = Stem;
},
{
horizontal = 1;
place = "{706, -20}";
target = down;
type = TopGhost;
},
{
place = "{34, 196}";
type = Stem;
},
{
place = "{426, 189}";
type = Stem;
}
);
layerId = "B00352CC-F18A-4BDE-802C-0D96B8769A1B";
paths = (
{
closed = 1;
nodes = (
"292 706 LINE",
"164 515 LINE SMOOTH",
"63 363 OFFCURVE",
"34 297 OFFCURVE",
"34 222 CURVE SMOOTH",
"34 84 OFFCURVE",
"148 -14 OFFCURVE",
"333 -14 CURVE SMOOTH",
"493 -14 OFFCURVE",
"615 83 OFFCURVE",
"615 240 CURVE SMOOTH",
"615 380 OFFCURVE",
"537 458 OFFCURVE",
"414 458 CURVE SMOOTH",
"345 458 OFFCURVE",
"320 441 OFFCURVE",
"285 414 CURVE",
"495 706 LINE"
);
},
{
closed = 1;
nodes = (
"230 280 OFFCURVE",
"266 319 OFFCURVE",
"327 319 CURVE SMOOTH",
"388 319 OFFCURVE",
"426 280 OFFCURVE",
"426 229 CURVE SMOOTH",
"426 177 OFFCURVE",
"390 137 OFFCURVE",
"329 137 CURVE SMOOTH",
"268 137 OFFCURVE",
"230 179 OFFCURVE",
"230 230 CURVE SMOOTH"
);
}
);
width = 649;
}
);
unicode = 0036;
},
{
glyphname = seven;
layers = (
{
hints = (
{
horizontal = 1;
place = "{0, 21}";
target = up;
type = BottomGhost;
},
{
horizontal = 1;
place = "{537, 163}";
type = Stem;
},
{
place = "{29, 539}";
type = Stem;
}
);
layerId = "B00352CC-F18A-4BDE-802C-0D96B8769A1B";
paths = (
{
closed = 1;
nodes = (
"568 554 LINE",
"568 700 LINE",
"29 700 LINE",
"29 537 LINE",
"353 537 LINE",
"45 0 LINE",
"259 0 LINE"
);
}
);
width = 558;
}
);
unicode = 0037;
},
{
glyphname = eight;
layers = (
{
hints = (
{
place = "{41, 187}";
type = Stem;
},
{
place = "{65, 178}";
type = Stem;
},
{
place = "{415, 178}";
type = Stem;
},
{
place = "{430, 187}";
type = Stem;
},
{
horizontal = 1;
place = "{-12, 145}";
type = Stem;
},
{
horizontal = 1;
place = "{290, 126}";
type = Stem;
},
{
horizontal = 1;
place = "{567, 145}";
type = Stem;
}
);
layerId = "B00352CC-F18A-4BDE-802C-0D96B8769A1B";
paths = (
{
closed = 1;
nodes = (
"593 628 OFFCURVE",
"486 712 OFFCURVE",
"329 712 CURVE SMOOTH",
"172 712 OFFCURVE",
"65 628 OFFCURVE",
"65 516 CURVE SMOOTH",
"65 440 OFFCURVE",
"106 394 OFFCURVE",
"161 363 CURVE",
"85 331 OFFCURVE",
"41 274 OFFCURVE",
"41 195 CURVE SMOOTH",
"41 72 OFFCURVE",
"161 -12 OFFCURVE",
"329 -12 CURVE SMOOTH",
"497 -12 OFFCURVE",
"617 71 OFFCURVE",
"617 196 CURVE SMOOTH",
"617 272 OFFCURVE",
"569 330 OFFCURVE",
"497 363 CURVE",
"552 394 OFFCURVE",
"593 440 OFFCURVE",
"593 516 CURVE SMOOTH"
);
},
{
closed = 1;
nodes = (
"243 534 OFFCURVE",
"276 567 OFFCURVE",
"329 567 CURVE SMOOTH",
"382 567 OFFCURVE",
"415 533 OFFCURVE",
"415 493 CURVE SMOOTH",
"415 453 OFFCURVE",
"381 416 OFFCURVE",
"329 416 CURVE SMOOTH",
"277 416 OFFCURVE",
"243 454 OFFCURVE",
"243 494 CURVE SMOOTH"
);
},
{
closed = 1;
nodes = (
"228 259 OFFCURVE",
"270 290 OFFCURVE",
"329 290 CURVE SMOOTH",
"388 290 OFFCURVE",
"430 259 OFFCURVE",
"430 214 CURVE SMOOTH",
"430 172 OFFCURVE",
"394 133 OFFCURVE",
"329 133 CURVE SMOOTH",
"264 133 OFFCURVE",
"228 172 OFFCURVE",
"228 214 CURVE SMOOTH"
);
}
);
width = 658;
}
);
unicode = 0038;
},
{
glyphname = nine;
layers = (
{
hints = (
{
horizontal = 1;
place = "{0, 21}";
target = up;
type = BottomGhost;
},
{
horizontal = 1;
place = "{248, 139}";
type = Stem;
},
{
horizontal = 1;
place = "{569, 151}";
type = Stem;
},
{
place = "{34, 189}";
type = Stem;
},
{
place = "{419, 196}";
type = Stem;
}
);
layerId = "B00352CC-F18A-4BDE-802C-0D96B8769A1B";
paths = (
{
closed = 1;
nodes = (
"357 0 LINE",
"535 277 LINE SMOOTH",
"599 378 OFFCURVE",
"615 433 OFFCURVE",
"615 484 CURVE SMOOTH",
"615 622 OFFCURVE",
"503 720 OFFCURVE",
"312 720 CURVE SMOOTH",
"159 720 OFFCURVE",
"34 624 OFFCURVE",
"34 468 CURVE SMOOTH",
"34 328 OFFCURVE",
"112 248 OFFCURVE",
"235 248 CURVE SMOOTH",
"295 248 OFFCURVE",
"327 264 OFFCURVE",
"364 292 CURVE",
"154 0 LINE"
);
},
{
closed = 1;
nodes = (
"419 427 OFFCURVE",
"383 387 OFFCURVE",
"322 387 CURVE SMOOTH",
"261 387 OFFCURVE",
"223 429 OFFCURVE",
"223 479 CURVE SMOOTH",
"223 530 OFFCURVE",
"259 569 OFFCURVE",
"320 569 CURVE SMOOTH",
"381 569 OFFCURVE",
"419 529 OFFCURVE",
"419 478 CURVE SMOOTH"
);
}
);
width = 649;
}
);
unicode = 0039;
},
{
glyphname = colon;
layers = (
{
hints = (
{
place = "{62, 225}";
type = Stem;
},
{
horizontal = 1;
place = "{-13, 219}";
type = Stem;
},
{
horizontal = 1;
place = "{-13, 21}";
target = up;
type = BottomGhost;
},
{
horizontal = 1;
place = "{333, 219}";
type = Stem;
},
{
horizontal = 1;
place = "{552, -20}";
target = down;
type = TopGhost;
}
);
layerId = "B00352CC-F18A-4BDE-802C-0D96B8769A1B";
paths = (
{
closed = 1;
nodes = (
"62 371 OFFCURVE",
"111 333 OFFCURVE",
"174 333 CURVE SMOOTH",
"238 333 OFFCURVE",
"287 371 OFFCURVE",
"287 443 CURVE SMOOTH",
"287 515 OFFCURVE",
"238 552 OFFCURVE",
"174 552 CURVE SMOOTH",
"111 552 OFFCURVE",
"62 515 OFFCURVE",
"62 443 CURVE SMOOTH"
);
},
{
closed = 1;
nodes = (
"62 25 OFFCURVE",
"111 -13 OFFCURVE",
"174 -13 CURVE SMOOTH",
"238 -13 OFFCURVE",
"287 25 OFFCURVE",
"287 97 CURVE SMOOTH",
"287 169 OFFCURVE",
"238 206 OFFCURVE",
"174 206 CURVE SMOOTH",
"111 206 OFFCURVE",
"62 169 OFFCURVE",
"62 97 CURVE SMOOTH"
);
}
);
width = 350;
}
);
unicode = 003A;
},
{
glyphname = semicolon;
layers = (
{
hints = (
{
place = "{31, 225}";
type = Stem;
},
{
horizontal = 1;
place = "{333, 219}";
type = Stem;
},
{
horizontal = 1;
place = "{552, -20}";
target = down;
type = TopGhost;
}
);
layerId = "B00352CC-F18A-4BDE-802C-0D96B8769A1B";
paths = (
{
closed = 1;
nodes = (
"31 371 OFFCURVE",
"80 333 OFFCURVE",
"143 333 CURVE SMOOTH",
"207 333 OFFCURVE",
"256 371 OFFCURVE",
"256 443 CURVE SMOOTH",
"256 515 OFFCURVE",
"207 552 OFFCURVE",
"143 552 CURVE SMOOTH",
"80 552 OFFCURVE",
"31 515 OFFCURVE",
"31 443 CURVE SMOOTH"
);
},
{
closed = 1;
nodes = (
"240 197 LINE",
"69 197 LINE",
"7 -164 LINE",
"137 -164 LINE"
);
}
);
width = 297;
}
);
unicode = 003B;
},
{
glyphname = less;
layers = (
{
hints = (
{
horizontal = 1;
place = "{65, 573}";
type = Stem;
},
{
place = "{85, 497}";
type = Stem;
}
);
layerId = "B00352CC-F18A-4BDE-802C-0D96B8769A1B";
paths = (
{
closed = 1;
nodes = (
"582 638 LINE",
"85 440 LINE",
"85 263 LINE",
"582 65 LINE",
"582 243 LINE",
"255 352 LINE",
"582 461 LINE"
);
}
);
width = 666;
}
);
unicode = 003C;
},
{
glyphname = equal;
layers = (
{
hints = (
{
horizontal = 1;
place = "{134, 167}";
type = Stem;
},
{
horizontal = 1;
place = "{403, 167}";
type = Stem;
},
{
place = "{81, 491}";
type = Stem;
}
);
layerId = "B00352CC-F18A-4BDE-802C-0D96B8769A1B";
paths = (
{
closed = 1;
nodes = (
"81 570 LINE",
"81 403 LINE",
"572 403 LINE",
"572 570 LINE"
);
},
{
closed = 1;
nodes = (
"81 301 LINE",
"81 134 LINE",
"572 134 LINE",
"572 301 LINE"
);
}
);
width = 653;
}
);
unicode = 003D;
},
{
glyphname = greater;
layers = (
{
hints = (
{
horizontal = 1;
place = "{65, 573}";
type = Stem;
},
{
place = "{85, 497}";
type = Stem;
}
);
layerId = "B00352CC-F18A-4BDE-802C-0D96B8769A1B";
paths = (
{
closed = 1;
nodes = (
"85 460 LINE",
"412 351 LINE",
"85 242 LINE",
"85 65 LINE",
"582 263 LINE",
"582 440 LINE",
"85 638 LINE"
);
}
);
width = 667;
}
);
unicode = 003E;
},
{
glyphname = question;
layers = (
{
hints = (
{
place = "{143, 215}";
type = Stem;
},
{
place = "{156, 174}";
type = Stem;
},
{
place = "{296, 191}";
type = Stem;
},
{
horizontal = 1;
place = "{-13, 193}";
type = Stem;
},
{
horizontal = 1;
place = "{547, 162}";
type = Stem;
}
);
layerId = "B00352CC-F18A-4BDE-802C-0D96B8769A1B";
paths = (
{
closed = 1;
nodes = (
"254 547 OFFCURVE",
"296 531 OFFCURVE",
"296 494 CURVE SMOOTH",
"296 465 OFFCURVE",
"270 437 OFFCURVE",
"243 417 CURVE",
"200 382 OFFCURVE",
"156 342 OFFCURVE",
"156 261 CURVE SMOOTH",
"156 218 LINE",
"330 218 LINE",
"330 249 LINE SMOOTH",
"330 287 OFFCURVE",
"341 298 OFFCURVE",
"374 325 CURVE",
"440 375 OFFCURVE",
"487 416 OFFCURVE",
"487 506 CURVE SMOOTH",
"487 637 OFFCURVE",
"374 709 OFFCURVE",
"251 709 CURVE SMOOTH",
"167 709 OFFCURVE",
"89 680 OFFCURVE",
"37 613 CURVE",
"37 455 LINE",
"78 493 OFFCURVE",
"143 547 OFFCURVE",
"216 547 CURVE SMOOTH"
);
},
{
closed = 1;
nodes = (
"143 20 OFFCURVE",
"190 -13 OFFCURVE",
"250 -13 CURVE SMOOTH",
"310 -13 OFFCURVE",
"358 20 OFFCURVE",
"358 84 CURVE SMOOTH",
"358 148 OFFCURVE",
"310 180 OFFCURVE",
"250 180 CURVE SMOOTH",
"190 180 OFFCURVE",
"143 148 OFFCURVE",
"143 84 CURVE SMOOTH"
);
}
);
width = 524;
}
);
unicode = 003F;
},
{
glyphname = at;
layers = (
{
hints = (
{
place = "{37, 52}";
type = Stem;
},
{
place = "{214, 160}";
type = Stem;
},
{
place = "{543, 147}";
type = Stem;
},
{
place = "{859, 52}";
type = Stem;
},
{
horizontal = 1;
place = "{-162, 50}";
type = Stem;
},
{
horizontal = 1;
place = "{57, 65}";
type = Stem;
},
{
horizontal = 1;
place = "{59, 135}";
type = Stem;
},
{
horizontal = 1;
place = "{385, 135}";
type = Stem;
},
{
horizontal = 1;
place = "{667, 47}";
type = Stem;
}
);
layerId = "B00352CC-F18A-4BDE-802C-0D96B8769A1B";
paths = (
{
closed = 1;
nodes = (
"728 -55 LINE",
"652 -99 OFFCURVE",
"579 -112 OFFCURVE",
"483 -112 CURVE SMOOTH",
"245 -112 OFFCURVE",
"89 52 OFFCURVE",
"89 275 CURVE SMOOTH",
"89 496 OFFCURVE",
"248 667 OFFCURVE",
"480 667 CURVE SMOOTH",
"708 667 OFFCURVE",
"859 517 OFFCURVE",
"859 325 CURVE SMOOTH",
"859 192 OFFCURVE",
"816 122 OFFCURVE",
"751 122 CURVE SMOOTH",
"696 122 OFFCURVE",
"682 174 OFFCURVE",
"690 225 CURVE",
"736 483 LINE",
"581 507 LINE",
"569 446 LINE",
"542 487 OFFCURVE",
"500 520 OFFCURVE",
"435 520 CURVE SMOOTH",
"316 520 OFFCURVE",
"214 403 OFFCURVE",
"214 260 CURVE SMOOTH",
"214 138 OFFCURVE",
"293 59 OFFCURVE",
"397 59 CURVE SMOOTH",
"460 59 OFFCURVE",
"505 89 OFFCURVE",
"544 133 CURVE",
"568 92 OFFCURVE",
"614 57 OFFCURVE",
"698 57 CURVE SMOOTH",
"807 57 OFFCURVE",
"911 144 OFFCURVE",
"911 325 CURVE SMOOTH",
"911 537 OFFCURVE",
"728 714 OFFCURVE",
"480 714 CURVE SMOOTH",
"228 714 OFFCURVE",
"37 516 OFFCURVE",
"37 275 CURVE SMOOTH",
"37 32 OFFCURVE",
"225 -162 OFFCURVE",
"483 -162 CURVE SMOOTH",
"587 -162 OFFCURVE",
"671 -134 OFFCURVE",
"748 -87 CURVE"
);
},
{
closed = 1;
nodes = (
"513 385 OFFCURVE",
"543 356 OFFCURVE",
"543 309 CURVE SMOOTH",
"543 245 OFFCURVE",
"500 194 OFFCURVE",
"447 194 CURVE SMOOTH",
"404 194 OFFCURVE",
"374 221 OFFCURVE",
"374 272 CURVE SMOOTH",
"374 335 OFFCURVE",
"417 385 OFFCURVE",
"470 385 CURVE SMOOTH"
);
}
);
width = 948;
}
);
unicode = 0040;
},
{
glyphname = A;
layers = (
{
hints = (
{
horizontal = 1;
place = "{0, 21}";
target = up;
type = BottomGhost;
},
{
horizontal = 1;
place = "{125, 151}";
type = Stem;
},
{
horizontal = 1;
place = "{705, -20}";
target = down;
type = TopGhost;
},
{
place = "{-8, 783}";
type = Stem;
}
);
layerId = "B00352CC-F18A-4BDE-802C-0D96B8769A1B";
paths = (
{
closed = 1;
nodes = (
"516 125 LINE",
"567 0 LINE",
"775 0 LINE",
"477 705 LINE",
"290 705 LINE",
"-8 0 LINE",
"196 0 LINE",
"246 125 LINE"
);
},
{
closed = 1;
nodes = (
"382 475 LINE",
"460 276 LINE",
"303 276 LINE"
);
}
);
width = 767;
}
);
unicode = 0041;
},
{
glyphname = B;
layers = (
{
hints = (
{
place = "{58, 189}";
type = Stem;
},
{
place = "{459, 194}";
type = Stem;
},
{
place = "{490, 194}";
type = Stem;
},
{
horizontal = 1;
place = "{0, 156}";
type = Stem;
},
{
horizontal = 1;
place = "{285, 136}";
type = Stem;
},
{
horizontal = 1;
place = "{544, 156}";
type = Stem;
}
);
layerId = "B00352CC-F18A-4BDE-802C-0D96B8769A1B";
paths = (
{
closed = 1;
nodes = (
"58 0 LINE",
"417 0 LINE SMOOTH",
"586 0 OFFCURVE",
"684 75 OFFCURVE",
"684 195 CURVE SMOOTH",
"684 289 OFFCURVE",
"630 340 OFFCURVE",
"545 366 CURVE",
"608 393 OFFCURVE",
"653 443 OFFCURVE",
"653 524 CURVE SMOOTH",
"653 635 OFFCURVE",
"562 700 OFFCURVE",
"415 700 CURVE SMOOTH",
"58 700 LINE"
);
},
{
closed = 1;
nodes = (
"247 544 LINE",
"372 544 LINE SMOOTH",
"429 544 OFFCURVE",
"459 523 OFFCURVE",
"459 484 CURVE SMOOTH",
"459 443 OFFCURVE",
"427 421 OFFCURVE",
"368 421 CURVE SMOOTH",
"247 421 LINE"
);
},
{
closed = 1;
nodes = (
"247 285 LINE",
"394 285 LINE SMOOTH",
"458 285 OFFCURVE",
"490 260 OFFCURVE",
"490 222 CURVE SMOOTH",
"490 181 OFFCURVE",
"455 156 OFFCURVE",
"396 156 CURVE SMOOTH",
"247 156 LINE"
);
}
);
width = 718;
}
);
unicode = 0042;
},
{
glyphname = C;
layers = (
{
hints = (
{
horizontal = 1;
place = "{-14, 177}";
type = Stem;
},
{
horizontal = 1;
place = "{537, 177}";
type = Stem;
},
{
place = "{37, 200}";
type = Stem;
}
);
layerId = "B00352CC-F18A-4BDE-802C-0D96B8769A1B";
paths = (
{
closed = 1;
nodes = (
"622 248 LINE",
"561 192 OFFCURVE",
"498 163 OFFCURVE",
"424 163 CURVE SMOOTH",
"305 163 OFFCURVE",
"237 245 OFFCURVE",
"237 352 CURVE SMOOTH",
"237 454 OFFCURVE",
"306 537 OFFCURVE",
"424 537 CURVE SMOOTH",
"503 537 OFFCURVE",
"572 502 OFFCURVE",
"617 455 CURVE",
"617 652 LINE",
"562 691 OFFCURVE",
"494 714 OFFCURVE",
"406 714 CURVE SMOOTH",
"194 714 OFFCURVE",
"37 554 OFFCURVE",
"37 350 CURVE SMOOTH",
"37 141 OFFCURVE",
"198 -14 OFFCURVE",
"398 -14 CURVE SMOOTH",
"486 -14 OFFCURVE",
"557 9 OFFCURVE",
"622 54 CURVE"
);
}
);
width = 665;
}
);
unicode = 0043;
},
{
glyphname = D;
layers = (
{
hints = (
{
horizontal = 1;
place = "{0, 172}";
type = Stem;
},
{
horizontal = 1;
place = "{528, 172}";
type = Stem;
},
{
place = "{58, 194}";
type = Stem;
},
{
place = "{524, 199}";
type = Stem;
}
);
layerId = "B00352CC-F18A-4BDE-802C-0D96B8769A1B";
paths = (
{
closed = 1;
nodes = (
"58 0 LINE",
"324 0 LINE SMOOTH",
"576 0 OFFCURVE",
"723 152 OFFCURVE",
"723 354 CURVE SMOOTH",
"723 557 OFFCURVE",
"579 700 OFFCURVE",
"328 700 CURVE SMOOTH",
"58 700 LINE"
);
},
{
closed = 1;
nodes = (
"252 528 LINE",
"331 528 LINE SMOOTH",
"446 528 OFFCURVE",
"524 463 OFFCURVE",
"524 351 CURVE SMOOTH",
"524 238 OFFCURVE",
"447 172 OFFCURVE",
"331 172 CURVE SMOOTH",
"252 172 LINE"
);
}
);
width = 761;
}
);
unicode = 0044;
},
{
glyphname = E;
layers = (
{
hints = (
{
horizontal = 1;
place = "{0, 165}";
type = Stem;
},
{
horizontal = 1;
place = "{276, 153}";
type = Stem;
},
{
horizontal = 1;
place = "{535, 165}";
type = Stem;
},
{
place = "{58, 192}";
type = Stem;
}
);
layerId = "B00352CC-F18A-4BDE-802C-0D96B8769A1B";
paths = (
{
closed = 1;
nodes = (
"250 276 LINE",
"586 276 LINE",
"586 429 LINE",
"250 429 LINE",
"250 535 LINE",
"621 535 LINE",
"621 700 LINE",
"58 700 LINE",
"58 0 LINE",
"626 0 LINE",
"626 165 LINE",
"250 165 LINE"
);
}
);
width = 675;
}
);
unicode = 0045;
},
{
glyphname = F;
layers = (
{
hints = (
{
horizontal = 1;
place = "{0, 21}";
target = up;
type = BottomGhost;
},
{
horizontal = 1;
place = "{250, 161}";
type = Stem;
},
{
horizontal = 1;
place = "{530, 170}";
type = Stem;
},
{
place = "{58, 194}";
type = Stem;
}
);
layerId = "B00352CC-F18A-4BDE-802C-0D96B8769A1B";
paths = (
{
closed = 1;
nodes = (
"252 250 LINE",
"583 250 LINE",
"583 411 LINE",
"252 411 LINE",
"252 530 LINE",
"618 530 LINE",
"618 700 LINE",
"58 700 LINE",
"58 0 LINE",
"252 0 LINE"
);
}
);
width = 659;
}
);
unicode = 0046;
},
{
glyphname = G;
layers = (
{
hints = (
{
place = "{37, 199}";
type = Stem;
},
{
place = "{400, 204}";
type = Stem;
},
{
place = "{538, 184}";
type = Stem;
},
{
horizontal = 1;
place = "{-14, 167}";
type = Stem;
},
{
horizontal = 1;
place = "{267, 142}";
type = Stem;
},
{
horizontal = 1;
place = "{541, 173}";
type = Stem;
}
);
layerId = "B00352CC-F18A-4BDE-802C-0D96B8769A1B";
paths = (
{
closed = 1;
nodes = (
"538 267 LINE",
"538 183 OFFCURVE",
"462 153 OFFCURVE",
"408 153 CURVE SMOOTH",
"314 153 OFFCURVE",
"236 234 OFFCURVE",
"236 349 CURVE SMOOTH",
"236 456 OFFCURVE",
"314 541 OFFCURVE",
"425 541 CURVE SMOOTH",
"490 541 OFFCURVE",
"553 518 OFFCURVE",
"604 475 CURVE",
"604 680 LINE",
"555 701 OFFCURVE",
"482 714 OFFCURVE",
"414 714 CURVE SMOOTH",
"197 714 OFFCURVE",
"37 554 OFFCURVE",
"37 350 CURVE SMOOTH",
"37 138 OFFCURVE",
"200 -14 OFFCURVE",
"398 -14 CURVE SMOOTH",
"553 -14 OFFCURVE",
"722 68 OFFCURVE",
"722 369 CURVE SMOOTH",
"722 409 LINE",
"400 409 LINE",
"400 267 LINE"
);
}
);
width = 759;
}
);
unicode = 0047;
},
{
glyphname = H;
layers = (
{
hints = (
{
horizontal = 1;
place = "{0, 21}";
target = up;
type = BottomGhost;
},
{
horizontal = 1;
place = "{266, 172}";
type = Stem;
},
{
horizontal = 1;
place = "{700, -20}";
target = down;
type = TopGhost;
},
{
place = "{58, 194}";
type = Stem;
},
{
place = "{501, 194}";
type = Stem;
}
);
layerId = "B00352CC-F18A-4BDE-802C-0D96B8769A1B";
paths = (
{
closed = 1;
nodes = (
"58 0 LINE",
"252 0 LINE",
"252 266 LINE",
"501 266 LINE",
"501 0 LINE",
"695 0 LINE",
"695 700 LINE",
"501 700 LINE",
"501 438 LINE",
"252 438 LINE",
"252 700 LINE",
"58 700 LINE"
);
}
);
width = 754;
}
);
unicode = 0048;
},
{
glyphname = J;
layers = (
{
hints = (
{
horizontal = 1;
place = "{-12, 171}";
type = Stem;
},
{
horizontal = 1;
place = "{700, -20}";
target = down;
type = TopGhost;
},
{
place = "{229, 193}";
type = Stem;
}
);
layerId = "B00352CC-F18A-4BDE-802C-0D96B8769A1B";
paths = (
{
closed = 1;
nodes = (
"0 41 LINE",
"46 9 OFFCURVE",
"97 -12 OFFCURVE",
"154 -12 CURVE SMOOTH",
"321 -12 OFFCURVE",
"422 96 OFFCURVE",
"422 256 CURVE SMOOTH",
"422 700 LINE",
"229 700 LINE",
"229 257 LINE SMOOTH",
"229 192 OFFCURVE",
"190 159 OFFCURVE",
"139 159 CURVE SMOOTH",
"82 159 OFFCURVE",
"39 198 OFFCURVE",
"0 235 CURVE"
);
}
);
width = 475;
}
);
unicode = 004A;
},
{
glyphname = K;
layers = (
{
hints = (
{
horizontal = 1;
place = "{0, 21}";
target = up;
type = BottomGhost;
},
{
horizontal = 1;
place = "{700, -20}";
target = down;
type = TopGhost;
},
{
place = "{58, 194}";
type = Stem;
}
);
layerId = "B00352CC-F18A-4BDE-802C-0D96B8769A1B";
paths = (
{
closed = 1;
nodes = (
"252 700 LINE",
"58 700 LINE",
"58 0 LINE",
"252 0 LINE",
"252 368 LINE",
"499 0 LINE",
"732 0 LINE",
"458 399 LINE",
"723 700 LINE",
"493 700 LINE",
"252 416 LINE"
);
}
);
width = 724;
}
);
unicode = 004B;
},
{
glyphname = L;
layers = (
{
hints = (
{
horizontal = 1;
place = "{0, 170}";
type = Stem;
},
{
horizontal = 1;
place = "{700, -20}";
target = down;
type = TopGhost;
},
{
place = "{58, 194}";
type = Stem;
}
);
layerId = "B00352CC-F18A-4BDE-802C-0D96B8769A1B";
paths = (
{
closed = 1;
nodes = (
"252 700 LINE",
"58 700 LINE",
"58 0 LINE",
"591 0 LINE",
"591 170 LINE",
"252 170 LINE"
);
}
);
width = 607;
}
);
unicode = 004C;
},
{
glyphname = M;
layers = (
{
hints = (
{
horizontal = 1;
place = "{0, 21}";
target = up;
type = BottomGhost;
},
{
horizontal = 1;
place = "{700, -20}";
target = down;
type = TopGhost;
},
{
place = "{18, 190}";
type = Stem;
},
{
place = "{569, 193}";
type = Stem;
}
);
layerId = "B00352CC-F18A-4BDE-802C-0D96B8769A1B";
paths = (
{
closed = 1;
nodes = (
"388 128 LINE",
"569 402 LINE",
"569 0 LINE",
"762 0 LINE",
"762 700 LINE",
"557 700 LINE",
"390 429 LINE",
"223 700 LINE",
"18 700 LINE",
"18 0 LINE",
"208 0 LINE",
"208 400 LINE"
);
}
);
width = 780;
}
);
unicode = 004D;
},
{
glyphname = N;
layers = (
{
hints = (
{
horizontal = 1;
place = "{0, 21}";
target = up;
type = BottomGhost;
},
{
horizontal = 1;
place = "{700, -20}";
target = down;
type = TopGhost;
},
{
place = "{58, 192}";
type = Stem;
},
{
place = "{527, 192}";
type = Stem;
}
);
layerId = "B00352CC-F18A-4BDE-802C-0D96B8769A1B";
paths = (
{
closed = 1;
nodes = (
"239 700 LINE",
"58 700 LINE",
"58 0 LINE",
"250 0 LINE",
"250 384 LINE",
"549 0 LINE",
"719 0 LINE",
"719 700 LINE",
"527 700 LINE",
"527 330 LINE"
);
}
);
width = 778;
}
);
unicode = 004E;
},
{
glyphname = O;
layers = (
{
hints = (
{
horizontal = 1;
place = "{-14, 175}";
type = Stem;
},
{
horizontal = 1;
place = "{539, 175}";
type = Stem;
},
{
place = "{37, 199}";
type = Stem;
},
{
place = "{592, 199}";
type = Stem;
}
);
layerId = "B00352CC-F18A-4BDE-802C-0D96B8769A1B";
paths = (
{
closed = 1;
nodes = (
"791 552 OFFCURVE",
"630 714 OFFCURVE",
"414 714 CURVE SMOOTH",
"198 714 OFFCURVE",
"37 551 OFFCURVE",
"37 350 CURVE SMOOTH",
"37 149 OFFCURVE",
"197 -14 OFFCURVE",
"413 -14 CURVE SMOOTH",
"628 -14 OFFCURVE",
"791 151 OFFCURVE",
"791 352 CURVE SMOOTH"
);
},
{
closed = 1;
nodes = (
"592 250 OFFCURVE",
"521 161 OFFCURVE",
"414 161 CURVE SMOOTH",
"309 161 OFFCURVE",
"236 251 OFFCURVE",
"236 352 CURVE SMOOTH",
"236 453 OFFCURVE",
"307 539 OFFCURVE",
"413 539 CURVE SMOOTH",
"520 539 OFFCURVE",
"592 450 OFFCURVE",
"592 350 CURVE SMOOTH"
);
}
);
width = 828;
}
);
unicode = 004F;
},
{
glyphname = P;
layers = (
{
hints = (
{
horizontal = 1;
place = "{0, 21}";
target = up;
type = BottomGhost;
},
{
horizontal = 1;
place = "{200, 152}";
type = Stem;
},
{
horizontal = 1;
place = "{537, 163}";
type = Stem;
},
{
place = "{58, 194}";
type = Stem;
},
{
place = "{455, 194}";
type = Stem;
}
);
layerId = "B00352CC-F18A-4BDE-802C-0D96B8769A1B";
paths = (
{
closed = 1;
nodes = (
"58 0 LINE",
"252 0 LINE",
"252 200 LINE",
"348 200 LINE SMOOTH",
"522 200 OFFCURVE",
"649 289 OFFCURVE",
"649 454 CURVE SMOOTH",
"649 610 OFFCURVE",
"535 700 OFFCURVE",
"358 700 CURVE SMOOTH",
"58 700 LINE"
);
},
{
closed = 1;
nodes = (
"252 537 LINE",
"343 537 LINE SMOOTH",
"414 537 OFFCURVE",
"455 505 OFFCURVE",
"455 445 CURVE SMOOTH",
"455 389 OFFCURVE",
"413 352 OFFCURVE",
"344 352 CURVE SMOOTH",
"252 352 LINE"
);
}
);
width = 672;
}
);
unicode = 0050;
},
{
glyphname = Q;
layers = (
{
hints = (
{
horizontal = 1;
place = "{-14, 175}";
type = Stem;
},
{
horizontal = 1;
place = "{539, 175}";
type = Stem;
},
{
place = "{37, 199}";
type = Stem;
},
{
place = "{592, 199}";
type = Stem;
}
);
layerId = "B00352CC-F18A-4BDE-802C-0D96B8769A1B";
paths = (
{
closed = 1;
nodes = (
"847 -148 LINE",
"847 52 LINE",
"737 163 LINE",
"776 220 OFFCURVE",
"791 275 OFFCURVE",
"791 350 CURVE SMOOTH",
"791 553 OFFCURVE",
"630 714 OFFCURVE",
"414 714 CURVE SMOOTH",
"198 714 OFFCURVE",
"37 551 OFFCURVE",
"37 350 CURVE SMOOTH",
"37 147 OFFCURVE",
"197 -14 OFFCURVE",
"413 -14 CURVE SMOOTH",
"497 -14 OFFCURVE",
"590 13 OFFCURVE",
"635 55 CURVE"
);
},
{
closed = 1;
nodes = (
"592 247 OFFCURVE",
"521 161 OFFCURVE",
"414 161 CURVE SMOOTH",
"309 161 OFFCURVE",
"236 250 OFFCURVE",
"236 350 CURVE SMOOTH",
"236 453 OFFCURVE",
"307 539 OFFCURVE",
"413 539 CURVE SMOOTH",
"520 539 OFFCURVE",
"592 450 OFFCURVE",
"592 350 CURVE SMOOTH"
);
}
);
width = 884;
}
);
unicode = 0051;
},
{
glyphname = R;
layers = (
{
hints = (
{
horizontal = 1;
place = "{0, 21}";
target = up;
type = BottomGhost;
},
{
horizontal = 1;
place = "{212, 152}";
type = Stem;
},
{
horizontal = 1;
place = "{532, 168}";
type = Stem;
},
{
place = "{58, 195}";
type = Stem;
},
{
place = "{484, 195}";
type = Stem;
}
);
layerId = "B00352CC-F18A-4BDE-802C-0D96B8769A1B";
paths = (
{
closed = 1;
nodes = (
"253 0 LINE",
"253 212 LINE",
"338 212 LINE",
"478 0 LINE",
"702 0 LINE",
"535 244 LINE",
"623 281 OFFCURVE",
"679 353 OFFCURVE",
"679 461 CURVE SMOOTH",
"679 605 OFFCURVE",
"584 700 OFFCURVE",
"389 700 CURVE SMOOTH",
"58 700 LINE",
"58 0 LINE"
);
},
{
closed = 1;
nodes = (
"253 364 LINE",
"253 532 LINE",
"379 532 LINE SMOOTH",
"444 532 OFFCURVE",
"484 505 OFFCURVE",
"484 449 CURVE SMOOTH",
"484 398 OFFCURVE",
"446 364 OFFCURVE",
"380 364 CURVE SMOOTH"
);
}
);
width = 695;
}
);
unicode = 0052;
},
{
glyphname = S;
layers = (
{
hints = (
{
horizontal = 1;
place = "{-12, 161}";
type = Stem;
},
{
horizontal = 1;
place = "{556, 156}";
type = Stem;
},
{
place = "{51, 196}";
type = Stem;
}
);
layerId = "B00352CC-F18A-4BDE-802C-0D96B8769A1B";
paths = (
{
closed = 1;
nodes = (
"230 149 OFFCURVE",
"104 206 OFFCURVE",
"18 278 CURVE",
"18 104 LINE",
"106 24 OFFCURVE",
"229 -12 OFFCURVE",
"346 -12 CURVE SMOOTH",
"502 -12 OFFCURVE",
"611 59 OFFCURVE",
"627 181 CURVE",
"651 482 OFFCURVE",
"247 399 OFFCURVE",
"247 506 CURVE SMOOTH",
"247 530 OFFCURVE",
"273 556 OFFCURVE",
"337 556 CURVE SMOOTH",
"428 556 OFFCURVE",
"539 503 OFFCURVE",
"610 442 CURVE",
"610 619 LINE",
"534 680 OFFCURVE",
"442 712 OFFCURVE",
"322 712 CURVE SMOOTH",
"181 712 OFFCURVE",
"51 640 OFFCURVE",
"51 488 CURVE SMOOTH",
"51 231 OFFCURVE",
"433 302 OFFCURVE",
"433 197 CURVE SMOOTH",
"433 152 OFFCURVE",
"376 149 OFFCURVE",
"343 149 CURVE SMOOTH"
);
}
);
width = 657;
}
);
unicode = 0053;
},
{
glyphname = T;
layers = (
{
hints = (
{
horizontal = 1;
place = "{0, 21}";
target = up;
type = BottomGhost;
},
{
horizontal = 1;
place = "{530, 170}";
type = Stem;
},
{
place = "{221, 194}";
type = Stem;
}
);
layerId = "B00352CC-F18A-4BDE-802C-0D96B8769A1B";
paths = (
{
closed = 1;
nodes = (
"415 530 LINE",
"625 530 LINE",
"625 700 LINE",
"11 700 LINE",
"11 530 LINE",
"221 530 LINE",
"221 0 LINE",
"415 0 LINE"
);
}
);
width = 637;
}
);
unicode = 0054;
},
{
glyphname = U;
layers = (
{
hints = (
{
horizontal = 1;
place = "{-13, 175}";
type = Stem;
},
{
horizontal = 1;
place = "{700, -20}";
target = down;
type = TopGhost;
},
{
place = "{52, 197}";
type = Stem;
},
{
place = "{507, 197}";
type = Stem;
}
);
layerId = "B00352CC-F18A-4BDE-802C-0D96B8769A1B";
paths = (
{
closed = 1;
nodes = (
"575 -13 OFFCURVE",
"704 86 OFFCURVE",
"704 312 CURVE SMOOTH",
"704 700 LINE",
"507 700 LINE",
"507 306 LINE SMOOTH",
"507 207 OFFCURVE",
"457 162 OFFCURVE",
"378 162 CURVE SMOOTH",
"299 162 OFFCURVE",
"249 210 OFFCURVE",
"249 311 CURVE SMOOTH",
"249 700 LINE",
"52 700 LINE",
"52 307 LINE SMOOTH",
"52 87 OFFCURVE",
"176 -13 OFFCURVE",
"376 -13 CURVE SMOOTH"
);
}
);
width = 758;
}
);
unicode = 0055;
},
{
glyphname = V;
layers = (
{
hints = (
{
horizontal = 1;
place = "{-5, 21}";
target = up;
type = BottomGhost;
},
{
horizontal = 1;
place = "{700, -20}";
target = down;
type = TopGhost;
},
{
place = "{-8, 748}";
type = Stem;
}
);
layerId = "B00352CC-F18A-4BDE-802C-0D96B8769A1B";
paths = (
{
closed = 1;
nodes = (
"-8 700 LINE",
"276 -5 LINE",
"456 -5 LINE",
"740 700 LINE",
"527 700 LINE",
"368 257 LINE",
"209 700 LINE"
);
}
);
width = 733;
}
);
unicode = 0056;
},
{
glyphname = W;
layers = (
{
hints = (
{
horizontal = 1;
place = "{-5, 21}";
target = up;
type = BottomGhost;
},
{
horizontal = 1;
place = "{700, -20}";
target = down;
type = TopGhost;
},
{
horizontal = 1;
place = "{702, -20}";
target = down;
type = TopGhost;
},
{
place = "{-3, 1087}";
type = Stem;
}
);
layerId = "B00352CC-F18A-4BDE-802C-0D96B8769A1B";
paths = (
{
closed = 1;
nodes = (
"202 700 LINE",
"-3 700 LINE",
"231 -5 LINE",
"400 -5 LINE",
"540 398 LINE",
"681 -5 LINE",
"850 -5 LINE",
"1084 700 LINE",
"883 700 LINE",
"761 295 LINE",
"626 702 LINE",
"459 702 LINE",
"324 295 LINE"
);
}
);
width = 1081;
}
);
unicode = 0057;
},
{
glyphname = X;
layers = (
{
hints = (
{
horizontal = 1;
place = "{0, 21}";
target = up;
type = BottomGhost;
},
{
horizontal = 1;
place = "{700, -20}";
target = down;
type = TopGhost;
},
{
place = "{0, 710}";
type = Stem;
}
);
layerId = "B00352CC-F18A-4BDE-802C-0D96B8769A1B";
paths = (
{
closed = 1;
nodes = (
"10 700 LINE",
"240 356 LINE",
"0 0 LINE",
"218 0 LINE",
"353 211 LINE",
"487 0 LINE",
"710 0 LINE",
"470 358 LINE",
"700 700 LINE",
"482 700 LINE",
"357 503 LINE",
"233 700 LINE"
);
}
);
width = 710;
}
);
unicode = 0058;
},
{
glyphname = Y;
layers = (
{
hints = (
{
horizontal = 1;
place = "{0, 21}";
target = up;
type = BottomGhost;
},
{
horizontal = 1;
place = "{700, -20}";
target = down;
type = TopGhost;
},
{
place = "{259, 195}";
type = Stem;
}
);
layerId = "B00352CC-F18A-4BDE-802C-0D96B8769A1B";
paths = (
{
closed = 1;
nodes = (
"454 265 LINE",
"720 700 LINE",
"503 700 LINE",
"358 445 LINE",
"214 700 LINE",
"-7 700 LINE",
"259 262 LINE",
"259 0 LINE",
"454 0 LINE"
);
}
);
width = 713;
}
);
unicode = 0059;
},
{
glyphname = Z;
layers = (
{
hints = (
{
horizontal = 1;
place = "{0, 164}";
type = Stem;
},
{
horizontal = 1;
place = "{536, 164}";
type = Stem;
},
{
place = "{-4, 619}";
type = Stem;
}
);
layerId = "B00352CC-F18A-4BDE-802C-0D96B8769A1B";
paths = (
{
closed = 1;
nodes = (
"615 559 LINE",
"615 700 LINE",
"8 700 LINE",
"8 536 LINE",
"347 536 LINE",
"-4 141 LINE",
"-4 0 LINE",
"615 0 LINE",
"615 164 LINE",
"264 164 LINE"
);
}
);
width = 624;
}
);
unicode = 005A;
},
{
glyphname = bracketleft;
layers = (
{
hints = (
{
horizontal = 1;
place = "{-130, 129}";
type = Stem;
},
{
horizontal = 1;
place = "{571, 129}";
type = Stem;
},
{
place = "{65, 170}";
type = Stem;
}
);
layerId = "B00352CC-F18A-4BDE-802C-0D96B8769A1B";
paths = (
{
closed = 1;
nodes = (
"411 700 LINE",
"65 700 LINE",
"65 -130 LINE",
"411 -130 LINE",
"411 -1 LINE",
"235 -1 LINE",
"235 571 LINE",
"411 571 LINE"
);
}
);
width = 459;
}
);
unicode = 005B;
},
{
glyphname = backslash;
layers = (
{
hints = (
{
horizontal = 1;
place = "{-128, 926}";
type = Stem;
},
{
place = "{-1, 574}";
type = Stem;
}
);
layerId = "B00352CC-F18A-4BDE-802C-0D96B8769A1B";
paths = (
{
closed = 1;
nodes = (
"431 -128 LINE",
"573 -103 LINE",
"142 798 LINE",
"-1 776 LINE"
);
}
);
width = 572;
}
);
unicode = 005C;
},
{
glyphname = bracketright;
layers = (
{
hints = (
{
horizontal = 1;
place = "{-130, 129}";
type = Stem;
},
{
horizontal = 1;
place = "{571, 129}";
type = Stem;
},
{
place = "{226, 170}";
type = Stem;
}
);
layerId = "B00352CC-F18A-4BDE-802C-0D96B8769A1B";
paths = (
{
closed = 1;
nodes = (
"50 -130 LINE",
"396 -130 LINE",
"396 700 LINE",
"50 700 LINE",
"50 571 LINE",
"226 571 LINE",
"226 -1 LINE",
"50 -1 LINE"
);
}
);
width = 460;
}
);
unicode = 005D;
},
{
glyphname = asciicircum;
layers = (
{
hints = (
{
place = "{22, 416}";
type = Stem;
},
{
horizontal = 1;
place = "{493, 206}";
type = Stem;
},
{
horizontal = 1;
place = "{590, 109}";
type = Stem;
}
);
layerId = "B00352CC-F18A-4BDE-802C-0D96B8769A1B";
paths = (
{
closed = 1;
nodes = (
"22 493 LINE",
"153 493 LINE",
"229 590 LINE",
"305 493 LINE",
"438 493 LINE",
"294 699 LINE",
"166 699 LINE"
);
}
);
width = 459;
}
);
unicode = 005E;
},
{
glyphname = underscore;
layers = (
{
hints = (
{
horizontal = 1;
place = "{-160, 116}";
type = Stem;
},
{
place = "{0, 604}";
type = Stem;
}
);
layerId = "B00352CC-F18A-4BDE-802C-0D96B8769A1B";
paths = (
{
closed = 1;
nodes = (
"0 -160 LINE",
"604 -160 LINE",
"604 -44 LINE",
"0 -44 LINE"
);
}
);
width = 604;
}
);
unicode = 005F;
},
{
glyphname = grave;
layers = (
{
hints = (
{
horizontal = 1;
place = "{616, 185}";
type = Stem;
},
{
place = "{-16, 281}";
type = Stem;
}
);
layerId = "B00352CC-F18A-4BDE-802C-0D96B8769A1B";
paths = (
{
closed = 1;
nodes = (
"131 616 LINE",
"265 616 LINE",
"161 801 LINE",
"-16 744 LINE"
);
}
);
width = 269;
}
);
unicode = 0060;
},
{
glyphname = a;
layers = (
{
hints = (
{
horizontal = 1;
place = "{-12, 119}";
type = Stem;
},
{
horizontal = 1;
place = "{235, 92}";
type = Stem;
},
{
horizontal = 1;
place = "{404, 145}";
type = Stem;
},
{
place = "{29, 185}";
type = Stem;
},
{
place = "{373, 185}";
type = Stem;
}
);
layerId = "B00352CC-F18A-4BDE-802C-0D96B8769A1B";
paths = (
{
closed = 1;
nodes = (
"558 -12 LINE",
"558 311 LINE SMOOTH",
"558 466 OFFCURVE",
"478 549 OFFCURVE",
"290 549 CURVE SMOOTH",
"202 549 OFFCURVE",
"139 532 OFFCURVE",
"76 507 CURVE",
"76 373 LINE",
"136 396 OFFCURVE",
"187 404 OFFCURVE",
"240 404 CURVE SMOOTH",
"329 404 OFFCURVE",
"373 378 OFFCURVE",
"373 315 CURVE SMOOTH",
"373 306 LINE",
"342 317 OFFCURVE",
"293 327 OFFCURVE",
"241 327 CURVE SMOOTH",
"116 327 OFFCURVE",
"29 269 OFFCURVE",
"29 157 CURVE SMOOTH",
"29 49 OFFCURVE",
"109 -12 OFFCURVE",
"214 -12 CURVE SMOOTH",
"285 -12 OFFCURVE",
"335 15 OFFCURVE",
"372 56 CURVE"
);
},
{
closed = 1;
nodes = (
"373 139 LINE",
"346 116 OFFCURVE",
"317 107 OFFCURVE",
"286 107 CURVE SMOOTH",
"247 107 OFFCURVE",
"214 133 OFFCURVE",
"214 170 CURVE SMOOTH",
"214 206 OFFCURVE",
"246 235 OFFCURVE",
"302 235 CURVE SMOOTH",
"329 235 OFFCURVE",
"356 229 OFFCURVE",
"373 221 CURVE"
);
}
);
width = 611;
}
);
unicode = 0061;
},
{
glyphname = b;
layers = (
{
hints = (
{
horizontal = 1;
place = "{-12, 159}";
type = Stem;
},
{
horizontal = 1;
place = "{394, 159}";
type = Stem;
},
{
place = "{52, 190}";
type = Stem;
},
{
place = "{459, 187}";
type = Stem;
}
);
layerId = "B00352CC-F18A-4BDE-802C-0D96B8769A1B";
paths = (
{
closed = 1;
nodes = (
"535 -12 OFFCURVE",
"646 95 OFFCURVE",
"646 271 CURVE SMOOTH",
"646 446 OFFCURVE",
"534 553 OFFCURVE",
"406 553 CURVE SMOOTH",
"325 553 OFFCURVE",
"279 514 OFFCURVE",
"242 469 CURVE",
"242 730 LINE",
"52 730 LINE",
"52 -12 LINE",
"242 66 LINE",
"277 25 OFFCURVE",
"324 -12 OFFCURVE",
"407 -12 CURVE SMOOTH"
);
},
{
closed = 1;
nodes = (
"459 197 OFFCURVE",
"410 147 OFFCURVE",
"348 147 CURVE SMOOTH",
"287 147 OFFCURVE",
"239 198 OFFCURVE",
"239 270 CURVE SMOOTH",
"239 343 OFFCURVE",
"287 394 OFFCURVE",
"348 394 CURVE SMOOTH",
"410 394 OFFCURVE",
"459 343 OFFCURVE",
"459 272 CURVE SMOOTH"
);
}
);
width = 675;
}
);
unicode = 0062;
},
{
glyphname = c;
layers = (
{
hints = (
{
horizontal = 1;
place = "{-13, 160}";
type = Stem;
},
{
horizontal = 1;
place = "{392, 160}";
type = Stem;
},
{
place = "{30, 185}";
type = Stem;
}
);
layerId = "B00352CC-F18A-4BDE-802C-0D96B8769A1B";
paths = (
{
closed = 1;
nodes = (
"432 537 LINE",
"401 548 OFFCURVE",
"357 552 OFFCURVE",
"320 552 CURVE SMOOTH",
"149 552 OFFCURVE",
"30 422 OFFCURVE",
"30 270 CURVE SMOOTH",
"30 115 OFFCURVE",
"155 -13 OFFCURVE",
"318 -13 CURVE SMOOTH",
"358 -13 OFFCURVE",
"404 -6 OFFCURVE",
"437 6 CURVE",
"437 183 LINE",
"404 156 OFFCURVE",
"369 147 OFFCURVE",
"338 147 CURVE SMOOTH",
"269 147 OFFCURVE",
"215 201 OFFCURVE",
"215 270 CURVE SMOOTH",
"215 338 OFFCURVE",
"264 392 OFFCURVE",
"335 392 CURVE SMOOTH",
"374 392 OFFCURVE",
"403 378 OFFCURVE",
"432 355 CURVE"
);
}
);
width = 473;
}
);
unicode = 0063;
},
{
glyphname = d;
layers = (
{
hints = (
{
horizontal = 1;
place = "{-12, 159}";
type = Stem;
},
{
horizontal = 1;
place = "{394, 159}";
type = Stem;
},
{
place = "{29, 187}";
type = Stem;
},
{
place = "{433, 190}";
type = Stem;
}
);
layerId = "B00352CC-F18A-4BDE-802C-0D96B8769A1B";
paths = (
{
closed = 1;
nodes = (
"623 -12 LINE",
"623 730 LINE",
"433 730 LINE",
"433 475 LINE",
"397 516 OFFCURVE",
"349 553 OFFCURVE",
"268 553 CURVE SMOOTH",
"140 553 OFFCURVE",
"29 446 OFFCURVE",
"29 270 CURVE SMOOTH",
"29 95 OFFCURVE",
"141 -12 OFFCURVE",
"269 -12 CURVE SMOOTH",
"349 -12 OFFCURVE",
"396 27 OFFCURVE",
"433 72 CURVE"
);
},
{
closed = 1;
nodes = (
"216 344 OFFCURVE",
"267 394 OFFCURVE",
"326 394 CURVE SMOOTH",
"387 394 OFFCURVE",
"436 343 OFFCURVE",
"436 272 CURVE SMOOTH",
"436 197 OFFCURVE",
"387 147 OFFCURVE",
"326 147 CURVE SMOOTH",
"267 147 OFFCURVE",
"216 198 OFFCURVE",
"216 270 CURVE SMOOTH"
);
}
);
width = 675;
}
);
unicode = 0064;
},
{
glyphname = e;
layers = (
{
hints = (
{
horizontal = 1;
place = "{-17, 138}";
type = Stem;
},
{
horizontal = 1;
place = "{407, 141}";
type = Stem;
},
{
place = "{30, 180}";
type = Stem;
}
);
layerId = "B00352CC-F18A-4BDE-802C-0D96B8769A1B";
paths = (
{
closed = 1;
nodes = (
"279 121 OFFCURVE",
"249 128 OFFCURVE",
"225 148 CURVE",
"580 240 LINE",
"580 401 OFFCURVE",
"488 548 OFFCURVE",
"312 548 CURVE SMOOTH",
"148 548 OFFCURVE",
"30 429 OFFCURVE",
"30 269 CURVE SMOOTH",
"30 104 OFFCURVE",
"145 -17 OFFCURVE",
"312 -17 CURVE SMOOTH",
"371 -17 OFFCURVE",
"458 -3 OFFCURVE",
"527 42 CURVE",
"527 190 LINE",
"476 144 OFFCURVE",
"381 121 OFFCURVE",
"315 121 CURVE SMOOTH"
);
},
{
closed = 1;
nodes = (
"210 275 LINE SMOOTH",
"210 334 OFFCURVE",
"232 407 OFFCURVE",
"301 407 CURVE SMOOTH",
"348 407 OFFCURVE",
"382 375 OFFCURVE",
"394 319 CURVE",
"210 272 LINE"
);
}
);
width = 609;
}
);
unicode = 0065;
},
{
glyphname = f;
layers = (
{
hints = (
{
horizontal = 1;
place = "{0, 21}";
target = up;
type = BottomGhost;
},
{
horizontal = 1;
place = "{389, 146}";
type = Stem;
},
{
horizontal = 1;
place = "{599, 138}";
type = Stem;
},
{
place = "{90, 189}";
type = Stem;
}
);
layerId = "B00352CC-F18A-4BDE-802C-0D96B8769A1B";
paths = (
{
closed = 1;
nodes = (
"401 722 LINE",
"370 731 OFFCURVE",
"334 737 OFFCURVE",
"285 737 CURVE SMOOTH",
"164 737 OFFCURVE",
"90 681 OFFCURVE",
"90 550 CURVE SMOOTH",
"90 535 LINE",
"7 389 LINE",
"90 389 LINE",
"90 0 LINE",
"279 0 LINE",
"279 389 LINE",
"400 389 LINE",
"400 535 LINE",
"246 535 LINE",
"246 548 LINE SMOOTH",
"246 583 OFFCURVE",
"289 599 OFFCURVE",
"324 599 CURVE SMOOTH",
"347 599 OFFCURVE",
"378 595 OFFCURVE",
"401 588 CURVE"
);
}
);
width = 399;
}
);
unicode = 0066;
},
{
glyphname = g;
layers = (
{
hints = (
{
horizontal = 1;
place = "{-162, 137}";
type = Stem;
},
{
horizontal = 1;
place = "{48, 148}";
type = Stem;
},
{
horizontal = 1;
place = "{405, 148}";
type = Stem;
},
{
place = "{35, 187}";
type = Stem;
},
{
place = "{442, 187}";
type = Stem;
}
);
layerId = "B00352CC-F18A-4BDE-802C-0D96B8769A1B";
paths = (
{
closed = 1;
nodes = (
"199 -25 OFFCURVE",
"105 16 OFFCURVE",
"50 50 CURVE",
"50 -100 LINE",
"129 -140 OFFCURVE",
"192 -162 OFFCURVE",
"288 -162 CURVE SMOOTH",
"485 -162 OFFCURVE",
"629 -66 OFFCURVE",
"629 131 CURVE SMOOTH",
"629 541 LINE",
"439 477 LINE",
"398 520 OFFCURVE",
"351 553 OFFCURVE",
"275 553 CURVE SMOOTH",
"144 553 OFFCURVE",
"35 457 OFFCURVE",
"35 301 CURVE SMOOTH",
"35 145 OFFCURVE",
"143 48 OFFCURVE",
"274 48 CURVE SMOOTH",
"355 48 OFFCURVE",
"403 85 OFFCURVE",
"442 130 CURVE",
"442 109 LINE SMOOTH",
"442 21 OFFCURVE",
"383 -25 OFFCURVE",
"286 -25 CURVE SMOOTH"
);
},
{
closed = 1;
nodes = (
"222 360 OFFCURVE",
"267 405 OFFCURVE",
"332 405 CURVE SMOOTH",
"396 405 OFFCURVE",
"442 361 OFFCURVE",
"442 302 CURVE SMOOTH",
"442 241 OFFCURVE",
"396 196 OFFCURVE",
"332 196 CURVE SMOOTH",
"267 196 OFFCURVE",
"222 240 OFFCURVE",
"222 299 CURVE SMOOTH"
);
}
);
width = 680;
}
);
unicode = 0067;
},
{
glyphname = h;
layers = (
{
hints = (
{
place = "{51, 190}";
type = Stem;
},
{
place = "{397, 190}";
type = Stem;
},
{
horizontal = 1;
place = "{0, 21}";
target = up;
type = BottomGhost;
},
{
horizontal = 1;
place = "{384, 169}";
type = Stem;
},
{
horizontal = 1;
place = "{553, -20}";
target = down;
type = TopGhost;
}
);
layerId = "B00352CC-F18A-4BDE-802C-0D96B8769A1B";
paths = (
{
closed = 1;
nodes = (
"326 553 OFFCURVE",
"276 512 OFFCURVE",
"241 467 CURVE",
"241 730 LINE",
"51 730 LINE",
"51 0 LINE",
"241 0 LINE",
"241 293 LINE SMOOTH",
"241 352 OFFCURVE",
"278 384 OFFCURVE",
"321 384 CURVE SMOOTH",
"364 384 OFFCURVE",
"397 353 OFFCURVE",
"397 293 CURVE SMOOTH",
"397 0 LINE",
"587 0 LINE",
"587 354 LINE SMOOTH",
"587 477 OFFCURVE",
"511 553 OFFCURVE",
"403 553 CURVE SMOOTH"
);
}
);
width = 635;
}
);
unicode = 0068;
},
{
glyphname = i;
layers = (
{
hints = (
{
place = "{38, 215}";
type = Stem;
},
{
place = "{51, 190}";
type = Stem;
},
{
horizontal = 1;
place = "{0, 21}";
target = up;
type = BottomGhost;
},
{
horizontal = 1;
place = "{587, 193}";
type = Stem;
}
);
layerId = "B00352CC-F18A-4BDE-802C-0D96B8769A1B";
paths = (
{
closed = 1;
nodes = (
"38 620 OFFCURVE",
"85 587 OFFCURVE",
"145 587 CURVE SMOOTH",
"205 587 OFFCURVE",
"253 620 OFFCURVE",
"253 684 CURVE SMOOTH",
"253 748 OFFCURVE",
"205 780 OFFCURVE",
"145 780 CURVE SMOOTH",
"85 780 OFFCURVE",
"38 748 OFFCURVE",
"38 684 CURVE SMOOTH"
);
},
{
closed = 1;
nodes = (
"241 541 LINE",
"51 541 LINE",
"51 0 LINE",
"241 0 LINE"
);
}
);
width = 291;
}
);
unicode = 0069;
},
{
glyphname = j;
layers = (
{
hints = (
{
place = "{106, 215}";
type = Stem;
},
{
place = "{119, 190}";
type = Stem;
},
{
horizontal = 1;
place = "{-163, 132}";
type = Stem;
},
{
horizontal = 1;
place = "{587, 193}";
type = Stem;
}
);
layerId = "B00352CC-F18A-4BDE-802C-0D96B8769A1B";
paths = (
{
closed = 1;
nodes = (
"106 620 OFFCURVE",
"153 587 OFFCURVE",
"213 587 CURVE SMOOTH",
"273 587 OFFCURVE",
"321 620 OFFCURVE",
"321 684 CURVE SMOOTH",
"321 748 OFFCURVE",
"273 780 OFFCURVE",
"213 780 CURVE SMOOTH",
"153 780 OFFCURVE",
"106 748 OFFCURVE",
"106 684 CURVE SMOOTH"
);
},
{
closed = 1;
nodes = (
"38 -156 LINE",
"61 -160 OFFCURVE",
"85 -163 OFFCURVE",
"116 -163 CURVE SMOOTH",
"239 -163 OFFCURVE",
"309 -113 OFFCURVE",
"309 24 CURVE SMOOTH",
"309 541 LINE",
"119 541 LINE",
"119 32 LINE SMOOTH",
"119 -15 OFFCURVE",
"100 -31 OFFCURVE",
"76 -31 CURVE SMOOTH",
"64 -31 OFFCURVE",
"53 -28 OFFCURVE",
"38 -23 CURVE"
);
}
);
width = 359;
}
);
unicode = 006A;
},
{
glyphname = k;
layers = (
{
hints = (
{
horizontal = 1;
place = "{0, 21}";
target = up;
type = BottomGhost;
},
{
place = "{51, 190}";
type = Stem;
}
);
layerId = "B00352CC-F18A-4BDE-802C-0D96B8769A1B";
paths = (
{
closed = 1;
nodes = (
"241 730 LINE",
"51 730 LINE",
"51 0 LINE",
"241 0 LINE",
"241 283 LINE",
"399 0 LINE",
"608 0 LINE",
"415 324 LINE",
"603 541 LINE",
"388 541 LINE",
"241 360 LINE"
);
}
);
width = 608;
}
);
unicode = 006B;
},
{
glyphname = l;
layers = (
{
hints = (
{
horizontal = 1;
place = "{0, 21}";
target = up;
type = BottomGhost;
},
{
place = "{51, 190}";
type = Stem;
}
);
layerId = "B00352CC-F18A-4BDE-802C-0D96B8769A1B";
paths = (
{
closed = 1;
nodes = (
"241 730 LINE",
"51 730 LINE",
"51 0 LINE",
"241 0 LINE"
);
}
);
width = 293;
}
);
unicode = 006C;
},
{
glyphname = m;
layers = (
{
hints = (
{
horizontal = 1;
place = "{0, 21}";
target = up;
type = BottomGhost;
},
{
horizontal = 1;
place = "{384, 169}";
type = Stem;
},
{
place = "{51, 190}";
type = Stem;
},
{
place = "{392, 190}";
type = Stem;
},
{
place = "{734, 190}";
type = Stem;
}
);
layerId = "B00352CC-F18A-4BDE-802C-0D96B8769A1B";
paths = (
{
closed = 1;
nodes = (
"924 0 LINE",
"924 355 LINE SMOOTH",
"924 462 OFFCURVE",
"855 553 OFFCURVE",
"740 553 CURVE SMOOTH",
"660 553 OFFCURVE",
"605 520 OFFCURVE",
"558 465 CURVE",
"529 525 OFFCURVE",
"468 553 OFFCURVE",
"404 553 CURVE SMOOTH",
"336 553 OFFCURVE",
"284 520 OFFCURVE",
"241 467 CURVE",
"51 541 LINE",
"51 0 LINE",
"241 0 LINE",
"241 294 LINE SMOOTH",
"241 353 OFFCURVE",
"275 384 OFFCURVE",
"318 384 CURVE SMOOTH",
"361 384 OFFCURVE",
"392 353 OFFCURVE",
"392 294 CURVE SMOOTH",
"392 0 LINE",
"582 0 LINE",
"582 294 LINE SMOOTH",
"582 341 OFFCURVE",
"609 384 OFFCURVE",
"660 384 CURVE SMOOTH",
"703 384 OFFCURVE",
"734 354 OFFCURVE",
"734 294 CURVE SMOOTH",
"734 0 LINE"
);
}
);
width = 971;
}
);
unicode = 006D;
},
{
glyphname = n;
layers = (
{
hints = (
{
place = "{51, 190}";
type = Stem;
},
{
place = "{397, 190}";
type = Stem;
},
{
horizontal = 1;
place = "{0, 21}";
target = up;
type = BottomGhost;
},
{
horizontal = 1;
place = "{384, 169}";
type = Stem;
},
{
horizontal = 1;
place = "{553, -20}";
target = down;
type = TopGhost;
}
);
layerId = "B00352CC-F18A-4BDE-802C-0D96B8769A1B";
paths = (
{
closed = 1;
nodes = (
"326 553 OFFCURVE",
"276 510 OFFCURVE",
"241 465 CURVE",
"51 541 LINE",
"51 0 LINE",
"241 0 LINE",
"241 293 LINE SMOOTH",
"241 352 OFFCURVE",
"278 384 OFFCURVE",
"321 384 CURVE SMOOTH",
"364 384 OFFCURVE",
"397 352 OFFCURVE",
"397 293 CURVE SMOOTH",
"397 0 LINE",
"587 0 LINE",
"587 354 LINE SMOOTH",
"587 477 OFFCURVE",
"508 553 OFFCURVE",
"403 553 CURVE SMOOTH"
);
}
);
width = 635;
}
);
unicode = 006E;
},
{
glyphname = o;
layers = (
{
hints = (
{
horizontal = 1;
place = "{-13, 161}";
type = Stem;
},
{
horizontal = 1;
place = "{392, 161}";
type = Stem;
},
{
place = "{30, 185}";
type = Stem;
},
{
place = "{443, 185}";
type = Stem;
}
);
layerId = "B00352CC-F18A-4BDE-802C-0D96B8769A1B";
paths = (
{
closed = 1;
nodes = (
"628 427 OFFCURVE",
"503 553 OFFCURVE",
"330 553 CURVE SMOOTH",
"157 553 OFFCURVE",
"30 425 OFFCURVE",
"30 270 CURVE SMOOTH",
"30 115 OFFCURVE",
"155 -13 OFFCURVE",
"328 -13 CURVE SMOOTH",
"501 -13 OFFCURVE",
"628 118 OFFCURVE",
"628 272 CURVE SMOOTH"
);
},
{
closed = 1;
nodes = (
"443 205 OFFCURVE",
"399 148 OFFCURVE",
"330 148 CURVE SMOOTH",
"263 148 OFFCURVE",
"215 205 OFFCURVE",
"215 272 CURVE SMOOTH",
"215 337 OFFCURVE",
"259 392 OFFCURVE",
"328 392 CURVE SMOOTH",
"395 392 OFFCURVE",
"443 336 OFFCURVE",
"443 270 CURVE SMOOTH"
);
}
);
width = 657;
}
);
unicode = 006F;
},
{
glyphname = p;
layers = (
{
hints = (
{
horizontal = 1;
place = "{-160, 21}";
target = up;
type = BottomGhost;
},
{
horizontal = 1;
place = "{-12, 159}";
type = Stem;
},
{
horizontal = 1;
place = "{394, 159}";
type = Stem;
},
{
place = "{52, 190}";
type = Stem;
},
{
place = "{459, 187}";
type = Stem;
}
);
layerId = "B00352CC-F18A-4BDE-802C-0D96B8769A1B";
paths = (
{
closed = 1;
nodes = (
"242 66 LINE",
"277 25 OFFCURVE",
"324 -12 OFFCURVE",
"407 -12 CURVE SMOOTH",
"535 -12 OFFCURVE",
"646 95 OFFCURVE",
"646 271 CURVE SMOOTH",
"646 446 OFFCURVE",
"534 553 OFFCURVE",
"406 553 CURVE SMOOTH",
"325 553 OFFCURVE",
"279 514 OFFCURVE",
"242 469 CURVE",
"52 541 LINE",
"52 -160 LINE",
"242 -160 LINE"
);
},
{
closed = 1;
nodes = (
"459 197 OFFCURVE",
"410 147 OFFCURVE",
"348 147 CURVE SMOOTH",
"287 147 OFFCURVE",
"239 198 OFFCURVE",
"239 270 CURVE SMOOTH",
"239 343 OFFCURVE",
"287 394 OFFCURVE",
"348 394 CURVE SMOOTH",
"410 394 OFFCURVE",
"459 343 OFFCURVE",
"459 272 CURVE SMOOTH"
);
}
);
width = 675;
}
);
unicode = 0070;
},
{
glyphname = q;
layers = (
{
hints = (
{
horizontal = 1;
place = "{-160, 21}";
target = up;
type = BottomGhost;
},
{
horizontal = 1;
place = "{-12, 159}";
type = Stem;
},
{
horizontal = 1;
place = "{394, 159}";
type = Stem;
},
{
place = "{29, 187}";
type = Stem;
},
{
place = "{433, 190}";
type = Stem;
}
);
layerId = "B00352CC-F18A-4BDE-802C-0D96B8769A1B";
paths = (
{
closed = 1;
nodes = (
"623 -160 LINE",
"623 541 LINE",
"433 475 LINE",
"397 516 OFFCURVE",
"349 553 OFFCURVE",
"268 553 CURVE SMOOTH",
"140 553 OFFCURVE",
"29 446 OFFCURVE",
"29 270 CURVE SMOOTH",
"29 97 OFFCURVE",
"141 -12 OFFCURVE",
"269 -12 CURVE SMOOTH",
"349 -12 OFFCURVE",
"396 27 OFFCURVE",
"433 72 CURVE",
"433 -160 LINE"
);
},
{
closed = 1;
nodes = (
"216 344 OFFCURVE",
"267 394 OFFCURVE",
"326 394 CURVE SMOOTH",
"387 394 OFFCURVE",
"436 343 OFFCURVE",
"436 272 CURVE SMOOTH",
"436 200 OFFCURVE",
"387 147 OFFCURVE",
"326 147 CURVE SMOOTH",
"267 147 OFFCURVE",
"216 200 OFFCURVE",
"216 272 CURVE SMOOTH"
);
}
);
width = 675;
}
);
unicode = 0071;
},
{
glyphname = r;
layers = (
{
hints = (
{
horizontal = 1;
place = "{0, 21}";
target = up;
type = BottomGhost;
},
{
horizontal = 1;
place = "{350, 200}";
type = Stem;
},
{
place = "{51, 190}";
type = Stem;
}
);
layerId = "B00352CC-F18A-4BDE-802C-0D96B8769A1B";
paths = (
{
closed = 1;
nodes = (
"412 550 LINE",
"323 550 OFFCURVE",
"276 513 OFFCURVE",
"241 432 CURVE",
"51 541 LINE",
"51 0 LINE",
"241 0 LINE",
"241 168 LINE SMOOTH",
"241 292 OFFCURVE",
"297 350 OFFCURVE",
"396 350 CURVE SMOOTH",
"403 350 OFFCURVE",
"409 350 OFFCURVE",
"412 350 CURVE"
);
}
);
width = 417;
}
);
unicode = 0072;
},
{
glyphname = s;
layers = (
{
hints = (
{
horizontal = 1;
place = "{-12, 133}";
type = Stem;
},
{
horizontal = 1;
place = "{419, 133}";
type = Stem;
},
{
place = "{18, 172}";
type = Stem;
},
{
place = "{297, 172}";
type = Stem;
}
);
layerId = "B00352CC-F18A-4BDE-802C-0D96B8769A1B";
paths = (
{
closed = 1;
nodes = (
"180 121 OFFCURVE",
"95 152 OFFCURVE",
"33 193 CURVE",
"33 38 LINE",
"108 7 OFFCURVE",
"173 -12 OFFCURVE",
"248 -12 CURVE SMOOTH",
"380 -12 OFFCURVE",
"469 53 OFFCURVE",
"469 164 CURVE SMOOTH",
"469 351 OFFCURVE",
"190 321 OFFCURVE",
"190 391 CURVE SMOOTH",
"190 408 OFFCURVE",
"205 419 OFFCURVE",
"234 419 CURVE SMOOTH",
"279 419 OFFCURVE",
"368 391 OFFCURVE",
"423 360 CURVE",
"423 513 LINE",
"362 537 OFFCURVE",
"314 552 OFFCURVE",
"236 552 CURVE SMOOTH",
"111 552 OFFCURVE",
"18 487 OFFCURVE",
"18 373 CURVE SMOOTH",
"18 180 OFFCURVE",
"297 213 OFFCURVE",
"297 152 CURVE SMOOTH",
"297 131 OFFCURVE",
"267 121 OFFCURVE",
"236 121 CURVE SMOOTH"
);
}
);
width = 500;
}
);
unicode = 0073;
},
{
glyphname = t;
layers = (
{
hints = (
{
place = "{114, 190}";
type = Stem;
},
{
horizontal = 1;
place = "{-11, 162}";
type = Stem;
},
{
horizontal = 1;
place = "{-11, 21}";
target = up;
type = BottomGhost;
},
{
horizontal = 1;
place = "{388, 153}";
type = Stem;
},
{
horizontal = 1;
place = "{708, -20}";
target = down;
type = TopGhost;
}
);
layerId = "B00352CC-F18A-4BDE-802C-0D96B8769A1B";
paths = (
{
closed = 1;
nodes = (
"114 168 LINE SMOOTH",
"114 48 OFFCURVE",
"177 -11 OFFCURVE",
"296 -11 CURVE SMOOTH",
"349 -11 OFFCURVE",
"393 1 OFFCURVE",
"428 20 CURVE",
"428 169 LINE",
"403 158 OFFCURVE",
"381 151 OFFCURVE",
"356 151 CURVE SMOOTH",
"321 151 OFFCURVE",
"304 166 OFFCURVE",
"304 205 CURVE SMOOTH",
"304 388 LINE",
"430 388 LINE",
"430 541 LINE",
"304 541 LINE",
"304 708 LINE",
"10 388 LINE",
"114 388 LINE"
);
}
);
width = 441;
}
);
unicode = 0074;
},
{
glyphname = u;
layers = (
{
hints = (
{
place = "{48, 190}";
type = Stem;
},
{
place = "{394, 190}";
type = Stem;
},
{
horizontal = 1;
place = "{-12, 169}";
type = Stem;
},
{
horizontal = 1;
place = "{-12, 21}";
target = up;
type = BottomGhost;
}
);
layerId = "B00352CC-F18A-4BDE-802C-0D96B8769A1B";
paths = (
{
closed = 1;
nodes = (
"309 -12 OFFCURVE",
"363 21 OFFCURVE",
"394 62 CURVE",
"584 -12 LINE",
"584 541 LINE",
"394 541 LINE",
"394 248 LINE SMOOTH",
"394 189 OFFCURVE",
"360 157 OFFCURVE",
"315 157 CURVE SMOOTH",
"269 157 OFFCURVE",
"238 189 OFFCURVE",
"238 248 CURVE SMOOTH",
"238 541 LINE",
"48 541 LINE",
"48 187 LINE SMOOTH",
"48 63 OFFCURVE",
"116 -12 OFFCURVE",
"232 -12 CURVE SMOOTH"
);
}
);
width = 631;
}
);
unicode = 0075;
},
{
glyphname = v;
layers = (
{
hints = (
{
horizontal = 1;
place = "{-4, 21}";
target = up;
type = BottomGhost;
},
{
place = "{-6, 605}";
type = Stem;
}
);
layerId = "B00352CC-F18A-4BDE-802C-0D96B8769A1B";
paths = (
{
closed = 1;
nodes = (
"599 541 LINE",
"402 541 LINE",
"298 225 LINE",
"194 541 LINE",
"-6 541 LINE",
"210 -4 LINE",
"383 -4 LINE"
);
}
);
width = 595;
}
);
unicode = 0076;
},
{
glyphname = w;
layers = (
{
hints = (
{
horizontal = 1;
place = "{-4, 21}";
target = up;
type = BottomGhost;
},
{
horizontal = 1;
place = "{543, -20}";
target = down;
type = TopGhost;
},
{
place = "{-11, 837}";
type = Stem;
}
);
layerId = "B00352CC-F18A-4BDE-802C-0D96B8769A1B";
paths = (
{
closed = 1;
nodes = (
"-11 541 LINE",
"154 -4 LINE",
"317 -4 LINE",
"407 277 LINE",
"495 -4 LINE",
"659 -4 LINE",
"826 541 LINE",
"643 541 LINE",
"570 267 LINE",
"486 543 LINE",
"329 543 LINE",
"246 269 LINE",
"175 541 LINE"
);
}
);
width = 815;
}
);
unicode = 0077;
},
{
glyphname = x;
layers = (
{
hints = (
{
horizontal = 1;
place = "{0, 21}";
target = up;
type = BottomGhost;
},
{
place = "{1, 573}";
type = Stem;
}
);
layerId = "B00352CC-F18A-4BDE-802C-0D96B8769A1B";
paths = (
{
closed = 1;
nodes = (
"1 0 LINE",
"201 0 LINE",
"286 139 LINE",
"370 0 LINE",
"574 0 LINE",
"392 274 LINE",
"570 541 LINE",
"369 541 LINE",
"289 408 LINE",
"209 541 LINE",
"4 541 LINE",
"183 273 LINE"
);
}
);
width = 576;
}
);
unicode = 0078;
},
{
glyphname = y;
layers = (
{
hints = (
{
horizontal = 1;
place = "{-160, 21}";
target = up;
type = BottomGhost;
},
{
place = "{-6, 604}";
type = Stem;
}
);
layerId = "B00352CC-F18A-4BDE-802C-0D96B8769A1B";
paths = (
{
closed = 1;
nodes = (
"222 -6 LINE",
"173 -160 LINE",
"334 -160 LINE",
"598 541 LINE",
"403 541 LINE",
"301 195 LINE",
"193 541 LINE",
"-6 541 LINE"
);
}
);
width = 593;
}
);
unicode = 0079;
},
{
glyphname = z;
layers = (
{
hints = (
{
horizontal = 1;
place = "{0, 151}";
type = Stem;
},
{
horizontal = 1;
place = "{390, 151}";
type = Stem;
},
{
place = "{15, 502}";
type = Stem;
}
);
layerId = "B00352CC-F18A-4BDE-802C-0D96B8769A1B";
paths = (
{
closed = 1;
nodes = (
"517 416 LINE",
"517 541 LINE",
"24 541 LINE",
"24 390 LINE",
"265 390 LINE",
"15 125 LINE",
"15 0 LINE",
"517 0 LINE",
"517 151 LINE",
"266 151 LINE"
);
}
);
width = 536;
}
);
unicode = 007A;
},
{
glyphname = braceleft;
layers = (
{
hints = (
{
horizontal = 1;
place = "{224, 126}";
type = Stem;
},
{
horizontal = 1;
place = "{715, -20}";
target = down;
type = TopGhost;
},
{
place = "{169, 166}";
type = Stem;
}
);
layerId = "B00352CC-F18A-4BDE-802C-0D96B8769A1B";
paths = (
{
closed = 1;
nodes = (
"35 224 LINE",
"107 224 OFFCURVE",
"174 217 OFFCURVE",
"169 126 CURVE",
"161 -81 OFFCURVE",
"225 -114 OFFCURVE",
"430 -141 CURVE",
"430 -24 LINE",
"315 -5 OFFCURVE",
"335 66 OFFCURVE",
"338 153 CURVE SMOOTH",
"341 229 OFFCURVE",
"293 268 OFFCURVE",
"226 287 CURVE",
"358 324 OFFCURVE",
"335 397 OFFCURVE",
"335 500 CURVE SMOOTH",
"335 567 OFFCURVE",
"370 587 OFFCURVE",
"430 598 CURVE",
"430 715 LINE",
"318 699 OFFCURVE",
"166 677 OFFCURVE",
"166 533 CURVE SMOOTH",
"166 416 OFFCURVE",
"199 350 OFFCURVE",
"35 350 CURVE"
);
}
);
width = 464;
}
);
unicode = 007B;
},
{
glyphname = bar;
layers = (
{
hints = (
{
horizontal = 1;
place = "{-128, 926}";
type = Stem;
},
{
place = "{270, 145}";
type = Stem;
}
);
layerId = "B00352CC-F18A-4BDE-802C-0D96B8769A1B";
paths = (
{
closed = 1;
nodes = (
"270 798 LINE",
"270 -128 LINE",
"415 -128 LINE",
"415 798 LINE"
);
}
);
width = 685;
}
);
unicode = 007C;
},
{
glyphname = braceright;
layers = (
{
hints = (
{
horizontal = 1;
place = "{224, 126}";
type = Stem;
},
{
horizontal = 1;
place = "{715, -20}";
target = down;
type = TopGhost;
},
{
place = "{131, 168}";
type = Stem;
}
);
layerId = "B00352CC-F18A-4BDE-802C-0D96B8769A1B";
paths = (
{
closed = 1;
nodes = (
"430 350 LINE",
"267 350 OFFCURVE",
"299 417 OFFCURVE",
"299 533 CURVE SMOOTH",
"299 677 OFFCURVE",
"147 699 OFFCURVE",
"35 715 CURVE",
"35 598 LINE",
"151 579 OFFCURVE",
"130 509 OFFCURVE",
"127 421 CURVE SMOOTH",
"124 345 OFFCURVE",
"171 306 OFFCURVE",
"239 287 CURVE",
"172 268 OFFCURVE",
"124 227 OFFCURVE",
"127 153 CURVE",
"132 66 OFFCURVE",
"148 -6 OFFCURVE",
"35 -24 CURVE",
"35 -141 LINE",
"158 -125 OFFCURVE",
"299 -100 OFFCURVE",
"299 52 CURVE SMOOTH",
"299 166 OFFCURVE",
"273 224 OFFCURVE",
"430 224 CURVE"
);
}
);
width = 464;
}
);
unicode = 007D;
},
{
glyphname = asciitilde;
layers = (
{
hints = (
{
place = "{41, 414}";
type = Stem;
},
{
horizontal = 1;
place = "{227, 128}";
type = Stem;
},
{
horizontal = 1;
place = "{266, 128}";
type = Stem;
}
);
layerId = "B00352CC-F18A-4BDE-802C-0D96B8769A1B";
paths = (
{
closed = 1;
nodes = (
"368 401 LINE",
"355 370 OFFCURVE",
"344 355 OFFCURVE",
"317 355 CURVE SMOOTH",
"275 355 OFFCURVE",
"225 394 OFFCURVE",
"161 394 CURVE SMOOTH",
"100 394 OFFCURVE",
"64 360 OFFCURVE",
"41 260 CURVE",
"129 220 LINE",
"142 251 OFFCURVE",
"152 266 OFFCURVE",
"179 266 CURVE SMOOTH",
"221 266 OFFCURVE",
"277 227 OFFCURVE",
"336 227 CURVE SMOOTH",
"389 227 OFFCURVE",
"434 258 OFFCURVE",
"455 357 CURVE"
);
}
);
width = 497;
}
);
unicode = 007E;
},
{
glyphname = exclamdown;
layers = (
{
hints = (
{
horizontal = 1;
place = "{341, 193}";
type = Stem;
},
{
place = "{62, 216}";
type = Stem;
}
);
layerId = "B00352CC-F18A-4BDE-802C-0D96B8769A1B";
paths = (
{
closed = 1;
nodes = (
"278 501 OFFCURVE",
"231 534 OFFCURVE",
"171 534 CURVE SMOOTH",
"111 534 OFFCURVE",
"63 501 OFFCURVE",
"63 437 CURVE SMOOTH",
"63 373 OFFCURVE",
"111 341 OFFCURVE",
"171 341 CURVE SMOOTH",
"231 341 OFFCURVE",
"278 373 OFFCURVE",
"278 437 CURVE SMOOTH"
);
},
{
closed = 1;
nodes = (
"278 -179 LINE",
"278 -94 LINE",
"220 293 LINE",
"120 293 LINE",
"62 -94 LINE",
"62 -179 LINE"
);
}
);
width = 341;
}
);
unicode = 00A1;
},
{
glyphname = cent;
layers = (
{
hints = (
{
place = "{32, 165}";
type = Stem;
},
{
place = "{393, 71}";
type = Stem;
},
{
horizontal = 1;
place = "{-6, 21}";
target = up;
type = BottomGhost;
},
{
horizontal = 1;
place = "{75, 146}";
type = Stem;
},
{
horizontal = 1;
place = "{619, 87}";
type = Stem;
},
{
horizontal = 1;
place = "{706, -20}";
target = down;
type = TopGhost;
}
);
layerId = "B00352CC-F18A-4BDE-802C-0D96B8769A1B";
paths = (
{
closed = 1;
nodes = (
"464 603 LINE",
"452 610 OFFCURVE",
"440 615 OFFCURVE",
"428 619 CURVE",
"443 706 LINE",
"328 706 LINE",
"316 636 LINE",
"149 636 OFFCURVE",
"32 511 OFFCURVE",
"32 355 CURVE SMOOTH",
"32 233 OFFCURVE",
"108 129 OFFCURVE",
"219 92 CURVE",
"202 -6 LINE",
"317 -6 LINE",
"331 75 LINE",
"384 78 OFFCURVE",
"429 89 OFFCURVE",
"468 112 CURVE",
"468 278 LINE",
"441 247 OFFCURVE",
"398 221 OFFCURVE",
"345 221 CURVE",
"393 487 LINE",
"416 482 OFFCURVE",
"441 466 OFFCURVE",
"464 438 CURVE"
);
},
{
closed = 1;
nodes = (
"253 238 LINE",
"217 261 OFFCURVE",
"197 302 OFFCURVE",
"197 355 CURVE SMOOTH",
"197 428 OFFCURVE",
"237 482 OFFCURVE",
"298 491 CURVE"
);
}
);
width = 500;
}
);
unicode = 00A2;
},
{
glyphname = sterling;
layers = (
{
hints = (
{
horizontal = 1;
place = "{0, 153}";
type = Stem;
},
{
horizontal = 1;
place = "{263, 136}";
type = Stem;
},
{
horizontal = 1;
place = "{539, 173}";
type = Stem;
},
{
place = "{100, 193}";
type = Stem;
}
);
layerId = "B00352CC-F18A-4BDE-802C-0D96B8769A1B";
paths = (
{
closed = 1;
nodes = (
"509 399 LINE",
"293 399 LINE",
"293 450 LINE SMOOTH",
"293 506 OFFCURVE",
"323 539 OFFCURVE",
"373 539 CURVE SMOOTH",
"405 539 OFFCURVE",
"433 526 OFFCURVE",
"464 494 CURVE",
"593 611 LINE",
"541 670 OFFCURVE",
"469 712 OFFCURVE",
"360 712 CURVE SMOOTH",
"195 712 OFFCURVE",
"100 610 OFFCURVE",
"100 450 CURVE SMOOTH",
"100 399 LINE",
"25 399 LINE",
"25 263 LINE",
"100 263 LINE",
"100 0 LINE",
"586 0 LINE",
"586 153 LINE",
"293 153 LINE",
"293 263 LINE",
"509 263 LINE"
);
}
);
width = 598;
}
);
unicode = 00A3;
},
{
glyphname = currency;
layers = (
{
hints = (
{
place = "{98, 125}";
type = Stem;
},
{
place = "{499, 125}";
type = Stem;
},
{
horizontal = 1;
place = "{69, 115}";
type = Stem;
},
{
horizontal = 1;
place = "{474, 115}";
type = Stem;
},
{
horizontal = 1;
place = "{550, -20}";
target = down;
type = TopGhost;
}
);
layerId = "B00352CC-F18A-4BDE-802C-0D96B8769A1B";
paths = (
{
closed = 1;
nodes = (
"593 639 LINE",
"502 550 LINE",
"462 575 OFFCURVE",
"414 589 OFFCURVE",
"361 589 CURVE SMOOTH",
"305 589 OFFCURVE",
"263 576 OFFCURVE",
"219 549 CURVE",
"125 639 LINE",
"47 560 LINE",
"138 469 LINE",
"109 426 OFFCURVE",
"98 377 OFFCURVE",
"98 329 CURVE SMOOTH",
"98 277 OFFCURVE",
"113 228 OFFCURVE",
"140 188 CURVE",
"47 94 LINE",
"125 15 LINE",
"222 109 LINE",
"266 82 OFFCURVE",
"310 69 OFFCURVE",
"361 69 CURVE SMOOTH",
"413 69 OFFCURVE",
"459 84 OFFCURVE",
"500 108 CURVE",
"594 15 LINE",
"673 94 LINE",
"582 185 LINE",
"610 228 OFFCURVE",
"624 274 OFFCURVE",
"624 329 CURVE SMOOTH",
"624 384 OFFCURVE",
"610 427 OFFCURVE",
"583 470 CURVE",
"673 560 LINE"
);
},
{
closed = 1;
nodes = (
"444 474 OFFCURVE",
"499 409 OFFCURVE",
"499 329 CURVE SMOOTH",
"499 249 OFFCURVE",
"444 184 OFFCURVE",
"361 184 CURVE SMOOTH",
"278 184 OFFCURVE",
"223 249 OFFCURVE",
"223 329 CURVE SMOOTH",
"223 409 OFFCURVE",
"278 474 OFFCURVE",
"361 474 CURVE SMOOTH"
);
}
);
width = 719;
}
);
unicode = 00A4;
},
{
glyphname = yen;
layers = (
{
hints = (
{
place = "{247, 192}";
type = Stem;
},
{
horizontal = 1;
place = "{0, 213}";
type = Stem;
},
{
horizontal = 1;
place = "{93, 120}";
type = Stem;
},
{
horizontal = 1;
place = "{263, 120}";
type = Stem;
},
{
horizontal = 1;
place = "{700, -20}";
target = down;
type = TopGhost;
}
);
layerId = "B00352CC-F18A-4BDE-802C-0D96B8769A1B";
paths = (
{
closed = 1;
nodes = (
"63 213 LINE",
"63 93 LINE",
"247 93 LINE",
"247 0 LINE",
"439 0 LINE",
"439 93 LINE",
"623 93 LINE",
"623 213 LINE",
"439 213 LINE",
"449 263 LINE",
"623 263 LINE",
"623 383 LINE",
"484 383 LINE",
"693 700 LINE",
"477 700 LINE",
"345 470 LINE",
"213 700 LINE",
"-7 700 LINE",
"201 383 LINE",
"63 383 LINE",
"63 263 LINE",
"237 263 LINE",
"247 213 LINE"
);
}
);
width = 687;
}
);
unicode = 00A5;
},
{
glyphname = brokenbar;
layers = (
{
hints = (
{
place = "{270, 167}";
type = Stem;
},
{
horizontal = 1;
place = "{-173, 346}";
type = Stem;
},
{
horizontal = 1;
place = "{-173, 840}";
type = Stem;
},
{
horizontal = 1;
place = "{321, 346}";
type = Stem;
}
);
layerId = "B00352CC-F18A-4BDE-802C-0D96B8769A1B";
paths = (
{
closed = 1;
nodes = (
"270 667 LINE",
"270 321 LINE",
"437 321 LINE",
"437 667 LINE"
);
},
{
closed = 1;
nodes = (
"270 173 LINE",
"270 -173 LINE",
"437 -173 LINE",
"437 173 LINE"
);
}
);
width = 707;
}
);
unicode = 00A6;
},
{
glyphname = section;
layers = (
{
hints = (
{
place = "{20, 146}";
type = Stem;
},
{
place = "{64, 174}";
type = Stem;
},
{
place = "{345, 173}";
type = Stem;
},
{
place = "{416, 146}";
type = Stem;
},
{
horizontal = 1;
place = "{-13, 129}";
type = Stem;
},
{
horizontal = 1;
place = "{584, 129}";
type = Stem;
}
);
layerId = "B00352CC-F18A-4BDE-802C-0D96B8769A1B";
paths = (
{
closed = 1;
nodes = (
"455 681 LINE",
"408 702 OFFCURVE",
"356 713 OFFCURVE",
"295 713 CURVE SMOOTH",
"141 713 OFFCURVE",
"64 641 OFFCURVE",
"64 552 CURVE SMOOTH",
"64 511 OFFCURVE",
"81 474 OFFCURVE",
"112 451 CURVE",
"57 432 OFFCURVE",
"20 394 OFFCURVE",
"20 345 CURVE SMOOTH",
"20 262 OFFCURVE",
"125 218 OFFCURVE",
"249 194 CURVE",
"317 179 OFFCURVE",
"345 165 OFFCURVE",
"345 146 CURVE SMOOTH",
"345 127 OFFCURVE",
"330 116 OFFCURVE",
"291 116 CURVE SMOOTH",
"238 116 OFFCURVE",
"179 139 OFFCURVE",
"128 175 CURVE",
"128 18 LINE",
"173 -1 OFFCURVE",
"229 -13 OFFCURVE",
"288 -13 CURVE SMOOTH",
"442 -13 OFFCURVE",
"518 61 OFFCURVE",
"518 149 CURVE SMOOTH",
"518 190 OFFCURVE",
"500 226 OFFCURVE",
"471 249 CURVE",
"524 268 OFFCURVE",
"562 304 OFFCURVE",
"562 355 CURVE SMOOTH",
"562 443 OFFCURVE",
"458 477 OFFCURVE",
"334 506 CURVE SMOOTH",
"263 522 OFFCURVE",
"238 536 OFFCURVE",
"238 554 CURVE SMOOTH",
"238 573 OFFCURVE",
"254 584 OFFCURVE",
"291 584 CURVE SMOOTH",
"347 584 OFFCURVE",
"404 561 OFFCURVE",
"455 525 CURVE"
);
},
{
closed = 1;
nodes = (
"416 312 OFFCURVE",
"396 297 OFFCURVE",
"365 297 CURVE SMOOTH",
"316 297 OFFCURVE",
"166 320 OFFCURVE",
"166 371 CURVE SMOOTH",
"166 392 OFFCURVE",
"186 403 OFFCURVE",
"217 403 CURVE SMOOTH",
"268 403 OFFCURVE",
"416 372 OFFCURVE",
"416 332 CURVE SMOOTH"
);
}
);
width = 594;
}
);
unicode = 00A7;
},
{
glyphname = dieresis;
layers = (
{
hints = (
{
horizontal = 1;
place = "{629, 171}";
type = Stem;
},
{
place = "{-4, 176}";
type = Stem;
},
{
place = "{222, 176}";
type = Stem;
}
);
layerId = "B00352CC-F18A-4BDE-802C-0D96B8769A1B";
paths = (
{
closed = 1;
nodes = (
"-4 659 OFFCURVE",
"35 629 OFFCURVE",
"84 629 CURVE SMOOTH",
"133 629 OFFCURVE",
"172 659 OFFCURVE",
"172 715 CURVE SMOOTH",
"172 771 OFFCURVE",
"133 800 OFFCURVE",
"84 800 CURVE SMOOTH",
"35 800 OFFCURVE",
"-4 771 OFFCURVE",
"-4 715 CURVE SMOOTH"
);
},
{
closed = 1;
nodes = (
"222 659 OFFCURVE",
"261 629 OFFCURVE",
"310 629 CURVE SMOOTH",
"359 629 OFFCURVE",
"398 659 OFFCURVE",
"398 715 CURVE SMOOTH",
"398 771 OFFCURVE",
"359 800 OFFCURVE",
"310 800 CURVE SMOOTH",
"261 800 OFFCURVE",
"222 771 OFFCURVE",
"222 715 CURVE SMOOTH"
);
}
);
width = 394;
}
);
unicode = 00A8;
},
{
glyphname = copyright;
layers = (
{
hints = (
{
horizontal = 1;
place = "{-14, 40}";
type = Stem;
},
{
horizontal = 1;
place = "{155, 113}";
type = Stem;
},
{
horizontal = 1;
place = "{441, 113}";
type = Stem;
},
{
horizontal = 1;
place = "{674, 40}";
type = Stem;
},
{
place = "{23, 42}";
type = Stem;
},
{
place = "{189, 131}";
type = Stem;
},
{
place = "{705, 42}";
type = Stem;
}
);
layerId = "B00352CC-F18A-4BDE-802C-0D96B8769A1B";
paths = (
{
closed = 1;
nodes = (
"588 -14 OFFCURVE",
"747 156 OFFCURVE",
"747 353 CURVE SMOOTH",
"747 549 OFFCURVE",
"589 714 OFFCURVE",
"386 714 CURVE SMOOTH",
"182 714 OFFCURVE",
"23 547 OFFCURVE",
"23 351 CURVE SMOOTH",
"23 153 OFFCURVE",
"181 -14 OFFCURVE",
"384 -14 CURVE SMOOTH"
);
},
{
closed = 1;
nodes = (
"203 26 OFFCURVE",
"65 173 OFFCURVE",
"65 351 CURVE SMOOTH",
"65 527 OFFCURVE",
"203 674 OFFCURVE",
"386 674 CURVE SMOOTH",
"568 674 OFFCURVE",
"705 529 OFFCURVE",
"705 353 CURVE SMOOTH",
"705 174 OFFCURVE",
"567 26 OFFCURVE",
"384 26 CURVE SMOOTH"
);
},
{
closed = 1;
nodes = (
"497 304 LINE",
"476 285 OFFCURVE",
"446 268 OFFCURVE",
"407 268 CURVE SMOOTH",
"361 268 OFFCURVE",
"320 306 OFFCURVE",
"320 355 CURVE SMOOTH",
"320 403 OFFCURVE",
"359 441 OFFCURVE",
"410 441 CURVE SMOOTH",
"445 441 OFFCURVE",
"473 424 OFFCURVE",
"494 405 CURVE",
"494 534 LINE",
"469 547 OFFCURVE",
"438 554 OFFCURVE",
"405 554 CURVE SMOOTH",
"284 554 OFFCURVE",
"189 462 OFFCURVE",
"189 355 CURVE SMOOTH",
"189 247 OFFCURVE",
"285 155 OFFCURVE",
"399 155 CURVE SMOOTH",
"440 155 OFFCURVE",
"473 167 OFFCURVE",
"497 178 CURVE"
);
}
);
width = 769;
}
);
unicode = 00A9;
},
{
glyphname = ordfeminine;
layers = (
{
hints = (
{
horizontal = 1;
place = "{286, 77}";
type = Stem;
},
{
horizontal = 1;
place = "{419, 60}";
type = Stem;
},
{
horizontal = 1;
place = "{549, 50}";
type = Stem;
},
{
horizontal = 1;
place = "{641, 80}";
type = Stem;
},
{
place = "{26, 101}";
type = Stem;
},
{
place = "{213, 104}";
type = Stem;
}
);
layerId = "B00352CC-F18A-4BDE-802C-0D96B8769A1B";
paths = (
{
closed = 1;
nodes = (
"165 413 OFFCURVE",
"193 428 OFFCURVE",
"213 451 CURVE",
"213 419 LINE",
"317 419 LINE",
"317 589 LINE SMOOTH",
"317 676 OFFCURVE",
"274 721 OFFCURVE",
"171 721 CURVE SMOOTH",
"123 721 OFFCURVE",
"86 713 OFFCURVE",
"51 698 CURVE",
"72 624 LINE",
"99 635 OFFCURVE",
"126 641 OFFCURVE",
"154 641 CURVE SMOOTH",
"195 641 OFFCURVE",
"214 623 OFFCURVE",
"214 592 CURVE SMOOTH",
"214 588 LINE",
"197 595 OFFCURVE",
"171 599 OFFCURVE",
"143 599 CURVE SMOOTH",
"72 599 OFFCURVE",
"26 569 OFFCURVE",
"26 506 CURVE SMOOTH",
"26 446 OFFCURVE",
"69 413 OFFCURVE",
"126 413 CURVE SMOOTH"
);
},
{
closed = 1;
nodes = (
"142 479 OFFCURVE",
"127 493 OFFCURVE",
"127 513 CURVE SMOOTH",
"127 534 OFFCURVE",
"145 549 OFFCURVE",
"174 549 CURVE SMOOTH",
"190 549 OFFCURVE",
"204 545 OFFCURVE",
"215 541 CURVE",
"215 528 LINE SMOOTH",
"215 497 OFFCURVE",
"188 479 OFFCURVE",
"163 479 CURVE SMOOTH"
);
},
{
closed = 1;
nodes = (
"23 286 LINE",
"322 286 LINE",
"322 363 LINE",
"23 363 LINE"
);
}
);
width = 354;
}
);
unicode = 00AA;
},
{
glyphname = guillemotleft;
layers = (
{
hints = (
{
horizontal = 1;
place = "{37, 463}";
type = Stem;
},
{
place = "{32, 590}";
type = Stem;
}
);
layerId = "B00352CC-F18A-4BDE-802C-0D96B8769A1B";
paths = (
{
closed = 1;
nodes = (
"217 268 LINE",
"347 439 LINE",
"206 500 LINE",
"32 268 LINE",
"205 37 LINE",
"347 98 LINE"
);
},
{
closed = 1;
nodes = (
"492 268 LINE",
"622 439 LINE",
"481 500 LINE",
"307 268 LINE",
"480 37 LINE",
"622 98 LINE"
);
}
);
width = 657;
}
);
unicode = 00AB;
},
{
glyphname = logicalnot;
layers = (
{
hints = (
{
horizontal = 1;
place = "{277, 139}";
type = Stem;
},
{
place = "{460, 147}";
type = Stem;
}
);
layerId = "B00352CC-F18A-4BDE-802C-0D96B8769A1B";
paths = (
{
closed = 1;
nodes = (
"607 416 LINE",
"79 416 LINE",
"79 277 LINE",
"460 277 LINE",
"460 125 LINE",
"607 125 LINE"
);
}
);
width = 686;
}
);
unicode = 00AC;
},
{
glyphname = uni00AD;
layers = (
{
hints = (
{
horizontal = 1;
place = "{189, 167}";
type = Stem;
},
{
place = "{22, 328}";
type = Stem;
}
);
layerId = "B00352CC-F18A-4BDE-802C-0D96B8769A1B";
paths = (
{
closed = 1;
nodes = (
"350 356 LINE",
"22 356 LINE",
"22 189 LINE",
"350 189 LINE"
);
}
);
width = 371;
}
);
unicode = 00AD;
},
{
glyphname = registered;
layers = (
{
hints = (
{
horizontal = 1;
place = "{-9, 40}";
type = Stem;
},
{
horizontal = 1;
place = "{290, 83}";
type = Stem;
},
{
horizontal = 1;
place = "{466, 92}";
type = Stem;
},
{
horizontal = 1;
place = "{679, 40}";
type = Stem;
},
{
place = "{19, 42}";
type = Stem;
},
{
place = "{222, 107}";
type = Stem;
},
{
place = "{457, 107}";
type = Stem;
},
{
place = "{701, 42}";
type = Stem;
}
);
layerId = "B00352CC-F18A-4BDE-802C-0D96B8769A1B";
paths = (
{
closed = 1;
nodes = (
"19 156 OFFCURVE",
"177 -9 OFFCURVE",
"380 -9 CURVE SMOOTH",
"584 -9 OFFCURVE",
"743 158 OFFCURVE",
"743 355 CURVE SMOOTH",
"743 554 OFFCURVE",
"585 719 OFFCURVE",
"382 719 CURVE SMOOTH",
"178 719 OFFCURVE",
"19 552 OFFCURVE",
"19 355 CURVE SMOOTH"
);
},
{
closed = 1;
nodes = (
"61 532 OFFCURVE",
"199 679 OFFCURVE",
"382 679 CURVE SMOOTH",
"564 679 OFFCURVE",
"701 534 OFFCURVE",
"701 357 CURVE SMOOTH",
"701 178 OFFCURVE",
"563 31 OFFCURVE",
"380 31 CURVE SMOOTH",
"199 31 OFFCURVE",
"61 176 OFFCURVE",
"61 353 CURVE SMOOTH"
);
},
{
closed = 1;
nodes = (
"222 173 LINE",
"329 173 LINE",
"329 290 LINE",
"376 290 LINE",
"454 173 LINE",
"577 173 LINE",
"485 307 LINE",
"533 328 OFFCURVE",
"564 369 OFFCURVE",
"564 425 CURVE SMOOTH",
"564 502 OFFCURVE",
"510 558 OFFCURVE",
"401 558 CURVE SMOOTH",
"222 558 LINE"
);
},
{
closed = 1;
nodes = (
"329 373 LINE",
"329 466 LINE",
"398 466 LINE SMOOTH",
"434 466 OFFCURVE",
"457 447 OFFCURVE",
"457 420 CURVE SMOOTH",
"457 393 OFFCURVE",
"435 373 OFFCURVE",
"399 373 CURVE SMOOTH"
);
}
);
width = 762;
}
);
unicode = 00AE;
},
{
glyphname = degree;
layers = (
{
hints = (
{
horizontal = 1;
place = "{393, 92}";
type = Stem;
},
{
horizontal = 1;
place = "{656, 92}";
type = Stem;
},
{
place = "{31, 98}";
type = Stem;
},
{
place = "{297, 98}";
type = Stem;
}
);
layerId = "B00352CC-F18A-4BDE-802C-0D96B8769A1B";
paths = (
{
closed = 1;
nodes = (
"395 668 OFFCURVE",
"309 748 OFFCURVE",
"213 748 CURVE SMOOTH",
"117 748 OFFCURVE",
"31 668 OFFCURVE",
"31 571 CURVE SMOOTH",
"31 474 OFFCURVE",
"114 393 OFFCURVE",
"213 393 CURVE SMOOTH",
"312 393 OFFCURVE",
"395 474 OFFCURVE",
"395 571 CURVE SMOOTH"
);
},
{
closed = 1;
nodes = (
"297 524 OFFCURVE",
"261 485 OFFCURVE",
"213 485 CURVE SMOOTH",
"165 485 OFFCURVE",
"129 524 OFFCURVE",
"129 571 CURVE SMOOTH",
"129 619 OFFCURVE",
"166 656 OFFCURVE",
"213 656 CURVE SMOOTH",
"260 656 OFFCURVE",
"297 618 OFFCURVE",
"297 571 CURVE SMOOTH"
);
}
);
width = 425;
}
);
unicode = 00B0;
},
{
glyphname = plusminus;
layers = (
{
hints = (
{
horizontal = 1;
place = "{0, 129}";
type = Stem;
},
{
horizontal = 1;
place = "{323, 129}";
type = Stem;
},
{
place = "{253, 133}";
type = Stem;
}
);
layerId = "B00352CC-F18A-4BDE-802C-0D96B8769A1B";
paths = (
{
closed = 1;
nodes = (
"81 323 LINE",
"253 323 LINE",
"253 173 LINE",
"386 173 LINE",
"386 323 LINE",
"555 323 LINE",
"555 452 LINE",
"386 452 LINE",
"386 596 LINE",
"253 596 LINE",
"253 452 LINE",
"81 452 LINE"
);
},
{
closed = 1;
nodes = (
"81 0 LINE",
"555 0 LINE",
"555 129 LINE",
"81 129 LINE"
);
}
);
width = 636;
}
);
unicode = 00B1;
},
{
glyphname = twosuperior;
layers = (
{
hints = (
{
horizontal = 1;
place = "{285, 97}";
type = Stem;
},
{
horizontal = 1;
place = "{619, 98}";
type = Stem;
},
{
place = "{43, 129}";
type = Stem;
},
{
place = "{268, 128}";
type = Stem;
}
);
layerId = "B00352CC-F18A-4BDE-802C-0D96B8769A1B";
paths = (
{
closed = 1;
nodes = (
"18 285 LINE",
"400 285 LINE",
"400 386 LINE",
"242 378 LINE",
"282 404 LINE SMOOTH",
"346 447 OFFCURVE",
"396 499 OFFCURVE",
"396 574 CURVE SMOOTH",
"396 662 OFFCURVE",
"312 717 OFFCURVE",
"223 717 CURVE SMOOTH",
"106 717 OFFCURVE",
"52 659 OFFCURVE",
"43 555 CURVE",
"172 555 LINE",
"172 584 OFFCURVE",
"181 619 OFFCURVE",
"220 619 CURVE SMOOTH",
"249 619 OFFCURVE",
"268 598 OFFCURVE",
"268 569 CURVE SMOOTH",
"268 516 OFFCURVE",
"199 457 OFFCURVE",
"168 428 CURVE SMOOTH"
);
}
);
width = 430;
}
);
unicode = 00B2;
},
{
glyphname = threesuperior;
layers = (
{
hints = (
{
place = "{233, 124}";
type = Stem;
},
{
place = "{249, 126}";
type = Stem;
},
{
horizontal = 1;
place = "{279, 90}";
type = Stem;
},
{
horizontal = 1;
place = "{475, 72}";
type = Stem;
},
{
horizontal = 1;
place = "{589, 132}";
type = Stem;
}
);
layerId = "B00352CC-F18A-4BDE-802C-0D96B8769A1B";
paths = (
{
closed = 1;
nodes = (
"10 424 LINE",
"15 328 OFFCURVE",
"95 279 OFFCURVE",
"194 279 CURVE SMOOTH",
"285 279 OFFCURVE",
"375 321 OFFCURVE",
"375 414 CURVE SMOOTH",
"375 457 OFFCURVE",
"351 496 OFFCURVE",
"307 515 CURVE",
"340 532 OFFCURVE",
"357 566 OFFCURVE",
"357 601 CURVE SMOOTH",
"357 681 OFFCURVE",
"275 721 OFFCURVE",
"197 721 CURVE SMOOTH",
"113 721 OFFCURVE",
"35 679 OFFCURVE",
"27 589 CURVE",
"152 589 LINE",
"152 609 OFFCURVE",
"163 632 OFFCURVE",
"194 632 CURVE SMOOTH",
"218 632 OFFCURVE",
"233 615 OFFCURVE",
"233 592 CURVE SMOOTH",
"233 564 OFFCURVE",
"212 547 OFFCURVE",
"187 547 CURVE SMOOTH",
"175 547 LINE",
"175 474 LINE",
"177 474 OFFCURVE",
"179 474 OFFCURVE",
"181 474 CURVE",
"192 475 LINE",
"224 475 OFFCURVE",
"249 461 OFFCURVE",
"249 426 CURVE SMOOTH",
"249 393 OFFCURVE",
"226 369 OFFCURVE",
"195 369 CURVE SMOOTH",
"160 369 OFFCURVE",
"139 393 OFFCURVE",
"138 424 CURVE"
);
}
);
width = 398;
}
);
unicode = 00B3;
},
{
glyphname = acute;
layers = (
{
hints = (
{
horizontal = 1;
place = "{616, 185}";
type = Stem;
},
{
place = "{5, 281}";
type = Stem;
}
);
layerId = "B00352CC-F18A-4BDE-802C-0D96B8769A1B";
paths = (
{
closed = 1;
nodes = (
"5 616 LINE",
"139 616 LINE",
"286 744 LINE",
"109 801 LINE"
);
}
);
width = 269;
}
);
unicode = 00B4;
},
{
glyphname = uni00B5;
layers = (
{
hints = (
{
place = "{47, 190}";
type = Stem;
},
{
place = "{393, 190}";
type = Stem;
},
{
horizontal = 1;
place = "{-160, 21}";
target = up;
type = BottomGhost;
},
{
horizontal = 1;
place = "{-12, 169}";
type = Stem;
},
{
horizontal = 1;
place = "{-12, 21}";
target = up;
type = BottomGhost;
},
{
horizontal = 1;
place = "{0, 21}";
target = up;
type = BottomGhost;
}
);
layerId = "B00352CC-F18A-4BDE-802C-0D96B8769A1B";
paths = (
{
closed = 1;
nodes = (
"237 36 LINE",
"248 11 OFFCURVE",
"274 -12 OFFCURVE",
"307 -12 CURVE SMOOTH",
"342 -12 OFFCURVE",
"372 14 OFFCURVE",
"393 74 CURVE",
"583 0 LINE",
"583 541 LINE",
"393 541 LINE",
"393 248 LINE SMOOTH",
"393 189 OFFCURVE",
"359 157 OFFCURVE",
"314 157 CURVE SMOOTH",
"268 157 OFFCURVE",
"237 189 OFFCURVE",
"237 248 CURVE SMOOTH",
"237 541 LINE",
"47 541 LINE",
"47 -160 LINE",
"237 -160 LINE"
);
}
);
width = 634;
}
);
unicode = 00B5;
},
{
glyphname = paragraph;
layers = (
{
hints = (
{
horizontal = 1;
place = "{604, 102}";
type = Stem;
},
{
place = "{230, 112}";
type = Stem;
},
{
place = "{404, 112}";
type = Stem;
}
);
layerId = "B00352CC-F18A-4BDE-802C-0D96B8769A1B";
paths = (
{
closed = 1;
nodes = (
"342 -113 LINE",
"342 604 LINE",
"404 604 LINE",
"404 -113 LINE",
"516 -113 LINE",
"516 604 LINE",
"571 604 LINE",
"571 706 LINE",
"273 706 LINE SMOOTH",
"125 706 OFFCURVE",
"43 626 OFFCURVE",
"43 502 CURVE SMOOTH",
"43 391 OFFCURVE",
"122 321 OFFCURVE",
"230 308 CURVE",
"230 -113 LINE"
);
}
);
width = 641;
}
);
unicode = 00B6;
},
{
glyphname = periodcentered;
layers = (
{
hints = (
{
horizontal = 1;
place = "{269, 219}";
type = Stem;
},
{
place = "{62, 225}";
type = Stem;
}
);
layerId = "B00352CC-F18A-4BDE-802C-0D96B8769A1B";
paths = (
{
closed = 1;
nodes = (
"62 307 OFFCURVE",
"111 269 OFFCURVE",
"174 269 CURVE SMOOTH",
"238 269 OFFCURVE",
"287 307 OFFCURVE",
"287 379 CURVE SMOOTH",
"287 451 OFFCURVE",
"238 488 OFFCURVE",
"174 488 CURVE SMOOTH",
"111 488 OFFCURVE",
"62 451 OFFCURVE",
"62 379 CURVE SMOOTH"
);
}
);
width = 349;
}
);
unicode = 00B7;
},
{
glyphname = cedilla;
layers = (
{
hints = (
{
horizontal = 1;
place = "{-246, 66}";
type = Stem;
},
{
horizontal = 1;
place = "{-126, 126}";
type = Stem;
},
{
place = "{223, 83}";
type = Stem;
}
);
layerId = "B00352CC-F18A-4BDE-802C-0D96B8769A1B";
paths = (
{
closed = 1;
nodes = (
"248 0 LINE",
"178 0 LINE",
"108 -110 LINE",
"139 -136 LINE",
"155 -129 OFFCURVE",
"169 -126 OFFCURVE",
"184 -126 CURVE SMOOTH",
"208 -126 OFFCURVE",
"223 -135 OFFCURVE",
"223 -151 CURVE SMOOTH",
"223 -172 OFFCURVE",
"190 -180 OFFCURVE",
"170 -180 CURVE SMOOTH",
"151 -180 OFFCURVE",
"125 -176 OFFCURVE",
"98 -164 CURVE",
"72 -220 LINE",
"107 -237 OFFCURVE",
"145 -246 OFFCURVE",
"180 -246 CURVE SMOOTH",
"235 -246 OFFCURVE",
"306 -223 OFFCURVE",
"306 -150 CURVE SMOOTH",
"306 -95 OFFCURVE",
"258 -68 OFFCURVE",
"214 -68 CURVE SMOOTH",
"206 -68 LINE"
);
}
);
width = 372;
}
);
unicode = 00B8;
},
{
glyphname = onesuperior;
layers = (
{
hints = (
{
horizontal = 1;
place = "{604, 102}";
type = Stem;
},
{
place = "{112, 128}";
type = Stem;
}
);
layerId = "B00352CC-F18A-4BDE-802C-0D96B8769A1B";
paths = (
{
closed = 1;
nodes = (
"112 285 LINE",
"240 285 LINE",
"240 708 LINE",
"150 706 LINE",
"109 706 OFFCURVE",
"60 704 OFFCURVE",
"47 704 CURVE",
"47 602 LINE",
"72 603 OFFCURVE",
"85 603 OFFCURVE",
"112 604 CURVE"
);
}
);
width = 347;
}
);
unicode = 00B9;
},
{
glyphname = ordmasculine;
layers = (
{
hints = (
{
place = "{23, 102}";
type = Stem;
},
{
place = "{41, 288}";
type = Stem;
},
{
place = "{245, 102}";
type = Stem;
},
{
horizontal = 1;
place = "{289, 77}";
type = Stem;
},
{
horizontal = 1;
place = "{414, 89}";
type = Stem;
},
{
horizontal = 1;
place = "{635, 89}";
type = Stem;
}
);
layerId = "B00352CC-F18A-4BDE-802C-0D96B8769A1B";
paths = (
{
closed = 1;
nodes = (
"278 414 OFFCURVE",
"347 485 OFFCURVE",
"347 570 CURVE SMOOTH",
"347 655 OFFCURVE",
"279 724 OFFCURVE",
"186 724 CURVE SMOOTH",
"93 724 OFFCURVE",
"23 653 OFFCURVE",
"23 569 CURVE SMOOTH",
"23 485 OFFCURVE",
"91 414 OFFCURVE",
"184 414 CURVE SMOOTH"
);
},
{
closed = 1;
nodes = (
"150 503 OFFCURVE",
"125 534 OFFCURVE",
"125 570 CURVE SMOOTH",
"125 606 OFFCURVE",
"148 635 OFFCURVE",
"184 635 CURVE SMOOTH",
"220 635 OFFCURVE",
"245 605 OFFCURVE",
"245 569 CURVE SMOOTH",
"245 533 OFFCURVE",
"222 503 OFFCURVE",
"186 503 CURVE SMOOTH"
);
},
{
closed = 1;
nodes = (
"41 289 LINE",
"329 289 LINE",
"329 366 LINE",
"41 366 LINE"
);
}
);
width = 370;
}
);
unicode = 00BA;
},
{
glyphname = guillemotright;
layers = (
{
hints = (
{
horizontal = 1;
place = "{37, 463}";
type = Stem;
},
{
place = "{36, 591}";
type = Stem;
}
);
layerId = "B00352CC-F18A-4BDE-802C-0D96B8769A1B";
paths = (
{
closed = 1;
nodes = (
"36 98 LINE",
"178 37 LINE",
"351 268 LINE",
"177 500 LINE",
"36 439 LINE",
"166 268 LINE"
);
},
{
closed = 1;
nodes = (
"312 98 LINE",
"454 37 LINE",
"627 268 LINE",
"453 500 LINE",
"312 439 LINE",
"442 268 LINE"
);
}
);
width = 659;
}
);
unicode = 00BB;
},
{
glyphname = onequarter;
layers = (
{
hints = (
{
place = "{82, 128}";
type = Stem;
},
{
place = "{657, 118}";
type = Stem;
},
{
horizontal = 1;
place = "{1, 168}";
type = Stem;
},
{
horizontal = 1;
place = "{79, 91}";
type = Stem;
},
{
horizontal = 1;
place = "{604, 102}";
type = Stem;
}
);
layerId = "B00352CC-F18A-4BDE-802C-0D96B8769A1B";
paths = (
{
closed = 1;
nodes = (
"684 823 LINE",
"530 823 LINE",
"87 -103 LINE",
"241 -103 LINE"
);
},
{
closed = 1;
nodes = (
"82 285 LINE",
"210 285 LINE",
"210 708 LINE",
"120 706 LINE",
"79 706 OFFCURVE",
"30 704 OFFCURVE",
"17 704 CURVE",
"17 602 LINE",
"42 603 OFFCURVE",
"55 603 OFFCURVE",
"82 604 CURVE"
);
},
{
closed = 1;
nodes = (
"440 79 LINE",
"512 79 OFFCURVE",
"584 80 OFFCURVE",
"657 81 CURVE",
"654 1 LINE",
"775 1 LINE",
"773 81 LINE",
"792 80 OFFCURVE",
"809 79 OFFCURVE",
"828 79 CURVE",
"828 171 LINE",
"775 169 LINE",
"775 428 LINE",
"635 428 LINE",
"440 152 LINE"
);
},
{
closed = 1;
nodes = (
"568 168 LINE",
"597 213 OFFCURVE",
"632 256 OFFCURVE",
"658 304 CURVE",
"659 303 OFFCURVE",
"660 303 OFFCURVE",
"661 303 CURVE",
"660 297 LINE",
"655 259 OFFCURVE",
"657 196 OFFCURVE",
"657 169 CURVE",
"642 169 OFFCURVE",
"628 169 OFFCURVE",
"613 168 CURVE",
"598 168 OFFCURVE",
"583 168 OFFCURVE",
"568 167 CURVE"
);
}
);
width = 852;
}
);
unicode = 00BC;
},
{
glyphname = onehalf;
layers = (
{
hints = (
{
horizontal = 1;
place = "{-1, 97}";
type = Stem;
},
{
horizontal = 1;
place = "{333, 98}";
type = Stem;
},
{
horizontal = 1;
place = "{604, 102}";
type = Stem;
},
{
place = "{82, 128}";
type = Stem;
},
{
place = "{511, 129}";
type = Stem;
},
{
place = "{736, 128}";
type = Stem;
}
);
layerId = "B00352CC-F18A-4BDE-802C-0D96B8769A1B";
paths = (
{
closed = 1;
nodes = (
"686 823 LINE",
"532 823 LINE",
"89 -103 LINE",
"243 -103 LINE"
);
},
{
closed = 1;
nodes = (
"82 285 LINE",
"210 285 LINE",
"210 708 LINE",
"120 706 LINE",
"79 706 OFFCURVE",
"30 704 OFFCURVE",
"17 704 CURVE",
"17 602 LINE",
"42 603 OFFCURVE",
"55 603 OFFCURVE",
"82 604 CURVE"
);
},
{
closed = 1;
nodes = (
"486 -1 LINE",
"868 -1 LINE",
"868 100 LINE",
"710 92 LINE",
"750 118 LINE SMOOTH",
"814 161 OFFCURVE",
"864 213 OFFCURVE",
"864 288 CURVE SMOOTH",
"864 376 OFFCURVE",
"780 431 OFFCURVE",
"691 431 CURVE SMOOTH",
"574 431 OFFCURVE",
"520 373 OFFCURVE",
"511 269 CURVE",
"640 269 LINE",
"640 298 OFFCURVE",
"649 333 OFFCURVE",
"688 333 CURVE SMOOTH",
"717 333 OFFCURVE",
"736 312 OFFCURVE",
"736 283 CURVE SMOOTH",
"736 230 OFFCURVE",
"667 171 OFFCURVE",
"636 142 CURVE SMOOTH"
);
}
);
width = 903;
}
);
unicode = 00BD;
},
{
glyphname = threequarters;
layers = (
{
hints = (
{
place = "{251, 124}";
type = Stem;
},
{
place = "{267, 126}";
type = Stem;
},
{
place = "{817, 118}";
type = Stem;
},
{
horizontal = 1;
place = "{1, 168}";
type = Stem;
},
{
horizontal = 1;
place = "{79, 91}";
type = Stem;
},
{
horizontal = 1;
place = "{279, 90}";
type = Stem;
},
{
horizontal = 1;
place = "{475, 72}";
type = Stem;
},
{
horizontal = 1;
place = "{589, 132}";
type = Stem;
}
);
layerId = "B00352CC-F18A-4BDE-802C-0D96B8769A1B";
paths = (
{
closed = 1;
nodes = (
"840 823 LINE",
"686 823 LINE",
"243 -103 LINE",
"397 -103 LINE"
);
},
{
closed = 1;
nodes = (
"28 424 LINE",
"33 328 OFFCURVE",
"113 279 OFFCURVE",
"212 279 CURVE SMOOTH",
"303 279 OFFCURVE",
"393 321 OFFCURVE",
"393 414 CURVE SMOOTH",
"393 457 OFFCURVE",
"369 496 OFFCURVE",
"325 515 CURVE",
"358 532 OFFCURVE",
"375 566 OFFCURVE",
"375 601 CURVE SMOOTH",
"375 681 OFFCURVE",
"293 721 OFFCURVE",
"215 721 CURVE SMOOTH",
"131 721 OFFCURVE",
"53 679 OFFCURVE",
"45 589 CURVE",
"170 589 LINE",
"170 609 OFFCURVE",
"181 632 OFFCURVE",
"212 632 CURVE SMOOTH",
"236 632 OFFCURVE",
"251 615 OFFCURVE",
"251 592 CURVE SMOOTH",
"251 564 OFFCURVE",
"230 547 OFFCURVE",
"205 547 CURVE SMOOTH",
"193 547 LINE",
"193 474 LINE",
"195 474 OFFCURVE",
"197 474 OFFCURVE",
"199 474 CURVE",
"210 475 LINE",
"242 475 OFFCURVE",
"267 461 OFFCURVE",
"267 426 CURVE SMOOTH",
"267 393 OFFCURVE",
"244 369 OFFCURVE",
"213 369 CURVE SMOOTH",
"178 369 OFFCURVE",
"157 393 OFFCURVE",
"156 424 CURVE"
);
},
{
closed = 1;
nodes = (
"600 79 LINE",
"672 79 OFFCURVE",
"744 80 OFFCURVE",
"817 81 CURVE",
"814 1 LINE",
"935 1 LINE",
"933 81 LINE",
"952 80 OFFCURVE",
"969 79 OFFCURVE",
"988 79 CURVE",
"988 171 LINE",
"935 169 LINE",
"935 428 LINE",
"795 428 LINE",
"600 152 LINE"
);
},
{
closed = 1;
nodes = (
"728 168 LINE",
"757 213 OFFCURVE",
"792 256 OFFCURVE",
"818 304 CURVE",
"819 303 OFFCURVE",
"820 303 OFFCURVE",
"821 303 CURVE",
"820 297 LINE",
"815 259 OFFCURVE",
"817 196 OFFCURVE",
"817 169 CURVE",
"802 169 OFFCURVE",
"788 169 OFFCURVE",
"773 168 CURVE",
"758 168 OFFCURVE",
"743 168 OFFCURVE",
"728 167 CURVE"
);
}
);
width = 1012;
}
);
unicode = 00BE;
},
{
glyphname = questiondown;
layers = (
{
hints = (
{
place = "{37, 191}";
type = Stem;
},
{
place = "{166, 215}";
type = Stem;
},
{
place = "{194, 174}";
type = Stem;
},
{
horizontal = 1;
place = "{-190, 162}";
type = Stem;
},
{
horizontal = 1;
place = "{339, 193}";
type = Stem;
}
);
layerId = "B00352CC-F18A-4BDE-802C-0D96B8769A1B";
paths = (
{
closed = 1;
nodes = (
"381 499 OFFCURVE",
"334 532 OFFCURVE",
"274 532 CURVE SMOOTH",
"214 532 OFFCURVE",
"166 499 OFFCURVE",
"166 435 CURVE SMOOTH",
"166 371 OFFCURVE",
"214 339 OFFCURVE",
"274 339 CURVE SMOOTH",
"334 339 OFFCURVE",
"381 371 OFFCURVE",
"381 435 CURVE SMOOTH"
);
},
{
closed = 1;
nodes = (
"270 -28 OFFCURVE",
"228 -12 OFFCURVE",
"228 25 CURVE SMOOTH",
"228 54 OFFCURVE",
"254 82 OFFCURVE",
"281 102 CURVE SMOOTH",
"325 136 OFFCURVE",
"368 178 OFFCURVE",
"368 258 CURVE SMOOTH",
"368 301 LINE",
"194 301 LINE",
"194 270 LINE SMOOTH",
"194 232 OFFCURVE",
"183 221 OFFCURVE",
"150 194 CURVE",
"84 144 OFFCURVE",
"37 104 OFFCURVE",
"37 13 CURVE SMOOTH",
"37 -118 OFFCURVE",
"150 -190 OFFCURVE",
"273 -190 CURVE SMOOTH",
"357 -190 OFFCURVE",
"435 -161 OFFCURVE",
"487 -94 CURVE",
"487 64 LINE",
"446 26 OFFCURVE",
"381 -28 OFFCURVE",
"308 -28 CURVE SMOOTH"
);
}
);
width = 524;
}
);
unicode = 00BF;
},
{
glyphname = Agrave;
layers = (
{
hints = (
{
horizontal = 1;
place = "{0, 21}";
target = up;
type = BottomGhost;
},
{
horizontal = 1;
place = "{125, 151}";
type = Stem;
},
{
horizontal = 1;
place = "{705, -20}";
target = down;
type = TopGhost;
},
{
place = "{-8, 783}";
type = Stem;
}
);
layerId = "B00352CC-F18A-4BDE-802C-0D96B8769A1B";
paths = (
{
closed = 1;
nodes = (
"340 811 LINE",
"474 811 LINE",
"370 996 LINE",
"193 939 LINE"
);
},
{
closed = 1;
nodes = (
"516 125 LINE",
"567 0 LINE",
"775 0 LINE",
"477 705 LINE",
"290 705 LINE",
"-8 0 LINE",
"196 0 LINE",
"246 125 LINE"
);
},
{
closed = 1;
nodes = (
"382 475 LINE",
"460 276 LINE",
"303 276 LINE"
);
}
);
width = 767;
}
);
unicode = 00C0;
},
{
glyphname = Aacute;
layers = (
{
hints = (
{
horizontal = 1;
place = "{0, 21}";
target = up;
type = BottomGhost;
},
{
horizontal = 1;
place = "{125, 151}";
type = Stem;
},
{
horizontal = 1;
place = "{705, -20}";
target = down;
type = TopGhost;
},
{
place = "{-8, 783}";
type = Stem;
}
);
layerId = "B00352CC-F18A-4BDE-802C-0D96B8769A1B";
paths = (
{
closed = 1;
nodes = (
"340 781 LINE",
"474 781 LINE",
"621 909 LINE",
"444 966 LINE"
);
},
{
closed = 1;
nodes = (
"516 125 LINE",
"567 0 LINE",
"775 0 LINE",
"477 705 LINE",
"290 705 LINE",
"-8 0 LINE",
"196 0 LINE",
"246 125 LINE"
);
},
{
closed = 1;
nodes = (
"382 475 LINE",
"460 276 LINE",
"303 276 LINE"
);
}
);
width = 767;
}
);
unicode = 00C1;
},
{
glyphname = Acircumflex;
layers = (
{
hints = (
{
horizontal = 1;
place = "{0, 21}";
target = up;
type = BottomGhost;
},
{
horizontal = 1;
place = "{125, 151}";
type = Stem;
},
{
horizontal = 1;
place = "{705, -20}";
target = down;
type = TopGhost;
},
{
horizontal = 1;
place = "{778, 186}";
type = Stem;
},
{
place = "{-8, 783}";
type = Stem;
}
);
layerId = "B00352CC-F18A-4BDE-802C-0D96B8769A1B";
paths = (
{
closed = 1;
nodes = (
"430 964 LINE",
"331 964 LINE",
"191 778 LINE",
"322 778 LINE",
"381 839 LINE",
"440 778 LINE",
"570 778 LINE"
);
},
{
closed = 1;
nodes = (
"516 125 LINE",
"567 0 LINE",
"775 0 LINE",
"477 705 LINE",
"290 705 LINE",
"-8 0 LINE",
"196 0 LINE",
"246 125 LINE"
);
},
{
closed = 1;
nodes = (
"382 475 LINE",
"460 276 LINE",
"303 276 LINE"
);
}
);
width = 767;
}
);
unicode = 00C2;
},
{
glyphname = Atilde;
layers = (
{
hints = (
{
place = "{-8, 783}";
type = Stem;
},
{
horizontal = 1;
place = "{0, 21}";
target = up;
type = BottomGhost;
},
{
horizontal = 1;
place = "{125, 151}";
type = Stem;
},
{
horizontal = 1;
place = "{705, -20}";
target = down;
type = TopGhost;
},
{
horizontal = 1;
place = "{766, 119}";
type = Stem;
},
{
horizontal = 1;
place = "{801, 119}";
type = Stem;
}
);
layerId = "B00352CC-F18A-4BDE-802C-0D96B8769A1B";
paths = (
{
closed = 1;
nodes = (
"297 754 LINE",
"308 790 OFFCURVE",
"316 801 OFFCURVE",
"331 801 CURVE SMOOTH",
"358 801 OFFCURVE",
"398 766 OFFCURVE",
"446 766 CURVE SMOOTH",
"510 766 OFFCURVE",
"548 826 OFFCURVE",
"572 911 CURVE",
"470 930 LINE",
"462 897 OFFCURVE",
"452 885 OFFCURVE",
"439 885 CURVE SMOOTH",
"413 885 OFFCURVE",
"368 920 OFFCURVE",
"320 920 CURVE SMOOTH",
"257 920 OFFCURVE",
"217 859 OFFCURVE",
"194 772 CURVE"
);
},
{
closed = 1;
nodes = (
"516 125 LINE",
"567 0 LINE",
"775 0 LINE",
"477 705 LINE",
"290 705 LINE",
"-8 0 LINE",
"196 0 LINE",
"246 125 LINE"
);
},
{
closed = 1;
nodes = (
"382 475 LINE",
"460 276 LINE",
"303 276 LINE"
);
}
);
width = 767;
}
);
unicode = 00C3;
},
{
glyphname = Adieresis;
layers = (
{
hints = (
{
horizontal = 1;
place = "{0, 21}";
target = up;
type = BottomGhost;
},
{
horizontal = 1;
place = "{125, 151}";
type = Stem;
},
{
horizontal = 1;
place = "{705, -20}";
target = down;
type = TopGhost;
},
{
horizontal = 1;
place = "{794, 171}";
type = Stem;
},
{
place = "{183, 176}";
type = Stem;
},
{
place = "{409, 176}";
type = Stem;
}
);
layerId = "B00352CC-F18A-4BDE-802C-0D96B8769A1B";
paths = (
{
closed = 1;
nodes = (
"183 824 OFFCURVE",
"222 794 OFFCURVE",
"271 794 CURVE SMOOTH",
"320 794 OFFCURVE",
"359 824 OFFCURVE",
"359 880 CURVE SMOOTH",
"359 936 OFFCURVE",
"320 965 OFFCURVE",
"271 965 CURVE SMOOTH",
"222 965 OFFCURVE",
"183 936 OFFCURVE",
"183 880 CURVE SMOOTH"
);
},
{
closed = 1;
nodes = (
"409 824 OFFCURVE",
"448 794 OFFCURVE",
"497 794 CURVE SMOOTH",
"546 794 OFFCURVE",
"585 824 OFFCURVE",
"585 880 CURVE SMOOTH",
"585 936 OFFCURVE",
"546 965 OFFCURVE",
"497 965 CURVE SMOOTH",
"448 965 OFFCURVE",
"409 936 OFFCURVE",
"409 880 CURVE SMOOTH"
);
},
{
closed = 1;
nodes = (
"516 125 LINE",
"567 0 LINE",
"775 0 LINE",
"477 705 LINE",
"290 705 LINE",
"-8 0 LINE",
"196 0 LINE",
"246 125 LINE"
);
},
{
closed = 1;
nodes = (
"382 475 LINE",
"460 276 LINE",
"303 276 LINE"
);
}
);
width = 767;
}
);
unicode = 00C4;
},
{
glyphname = Aring;
layers = (
{
hints = (
{
horizontal = 1;
place = "{0, 21}";
target = up;
type = BottomGhost;
},
{
horizontal = 1;
place = "{125, 151}";
type = Stem;
},
{
horizontal = 1;
place = "{705, -20}";
target = down;
type = TopGhost;
},
{
horizontal = 1;
place = "{807, 96}";
type = Stem;
},
{
place = "{260, 100}";
type = Stem;
},
{
place = "{407, 100}";
type = Stem;
}
);
layerId = "B00352CC-F18A-4BDE-802C-0D96B8769A1B";
paths = (
{
closed = 1;
nodes = (
"516 125 LINE",
"567 0 LINE",
"775 0 LINE",
"477 705 LINE",
"496 726 OFFCURVE",
"507 753 OFFCURVE",
"507 784 CURVE SMOOTH",
"507 850 OFFCURVE",
"451 903 OFFCURVE",
"383 903 CURVE SMOOTH",
"318 903 OFFCURVE",
"260 850 OFFCURVE",
"260 783 CURVE SMOOTH",
"260 753 OFFCURVE",
"271 726 OFFCURVE",
"290 705 CURVE",
"-8 0 LINE",
"196 0 LINE",
"246 125 LINE"
);
},
{
closed = 1;
nodes = (
"407 768 OFFCURVE",
"398 759 OFFCURVE",
"383 759 CURVE SMOOTH",
"370 759 OFFCURVE",
"360 769 OFFCURVE",
"360 784 CURVE SMOOTH",
"360 796 OFFCURVE",
"370 807 OFFCURVE",
"383 807 CURVE SMOOTH",
"398 807 OFFCURVE",
"407 796 OFFCURVE",
"407 783 CURVE SMOOTH"
);
},
{
closed = 1;
nodes = (
"382 475 LINE",
"460 276 LINE",
"303 276 LINE"
);
}
);
width = 767;
}
);
unicode = 00C5;
},
{
glyphname = AE;
layers = (
{
hints = (
{
place = "{445, 192}";
type = Stem;
},
{
horizontal = 1;
place = "{0, 165}";
type = Stem;
},
{
horizontal = 1;
place = "{125, 151}";
type = Stem;
},
{
horizontal = 1;
place = "{276, 153}";
type = Stem;
},
{
horizontal = 1;
place = "{535, 165}";
type = Stem;
},
{
horizontal = 1;
place = "{582, 118}";
type = Stem;
}
);
layerId = "B00352CC-F18A-4BDE-802C-0D96B8769A1B";
paths = (
{
closed = 1;
nodes = (
"-8 0 LINE",
"196 0 LINE",
"255 125 LINE",
"445 125 LINE",
"445 0 LINE",
"1015 0 LINE",
"1015 165 LINE",
"637 165 LINE",
"637 276 LINE",
"975 276 LINE",
"975 429 LINE",
"637 429 LINE",
"637 535 LINE",
"1010 535 LINE",
"1010 700 LINE",
"290 700 LINE"
);
},
{
closed = 1;
nodes = (
"312 276 LINE",
"445 582 LINE",
"445 276 LINE"
);
}
);
width = 1007;
}
);
unicode = 00C6;
},
{
glyphname = Ccedilla;
layers = (
{
hints = (
{
horizontal = 1;
place = "{-246, 66}";
type = Stem;
},
{
horizontal = 1;
place = "{-126, 58}";
type = Stem;
},
{
horizontal = 1;
place = "{-13, 21}";
target = up;
type = BottomGhost;
},
{
horizontal = 1;
place = "{537, 177}";
type = Stem;
},
{
place = "{36, 200}";
type = Stem;
},
{
place = "{419, 83}";
type = Stem;
}
);
layerId = "B00352CC-F18A-4BDE-802C-0D96B8769A1B";
paths = (
{
closed = 1;
nodes = (
"621 248 LINE",
"560 192 OFFCURVE",
"497 163 OFFCURVE",
"423 163 CURVE SMOOTH",
"304 163 OFFCURVE",
"236 245 OFFCURVE",
"236 352 CURVE SMOOTH",
"236 454 OFFCURVE",
"305 537 OFFCURVE",
"423 537 CURVE SMOOTH",
"502 537 OFFCURVE",
"571 502 OFFCURVE",
"616 455 CURVE",
"616 652 LINE",
"561 691 OFFCURVE",
"493 714 OFFCURVE",
"405 714 CURVE SMOOTH",
"193 714 OFFCURVE",
"36 554 OFFCURVE",
"36 350 CURVE SMOOTH",
"36 152 OFFCURVE",
"181 2 OFFCURVE",
"366 -13 CURVE",
"304 -110 LINE",
"335 -136 LINE",
"351 -129 OFFCURVE",
"365 -126 OFFCURVE",
"380 -126 CURVE SMOOTH",
"404 -126 OFFCURVE",
"419 -135 OFFCURVE",
"419 -151 CURVE SMOOTH",
"419 -172 OFFCURVE",
"386 -180 OFFCURVE",
"366 -180 CURVE SMOOTH",
"347 -180 OFFCURVE",
"321 -176 OFFCURVE",
"294 -164 CURVE",
"268 -220 LINE",
"303 -237 OFFCURVE",
"341 -246 OFFCURVE",
"376 -246 CURVE SMOOTH",
"431 -246 OFFCURVE",
"502 -223 OFFCURVE",
"502 -150 CURVE SMOOTH",
"502 -95 OFFCURVE",
"454 -68 OFFCURVE",
"410 -68 CURVE SMOOTH",
"402 -68 LINE",
"436 -12 LINE",
"507 -6 OFFCURVE",
"566 16 OFFCURVE",
"621 54 CURVE"
);
}
);
width = 673;
}
);
unicode = 00C7;
},
{
glyphname = Egrave;
layers = (
{
hints = (
{
horizontal = 1;
place = "{0, 165}";
type = Stem;
},
{
horizontal = 1;
place = "{276, 153}";
type = Stem;
},
{
horizontal = 1;
place = "{535, 165}";
type = Stem;
},
{
place = "{58, 192}";
type = Stem;
}
);
layerId = "B00352CC-F18A-4BDE-802C-0D96B8769A1B";
paths = (
{
closed = 1;
nodes = (
"296 811 LINE",
"430 811 LINE",
"326 996 LINE",
"149 939 LINE"
);
},
{
closed = 1;
nodes = (
"250 276 LINE",
"586 276 LINE",
"586 429 LINE",
"250 429 LINE",
"250 535 LINE",
"621 535 LINE",
"621 700 LINE",
"58 700 LINE",
"58 0 LINE",
"626 0 LINE",
"626 165 LINE",
"250 165 LINE"
);
}
);
width = 675;
}
);
unicode = 00C8;
},
{
glyphname = Eacute;
layers = (
{
hints = (
{
horizontal = 1;
place = "{0, 165}";
type = Stem;
},
{
horizontal = 1;
place = "{276, 153}";
type = Stem;
},
{
horizontal = 1;
place = "{535, 165}";
type = Stem;
},
{
place = "{58, 192}";
type = Stem;
}
);
layerId = "B00352CC-F18A-4BDE-802C-0D96B8769A1B";
paths = (
{
closed = 1;
nodes = (
"246 781 LINE",
"380 781 LINE",
"527 909 LINE",
"350 966 LINE"
);
},
{
closed = 1;
nodes = (
"250 276 LINE",
"586 276 LINE",
"586 429 LINE",
"250 429 LINE",
"250 535 LINE",
"621 535 LINE",
"621 700 LINE",
"58 700 LINE",
"58 0 LINE",
"626 0 LINE",
"626 165 LINE",
"250 165 LINE"
);
}
);
width = 675;
}
);
unicode = 00C9;
},
{
glyphname = Ecircumflex;
layers = (
{
hints = (
{
horizontal = 1;
place = "{0, 165}";
type = Stem;
},
{
horizontal = 1;
place = "{276, 153}";
type = Stem;
},
{
horizontal = 1;
place = "{535, 165}";
type = Stem;
},
{
horizontal = 1;
place = "{778, 186}";
type = Stem;
},
{
place = "{58, 192}";
type = Stem;
}
);
layerId = "B00352CC-F18A-4BDE-802C-0D96B8769A1B";
paths = (
{
closed = 1;
nodes = (
"395 964 LINE",
"296 964 LINE",
"156 778 LINE",
"287 778 LINE",
"346 839 LINE",
"405 778 LINE",
"535 778 LINE"
);
},
{
closed = 1;
nodes = (
"250 276 LINE",
"586 276 LINE",
"586 429 LINE",
"250 429 LINE",
"250 535 LINE",
"621 535 LINE",
"621 700 LINE",
"58 700 LINE",
"58 0 LINE",
"626 0 LINE",
"626 165 LINE",
"250 165 LINE"
);
}
);
width = 675;
}
);
unicode = 00CA;
},
{
glyphname = Edieresis;
layers = (
{
hints = (
{
place = "{58, 192}";
type = Stem;
},
{
place = "{135, 176}";
type = Stem;
},
{
place = "{361, 176}";
type = Stem;
},
{
horizontal = 1;
place = "{0, 165}";
type = Stem;
},
{
horizontal = 1;
place = "{276, 153}";
type = Stem;
},
{
horizontal = 1;
place = "{535, 165}";
type = Stem;
},
{
horizontal = 1;
place = "{794, 171}";
type = Stem;
}
);
layerId = "B00352CC-F18A-4BDE-802C-0D96B8769A1B";
paths = (
{
closed = 1;
nodes = (
"135 824 OFFCURVE",
"174 794 OFFCURVE",
"223 794 CURVE SMOOTH",
"272 794 OFFCURVE",
"311 824 OFFCURVE",
"311 880 CURVE SMOOTH",
"311 936 OFFCURVE",
"272 965 OFFCURVE",
"223 965 CURVE SMOOTH",
"174 965 OFFCURVE",
"135 936 OFFCURVE",
"135 880 CURVE SMOOTH"
);
},
{
closed = 1;
nodes = (
"361 824 OFFCURVE",
"400 794 OFFCURVE",
"449 794 CURVE SMOOTH",
"498 794 OFFCURVE",
"537 824 OFFCURVE",
"537 880 CURVE SMOOTH",
"537 936 OFFCURVE",
"498 965 OFFCURVE",
"449 965 CURVE SMOOTH",
"400 965 OFFCURVE",
"361 936 OFFCURVE",
"361 880 CURVE SMOOTH"
);
},
{
closed = 1;
nodes = (
"250 276 LINE",
"586 276 LINE",
"586 429 LINE",
"250 429 LINE",
"250 535 LINE",
"621 535 LINE",
"621 700 LINE",
"58 700 LINE",
"58 0 LINE",
"626 0 LINE",
"626 165 LINE",
"250 165 LINE"
);
}
);
width = 675;
}
);
unicode = 00CB;
},
{
glyphname = Eth;
layers = (
{
hints = (
{
horizontal = 1;
place = "{0, 172}";
type = Stem;
},
{
horizontal = 1;
place = "{249, 167}";
type = Stem;
},
{
horizontal = 1;
place = "{528, 172}";
type = Stem;
},
{
place = "{81, 194}";
type = Stem;
},
{
place = "{547, 199}";
type = Stem;
}
);
layerId = "B00352CC-F18A-4BDE-802C-0D96B8769A1B";
paths = (
{
closed = 1;
nodes = (
"81 0 LINE",
"347 0 LINE SMOOTH",
"599 0 OFFCURVE",
"746 152 OFFCURVE",
"746 354 CURVE SMOOTH",
"746 557 OFFCURVE",
"602 700 OFFCURVE",
"351 700 CURVE SMOOTH",
"81 700 LINE",
"81 416 LINE",
"7 416 LINE",
"7 249 LINE",
"81 249 LINE"
);
},
{
closed = 1;
nodes = (
"275 528 LINE",
"354 528 LINE SMOOTH",
"469 528 OFFCURVE",
"547 463 OFFCURVE",
"547 351 CURVE SMOOTH",
"547 238 OFFCURVE",
"470 172 OFFCURVE",
"354 172 CURVE SMOOTH",
"275 172 LINE",
"275 249 LINE",
"335 249 LINE",
"335 416 LINE",
"275 416 LINE"
);
}
);
width = 784;
}
);
unicode = 00D0;
},
{
glyphname = Ntilde;
layers = (
{
hints = (
{
place = "{58, 192}";
type = Stem;
},
{
place = "{527, 192}";
type = Stem;
},
{
horizontal = 1;
place = "{0, 21}";
target = up;
type = BottomGhost;
},
{
horizontal = 1;
place = "{700, -20}";
target = down;
type = TopGhost;
},
{
horizontal = 1;
place = "{766, 119}";
type = Stem;
},
{
horizontal = 1;
place = "{801, 119}";
type = Stem;
}
);
layerId = "B00352CC-F18A-4BDE-802C-0D96B8769A1B";
paths = (
{
closed = 1;
nodes = (
"310 754 LINE",
"321 790 OFFCURVE",
"329 801 OFFCURVE",
"344 801 CURVE SMOOTH",
"371 801 OFFCURVE",
"411 766 OFFCURVE",
"459 766 CURVE SMOOTH",
"523 766 OFFCURVE",
"561 826 OFFCURVE",
"585 911 CURVE",
"483 930 LINE",
"475 897 OFFCURVE",
"465 885 OFFCURVE",
"452 885 CURVE SMOOTH",
"426 885 OFFCURVE",
"381 920 OFFCURVE",
"333 920 CURVE SMOOTH",
"270 920 OFFCURVE",
"230 859 OFFCURVE",
"207 772 CURVE"
);
},
{
closed = 1;
nodes = (
"239 700 LINE",
"58 700 LINE",
"58 0 LINE",
"250 0 LINE",
"250 384 LINE",
"549 0 LINE",
"719 0 LINE",
"719 700 LINE",
"527 700 LINE",
"527 330 LINE"
);
}
);
width = 778;
}
);
unicode = 00D1;
},
{
glyphname = Ograve;
layers = (
{
hints = (
{
horizontal = 1;
place = "{-14, 175}";
type = Stem;
},
{
horizontal = 1;
place = "{539, 175}";
type = Stem;
},
{
place = "{37, 199}";
type = Stem;
},
{
place = "{592, 199}";
type = Stem;
}
);
layerId = "B00352CC-F18A-4BDE-802C-0D96B8769A1B";
paths = (
{
closed = 1;
nodes = (
"344 811 LINE",
"478 811 LINE",
"374 996 LINE",
"197 939 LINE"
);
},
{
closed = 1;
nodes = (
"791 552 OFFCURVE",
"630 714 OFFCURVE",
"414 714 CURVE SMOOTH",
"198 714 OFFCURVE",
"37 551 OFFCURVE",
"37 350 CURVE SMOOTH",
"37 149 OFFCURVE",
"197 -14 OFFCURVE",
"413 -14 CURVE SMOOTH",
"628 -14 OFFCURVE",
"791 151 OFFCURVE",
"791 352 CURVE SMOOTH"
);
},
{
closed = 1;
nodes = (
"592 250 OFFCURVE",
"521 161 OFFCURVE",
"414 161 CURVE SMOOTH",
"309 161 OFFCURVE",
"236 251 OFFCURVE",
"236 352 CURVE SMOOTH",
"236 453 OFFCURVE",
"307 539 OFFCURVE",
"413 539 CURVE SMOOTH",
"520 539 OFFCURVE",
"592 450 OFFCURVE",
"592 350 CURVE SMOOTH"
);
}
);
width = 828;
}
);
unicode = 00D2;
},
{
glyphname = Oacute;
layers = (
{
hints = (
{
horizontal = 1;
place = "{-14, 175}";
type = Stem;
},
{
horizontal = 1;
place = "{539, 175}";
type = Stem;
},
{
place = "{37, 199}";
type = Stem;
},
{
place = "{592, 199}";
type = Stem;
}
);
layerId = "B00352CC-F18A-4BDE-802C-0D96B8769A1B";
paths = (
{
closed = 1;
nodes = (
"369 781 LINE",
"503 781 LINE",
"650 909 LINE",
"473 966 LINE"
);
},
{
closed = 1;
nodes = (
"791 552 OFFCURVE",
"630 714 OFFCURVE",
"414 714 CURVE SMOOTH",
"198 714 OFFCURVE",
"37 551 OFFCURVE",
"37 350 CURVE SMOOTH",
"37 149 OFFCURVE",
"197 -14 OFFCURVE",
"413 -14 CURVE SMOOTH",
"628 -14 OFFCURVE",
"791 151 OFFCURVE",
"791 352 CURVE SMOOTH"
);
},
{
closed = 1;
nodes = (
"592 250 OFFCURVE",
"521 161 OFFCURVE",
"414 161 CURVE SMOOTH",
"309 161 OFFCURVE",
"236 251 OFFCURVE",
"236 352 CURVE SMOOTH",
"236 453 OFFCURVE",
"307 539 OFFCURVE",
"413 539 CURVE SMOOTH",
"520 539 OFFCURVE",
"592 450 OFFCURVE",
"592 350 CURVE SMOOTH"
);
}
);
width = 828;
}
);
unicode = 00D3;
},
{
glyphname = Ocircumflex;
layers = (
{
hints = (
{
horizontal = 1;
place = "{-14, 175}";
type = Stem;
},
{
horizontal = 1;
place = "{539, 175}";
type = Stem;
},
{
horizontal = 1;
place = "{778, 186}";
type = Stem;
},
{
place = "{37, 199}";
type = Stem;
},
{
place = "{592, 199}";
type = Stem;
}
);
layerId = "B00352CC-F18A-4BDE-802C-0D96B8769A1B";
paths = (
{
closed = 1;
nodes = (
"461 964 LINE",
"362 964 LINE",
"222 778 LINE",
"353 778 LINE",
"412 839 LINE",
"471 778 LINE",
"601 778 LINE"
);
},
{
closed = 1;
nodes = (
"791 552 OFFCURVE",
"630 714 OFFCURVE",
"414 714 CURVE SMOOTH",
"198 714 OFFCURVE",
"37 551 OFFCURVE",
"37 350 CURVE SMOOTH",
"37 149 OFFCURVE",
"197 -14 OFFCURVE",
"413 -14 CURVE SMOOTH",
"628 -14 OFFCURVE",
"791 151 OFFCURVE",
"791 352 CURVE SMOOTH"
);
},
{
closed = 1;
nodes = (
"592 250 OFFCURVE",
"521 161 OFFCURVE",
"414 161 CURVE SMOOTH",
"309 161 OFFCURVE",
"236 251 OFFCURVE",
"236 352 CURVE SMOOTH",
"236 453 OFFCURVE",
"307 539 OFFCURVE",
"413 539 CURVE SMOOTH",
"520 539 OFFCURVE",
"592 450 OFFCURVE",
"592 350 CURVE SMOOTH"
);
}
);
width = 828;
}
);
unicode = 00D4;
},
{
glyphname = Otilde;
layers = (
{
hints = (
{
place = "{37, 199}";
type = Stem;
},
{
place = "{592, 199}";
type = Stem;
},
{
horizontal = 1;
place = "{-14, 175}";
type = Stem;
},
{
horizontal = 1;
place = "{539, 175}";
type = Stem;
},
{
horizontal = 1;
place = "{766, 119}";
type = Stem;
},
{
horizontal = 1;
place = "{801, 119}";
type = Stem;
}
);
layerId = "B00352CC-F18A-4BDE-802C-0D96B8769A1B";
paths = (
{
closed = 1;
nodes = (
"327 754 LINE",
"338 790 OFFCURVE",
"346 801 OFFCURVE",
"361 801 CURVE SMOOTH",
"388 801 OFFCURVE",
"428 766 OFFCURVE",
"476 766 CURVE SMOOTH",
"540 766 OFFCURVE",
"578 826 OFFCURVE",
"602 911 CURVE",
"500 930 LINE",
"492 897 OFFCURVE",
"482 885 OFFCURVE",
"469 885 CURVE SMOOTH",
"443 885 OFFCURVE",
"398 920 OFFCURVE",
"350 920 CURVE SMOOTH",
"287 920 OFFCURVE",
"247 859 OFFCURVE",
"224 772 CURVE"
);
},
{
closed = 1;
nodes = (
"791 552 OFFCURVE",
"630 714 OFFCURVE",
"414 714 CURVE SMOOTH",
"198 714 OFFCURVE",
"37 551 OFFCURVE",
"37 350 CURVE SMOOTH",
"37 149 OFFCURVE",
"197 -14 OFFCURVE",
"413 -14 CURVE SMOOTH",
"628 -14 OFFCURVE",
"791 151 OFFCURVE",
"791 352 CURVE SMOOTH"
);
},
{
closed = 1;
nodes = (
"592 250 OFFCURVE",
"521 161 OFFCURVE",
"414 161 CURVE SMOOTH",
"309 161 OFFCURVE",
"236 251 OFFCURVE",
"236 352 CURVE SMOOTH",
"236 453 OFFCURVE",
"307 539 OFFCURVE",
"413 539 CURVE SMOOTH",
"520 539 OFFCURVE",
"592 450 OFFCURVE",
"592 350 CURVE SMOOTH"
);
}
);
width = 828;
}
);
unicode = 00D5;
},
{
glyphname = Odieresis;
layers = (
{
hints = (
{
place = "{37, 199}";
type = Stem;
},
{
place = "{213, 176}";
type = Stem;
},
{
place = "{439, 176}";
type = Stem;
},
{
place = "{592, 199}";
type = Stem;
},
{
horizontal = 1;
place = "{-14, 175}";
type = Stem;
},
{
horizontal = 1;
place = "{539, 175}";
type = Stem;
},
{
horizontal = 1;
place = "{794, 171}";
type = Stem;
}
);
layerId = "B00352CC-F18A-4BDE-802C-0D96B8769A1B";
paths = (
{
closed = 1;
nodes = (
"213 824 OFFCURVE",
"252 794 OFFCURVE",
"301 794 CURVE SMOOTH",
"350 794 OFFCURVE",
"389 824 OFFCURVE",
"389 880 CURVE SMOOTH",
"389 936 OFFCURVE",
"350 965 OFFCURVE",
"301 965 CURVE SMOOTH",
"252 965 OFFCURVE",
"213 936 OFFCURVE",
"213 880 CURVE SMOOTH"
);
},
{
closed = 1;
nodes = (
"439 824 OFFCURVE",
"478 794 OFFCURVE",
"527 794 CURVE SMOOTH",
"576 794 OFFCURVE",
"615 824 OFFCURVE",
"615 880 CURVE SMOOTH",
"615 936 OFFCURVE",
"576 965 OFFCURVE",
"527 965 CURVE SMOOTH",
"478 965 OFFCURVE",
"439 936 OFFCURVE",
"439 880 CURVE SMOOTH"
);
},
{
closed = 1;
nodes = (
"791 552 OFFCURVE",
"630 714 OFFCURVE",
"414 714 CURVE SMOOTH",
"198 714 OFFCURVE",
"37 551 OFFCURVE",
"37 350 CURVE SMOOTH",
"37 149 OFFCURVE",
"197 -14 OFFCURVE",
"413 -14 CURVE SMOOTH",
"628 -14 OFFCURVE",
"791 151 OFFCURVE",
"791 352 CURVE SMOOTH"
);
},
{
closed = 1;
nodes = (
"592 250 OFFCURVE",
"521 161 OFFCURVE",
"414 161 CURVE SMOOTH",
"309 161 OFFCURVE",
"236 251 OFFCURVE",
"236 352 CURVE SMOOTH",
"236 453 OFFCURVE",
"307 539 OFFCURVE",
"413 539 CURVE SMOOTH",
"520 539 OFFCURVE",
"592 450 OFFCURVE",
"592 350 CURVE SMOOTH"
);
}
);
width = 828;
}
);
unicode = 00D6;
},
{
glyphname = multiply;
layers = (
{
hints = (
{
horizontal = 1;
place = "{90, 520}";
type = Stem;
},
{
place = "{90, 520}";
type = Stem;
}
);
layerId = "B00352CC-F18A-4BDE-802C-0D96B8769A1B";
paths = (
{
closed = 1;
nodes = (
"90 195 LINE",
"196 90 LINE",
"351 245 LINE",
"505 90 LINE",
"610 195 LINE",
"456 350 LINE",
"610 505 LINE",
"505 610 LINE",
"351 455 LINE",
"196 610 LINE",
"90 505 LINE",
"246 350 LINE"
);
}
);
width = 700;
}
);
unicode = 00D7;
},
{
glyphname = Oslash;
layers = (
{
hints = (
{
place = "{32, 199}";
type = Stem;
},
{
place = "{587, 199}";
type = Stem;
},
{
horizontal = 1;
place = "{-14, 175}";
type = Stem;
},
{
horizontal = 1;
place = "{-5, 21}";
target = up;
type = BottomGhost;
},
{
horizontal = 1;
place = "{539, 175}";
type = Stem;
},
{
horizontal = 1;
place = "{702, -20}";
target = down;
type = TopGhost;
}
);
layerId = "B00352CC-F18A-4BDE-802C-0D96B8769A1B";
paths = (
{
closed = 1;
nodes = (
"111 -128 LINE",
"265 -128 LINE",
"323 -5 LINE",
"350 -10 OFFCURVE",
"377 -14 OFFCURVE",
"408 -14 CURVE SMOOTH",
"623 -14 OFFCURVE",
"786 151 OFFCURVE",
"786 352 CURVE SMOOTH",
"786 473 OFFCURVE",
"729 578 OFFCURVE",
"634 645 CURVE",
"708 798 LINE",
"554 798 LINE",
"508 702 LINE",
"476 710 OFFCURVE",
"444 714 OFFCURVE",
"409 714 CURVE SMOOTH",
"193 714 OFFCURVE",
"32 551 OFFCURVE",
"32 350 CURVE SMOOTH",
"32 223 OFFCURVE",
"95 114 OFFCURVE",
"195 47 CURVE"
);
},
{
closed = 1;
nodes = (
"278 221 LINE",
"246 257 OFFCURVE",
"231 305 OFFCURVE",
"231 352 CURVE SMOOTH",
"231 455 OFFCURVE",
"304 539 OFFCURVE",
"408 539 CURVE SMOOTH",
"415 539 OFFCURVE",
"422 539 OFFCURVE",
"429 538 CURVE"
);
},
{
closed = 1;
nodes = (
"549 467 LINE",
"573 434 OFFCURVE",
"587 393 OFFCURVE",
"587 350 CURVE SMOOTH",
"587 262 OFFCURVE",
"526 171 OFFCURVE",
"434 163 CURVE",
"426 161 OFFCURVE",
"417 161 OFFCURVE",
"409 161 CURVE SMOOTH",
"406 161 OFFCURVE",
"406 161 OFFCURVE",
"403 161 CURVE"
);
}
);
width = 818;
}
);
unicode = 00D8;
},
{
glyphname = Ugrave;
layers = (
{
hints = (
{
horizontal = 1;
place = "{-13, 175}";
type = Stem;
},
{
horizontal = 1;
place = "{700, -20}";
target = down;
type = TopGhost;
},
{
place = "{52, 197}";
type = Stem;
},
{
place = "{507, 197}";
type = Stem;
}
);
layerId = "B00352CC-F18A-4BDE-802C-0D96B8769A1B";
paths = (
{
closed = 1;
nodes = (
"321 811 LINE",
"455 811 LINE",
"351 996 LINE",
"174 939 LINE"
);
},
{
closed = 1;
nodes = (
"575 -13 OFFCURVE",
"704 86 OFFCURVE",
"704 312 CURVE SMOOTH",
"704 700 LINE",
"507 700 LINE",
"507 306 LINE SMOOTH",
"507 207 OFFCURVE",
"457 162 OFFCURVE",
"378 162 CURVE SMOOTH",
"299 162 OFFCURVE",
"249 210 OFFCURVE",
"249 311 CURVE SMOOTH",
"249 700 LINE",
"52 700 LINE",
"52 307 LINE SMOOTH",
"52 87 OFFCURVE",
"176 -13 OFFCURVE",
"376 -13 CURVE SMOOTH"
);
}
);
width = 758;
}
);
unicode = 00D9;
},
{
glyphname = Uacute;
layers = (
{
hints = (
{
horizontal = 1;
place = "{-13, 175}";
type = Stem;
},
{
horizontal = 1;
place = "{700, -20}";
target = down;
type = TopGhost;
},
{
place = "{52, 197}";
type = Stem;
},
{
place = "{507, 197}";
type = Stem;
}
);
layerId = "B00352CC-F18A-4BDE-802C-0D96B8769A1B";
paths = (
{
closed = 1;
nodes = (
"307 781 LINE",
"441 781 LINE",
"588 909 LINE",
"411 966 LINE"
);
},
{
closed = 1;
nodes = (
"575 -13 OFFCURVE",
"704 86 OFFCURVE",
"704 312 CURVE SMOOTH",
"704 700 LINE",
"507 700 LINE",
"507 306 LINE SMOOTH",
"507 207 OFFCURVE",
"457 162 OFFCURVE",
"378 162 CURVE SMOOTH",
"299 162 OFFCURVE",
"249 210 OFFCURVE",
"249 311 CURVE SMOOTH",
"249 700 LINE",
"52 700 LINE",
"52 307 LINE SMOOTH",
"52 87 OFFCURVE",
"176 -13 OFFCURVE",
"376 -13 CURVE SMOOTH"
);
}
);
width = 758;
}
);
unicode = 00DA;
},
{
glyphname = Ucircumflex;
layers = (
{
hints = (
{
horizontal = 1;
place = "{-13, 175}";
type = Stem;
},
{
horizontal = 1;
place = "{700, -20}";
target = down;
type = TopGhost;
},
{
horizontal = 1;
place = "{778, 186}";
type = Stem;
},
{
place = "{52, 197}";
type = Stem;
},
{
place = "{507, 197}";
type = Stem;
}
);
layerId = "B00352CC-F18A-4BDE-802C-0D96B8769A1B";
paths = (
{
closed = 1;
nodes = (
"426 964 LINE",
"327 964 LINE",
"187 778 LINE",
"318 778 LINE",
"377 839 LINE",
"436 778 LINE",
"566 778 LINE"
);
},
{
closed = 1;
nodes = (
"575 -13 OFFCURVE",
"704 86 OFFCURVE",
"704 312 CURVE SMOOTH",
"704 700 LINE",
"507 700 LINE",
"507 306 LINE SMOOTH",
"507 207 OFFCURVE",
"457 162 OFFCURVE",
"378 162 CURVE SMOOTH",
"299 162 OFFCURVE",
"249 210 OFFCURVE",
"249 311 CURVE SMOOTH",
"249 700 LINE",
"52 700 LINE",
"52 307 LINE SMOOTH",
"52 87 OFFCURVE",
"176 -13 OFFCURVE",
"376 -13 CURVE SMOOTH"
);
}
);
width = 758;
}
);
unicode = 00DB;
},
{
glyphname = Udieresis;
layers = (
{
hints = (
{
place = "{52, 197}";
type = Stem;
},
{
place = "{176, 176}";
type = Stem;
},
{
place = "{402, 176}";
type = Stem;
},
{
place = "{507, 197}";
type = Stem;
},
{
horizontal = 1;
place = "{-13, 175}";
type = Stem;
},
{
horizontal = 1;
place = "{700, -20}";
target = down;
type = TopGhost;
},
{
horizontal = 1;
place = "{794, 171}";
type = Stem;
}
);
layerId = "B00352CC-F18A-4BDE-802C-0D96B8769A1B";
paths = (
{
closed = 1;
nodes = (
"176 824 OFFCURVE",
"215 794 OFFCURVE",
"264 794 CURVE SMOOTH",
"313 794 OFFCURVE",
"352 824 OFFCURVE",
"352 880 CURVE SMOOTH",
"352 936 OFFCURVE",
"313 965 OFFCURVE",
"264 965 CURVE SMOOTH",
"215 965 OFFCURVE",
"176 936 OFFCURVE",
"176 880 CURVE SMOOTH"
);
},
{
closed = 1;
nodes = (
"402 824 OFFCURVE",
"441 794 OFFCURVE",
"490 794 CURVE SMOOTH",
"539 794 OFFCURVE",
"578 824 OFFCURVE",
"578 880 CURVE SMOOTH",
"578 936 OFFCURVE",
"539 965 OFFCURVE",
"490 965 CURVE SMOOTH",
"441 965 OFFCURVE",
"402 936 OFFCURVE",
"402 880 CURVE SMOOTH"
);
},
{
closed = 1;
nodes = (
"575 -13 OFFCURVE",
"704 86 OFFCURVE",
"704 312 CURVE SMOOTH",
"704 700 LINE",
"507 700 LINE",
"507 306 LINE SMOOTH",
"507 207 OFFCURVE",
"457 162 OFFCURVE",
"378 162 CURVE SMOOTH",
"299 162 OFFCURVE",
"249 210 OFFCURVE",
"249 311 CURVE SMOOTH",
"249 700 LINE",
"52 700 LINE",
"52 307 LINE SMOOTH",
"52 87 OFFCURVE",
"176 -13 OFFCURVE",
"376 -13 CURVE SMOOTH"
);
}
);
width = 758;
}
);
unicode = 00DC;
},
{
glyphname = Yacute;
layers = (
{
hints = (
{
horizontal = 1;
place = "{0, 21}";
target = up;
type = BottomGhost;
},
{
horizontal = 1;
place = "{700, -20}";
target = down;
type = TopGhost;
},
{
place = "{259, 195}";
type = Stem;
}
);
layerId = "B00352CC-F18A-4BDE-802C-0D96B8769A1B";
paths = (
{
closed = 1;
nodes = (
"288 781 LINE",
"422 781 LINE",
"569 909 LINE",
"392 966 LINE"
);
},
{
closed = 1;
nodes = (
"454 265 LINE",
"720 700 LINE",
"503 700 LINE",
"358 445 LINE",
"214 700 LINE",
"-7 700 LINE",
"259 262 LINE",
"259 0 LINE",
"454 0 LINE"
);
}
);
width = 713;
}
);
unicode = 00DD;
},
{
glyphname = Thorn;
layers = (
{
hints = (
{
horizontal = 1;
place = "{0, 21}";
target = up;
type = BottomGhost;
},
{
horizontal = 1;
place = "{135, 146}";
type = Stem;
},
{
horizontal = 1;
place = "{449, 154}";
type = Stem;
},
{
horizontal = 1;
place = "{706, -20}";
target = down;
type = TopGhost;
},
{
place = "{58, 192}";
type = Stem;
},
{
place = "{387, 193}";
type = Stem;
}
);
layerId = "B00352CC-F18A-4BDE-802C-0D96B8769A1B";
paths = (
{
closed = 1;
nodes = (
"58 0 LINE",
"250 0 LINE",
"250 135 LINE",
"350 135 LINE SMOOTH",
"494 135 OFFCURVE",
"580 216 OFFCURVE",
"580 363 CURVE SMOOTH",
"580 531 OFFCURVE",
"470 603 OFFCURVE",
"314 603 CURVE SMOOTH",
"250 603 LINE",
"250 706 LINE",
"58 706 LINE"
);
},
{
closed = 1;
nodes = (
"250 281 LINE",
"250 449 LINE",
"275 449 LINE SMOOTH",
"335 449 OFFCURVE",
"387 441 OFFCURVE",
"387 368 CURVE SMOOTH",
"387 293 OFFCURVE",
"340 281 OFFCURVE",
"277 281 CURVE SMOOTH"
);
}
);
width = 603;
}
);
unicode = 00DE;
},
{
glyphname = germandbls;
layers = (
{
hints = (
{
place = "{7, 189}";
type = Stem;
},
{
place = "{345, 184}";
type = Stem;
},
{
place = "{375, 189}";
type = Stem;
},
{
horizontal = 1;
place = "{0, 133}";
type = Stem;
},
{
horizontal = 1;
place = "{-3, 21}";
target = up;
type = BottomGhost;
},
{
horizontal = 1;
place = "{580, 159}";
type = Stem;
}
);
layerId = "B00352CC-F18A-4BDE-802C-0D96B8769A1B";
paths = (
{
closed = 1;
nodes = (
"196 483 LINE SMOOTH",
"196 546 OFFCURVE",
"231 580 OFFCURVE",
"276 580 CURVE SMOOTH",
"317 580 OFFCURVE",
"345 552 OFFCURVE",
"345 505 CURVE SMOOTH",
"345 455 OFFCURVE",
"307 419 OFFCURVE",
"263 398 CURVE",
"263 297 LINE",
"331 292 OFFCURVE",
"375 262 OFFCURVE",
"375 214 CURVE SMOOTH",
"375 166 OFFCURVE",
"331 136 OFFCURVE",
"263 133 CURVE",
"263 -3 LINE",
"391 -16 OFFCURVE",
"564 39 OFFCURVE",
"564 194 CURVE SMOOTH",
"564 290 OFFCURVE",
"492 343 OFFCURVE",
"424 364 CURVE",
"483 393 OFFCURVE",
"529 447 OFFCURVE",
"529 530 CURVE SMOOTH",
"529 646 OFFCURVE",
"434 739 OFFCURVE",
"279 739 CURVE SMOOTH",
"102 739 OFFCURVE",
"7 635 OFFCURVE",
"7 479 CURVE SMOOTH",
"7 0 LINE",
"196 0 LINE"
);
}
);
width = 593;
}
);
unicode = 00DF;
},
{
glyphname = agrave;
layers = (
{
hints = (
{
horizontal = 1;
place = "{-12, 119}";
type = Stem;
},
{
horizontal = 1;
place = "{235, 92}";
type = Stem;
},
{
horizontal = 1;
place = "{404, 145}";
type = Stem;
},
{
place = "{29, 185}";
type = Stem;
},
{
place = "{373, 185}";
type = Stem;
}
);
layerId = "B00352CC-F18A-4BDE-802C-0D96B8769A1B";
paths = (
{
closed = 1;
nodes = (
"252 616 LINE",
"386 616 LINE",
"282 801 LINE",
"105 744 LINE"
);
},
{
closed = 1;
nodes = (
"558 -12 LINE",
"558 311 LINE SMOOTH",
"558 466 OFFCURVE",
"478 549 OFFCURVE",
"290 549 CURVE SMOOTH",
"202 549 OFFCURVE",
"139 532 OFFCURVE",
"76 507 CURVE",
"76 373 LINE",
"136 396 OFFCURVE",
"187 404 OFFCURVE",
"240 404 CURVE SMOOTH",
"329 404 OFFCURVE",
"373 378 OFFCURVE",
"373 315 CURVE SMOOTH",
"373 306 LINE",
"342 317 OFFCURVE",
"293 327 OFFCURVE",
"241 327 CURVE SMOOTH",
"116 327 OFFCURVE",
"29 269 OFFCURVE",
"29 157 CURVE SMOOTH",
"29 49 OFFCURVE",
"109 -12 OFFCURVE",
"214 -12 CURVE SMOOTH",
"285 -12 OFFCURVE",
"335 15 OFFCURVE",
"372 56 CURVE"
);
},
{
closed = 1;
nodes = (
"373 139 LINE",
"346 116 OFFCURVE",
"317 107 OFFCURVE",
"286 107 CURVE SMOOTH",
"247 107 OFFCURVE",
"214 133 OFFCURVE",
"214 170 CURVE SMOOTH",
"214 206 OFFCURVE",
"246 235 OFFCURVE",
"302 235 CURVE SMOOTH",
"329 235 OFFCURVE",
"356 229 OFFCURVE",
"373 221 CURVE"
);
}
);
width = 611;
}
);
unicode = 00E0;
},
{
glyphname = aacute;
layers = (
{
hints = (
{
horizontal = 1;
place = "{-12, 119}";
type = Stem;
},
{
horizontal = 1;
place = "{235, 92}";
type = Stem;
},
{
horizontal = 1;
place = "{404, 145}";
type = Stem;
},
{
place = "{29, 185}";
type = Stem;
},
{
place = "{373, 185}";
type = Stem;
}
);
layerId = "B00352CC-F18A-4BDE-802C-0D96B8769A1B";
paths = (
{
closed = 1;
nodes = (
"234 616 LINE",
"368 616 LINE",
"515 744 LINE",
"338 801 LINE"
);
},
{
closed = 1;
nodes = (
"558 -12 LINE",
"558 311 LINE SMOOTH",
"558 466 OFFCURVE",
"478 549 OFFCURVE",
"290 549 CURVE SMOOTH",
"202 549 OFFCURVE",
"139 532 OFFCURVE",
"76 507 CURVE",
"76 373 LINE",
"136 396 OFFCURVE",
"187 404 OFFCURVE",
"240 404 CURVE SMOOTH",
"329 404 OFFCURVE",
"373 378 OFFCURVE",
"373 315 CURVE SMOOTH",
"373 306 LINE",
"342 317 OFFCURVE",
"293 327 OFFCURVE",
"241 327 CURVE SMOOTH",
"116 327 OFFCURVE",
"29 269 OFFCURVE",
"29 157 CURVE SMOOTH",
"29 49 OFFCURVE",
"109 -12 OFFCURVE",
"214 -12 CURVE SMOOTH",
"285 -12 OFFCURVE",
"335 15 OFFCURVE",
"372 56 CURVE"
);
},
{
closed = 1;
nodes = (
"373 139 LINE",
"346 116 OFFCURVE",
"317 107 OFFCURVE",
"286 107 CURVE SMOOTH",
"247 107 OFFCURVE",
"214 133 OFFCURVE",
"214 170 CURVE SMOOTH",
"214 206 OFFCURVE",
"246 235 OFFCURVE",
"302 235 CURVE SMOOTH",
"329 235 OFFCURVE",
"356 229 OFFCURVE",
"373 221 CURVE"
);
}
);
width = 611;
}
);
unicode = 00E1;
},
{
glyphname = acircumflex;
layers = (
{
hints = (
{
horizontal = 1;
place = "{-12, 119}";
type = Stem;
},
{
horizontal = 1;
place = "{235, 92}";
type = Stem;
},
{
horizontal = 1;
place = "{404, 145}";
type = Stem;
},
{
horizontal = 1;
place = "{613, 186}";
type = Stem;
},
{
place = "{29, 185}";
type = Stem;
},
{
place = "{373, 185}";
type = Stem;
}
);
layerId = "B00352CC-F18A-4BDE-802C-0D96B8769A1B";
paths = (
{
closed = 1;
nodes = (
"352 799 LINE",
"253 799 LINE",
"113 613 LINE",
"244 613 LINE",
"303 674 LINE",
"362 613 LINE",
"492 613 LINE"
);
},
{
closed = 1;
nodes = (
"558 -12 LINE",
"558 311 LINE SMOOTH",
"558 466 OFFCURVE",
"478 549 OFFCURVE",
"290 549 CURVE SMOOTH",
"202 549 OFFCURVE",
"139 532 OFFCURVE",
"76 507 CURVE",
"76 373 LINE",
"136 396 OFFCURVE",
"187 404 OFFCURVE",
"240 404 CURVE SMOOTH",
"329 404 OFFCURVE",
"373 378 OFFCURVE",
"373 315 CURVE SMOOTH",
"373 306 LINE",
"342 317 OFFCURVE",
"293 327 OFFCURVE",
"241 327 CURVE SMOOTH",
"116 327 OFFCURVE",
"29 269 OFFCURVE",
"29 157 CURVE SMOOTH",
"29 49 OFFCURVE",
"109 -12 OFFCURVE",
"214 -12 CURVE SMOOTH",
"285 -12 OFFCURVE",
"335 15 OFFCURVE",
"372 56 CURVE"
);
},
{
closed = 1;
nodes = (
"373 139 LINE",
"346 116 OFFCURVE",
"317 107 OFFCURVE",
"286 107 CURVE SMOOTH",
"247 107 OFFCURVE",
"214 133 OFFCURVE",
"214 170 CURVE SMOOTH",
"214 206 OFFCURVE",
"246 235 OFFCURVE",
"302 235 CURVE SMOOTH",
"329 235 OFFCURVE",
"356 229 OFFCURVE",
"373 221 CURVE"
);
}
);
width = 611;
}
);
unicode = 00E2;
},
{
glyphname = atilde;
layers = (
{
hints = (
{
place = "{29, 185}";
type = Stem;
},
{
place = "{373, 185}";
type = Stem;
},
{
horizontal = 1;
place = "{-12, 119}";
type = Stem;
},
{
horizontal = 1;
place = "{235, 92}";
type = Stem;
},
{
horizontal = 1;
place = "{404, 145}";
type = Stem;
},
{
horizontal = 1;
place = "{601, 119}";
type = Stem;
},
{
horizontal = 1;
place = "{636, 119}";
type = Stem;
}
);
layerId = "B00352CC-F18A-4BDE-802C-0D96B8769A1B";
paths = (
{
closed = 1;
nodes = (
"227 589 LINE",
"238 625 OFFCURVE",
"246 636 OFFCURVE",
"261 636 CURVE SMOOTH",
"288 636 OFFCURVE",
"328 601 OFFCURVE",
"376 601 CURVE SMOOTH",
"440 601 OFFCURVE",
"478 661 OFFCURVE",
"502 746 CURVE",
"400 765 LINE",
"392 732 OFFCURVE",
"382 720 OFFCURVE",
"369 720 CURVE SMOOTH",
"343 720 OFFCURVE",
"298 755 OFFCURVE",
"250 755 CURVE SMOOTH",
"187 755 OFFCURVE",
"147 694 OFFCURVE",
"124 607 CURVE"
);
},
{
closed = 1;
nodes = (
"558 -12 LINE",
"558 311 LINE SMOOTH",
"558 466 OFFCURVE",
"478 549 OFFCURVE",
"290 549 CURVE SMOOTH",
"202 549 OFFCURVE",
"139 532 OFFCURVE",
"76 507 CURVE",
"76 373 LINE",
"136 396 OFFCURVE",
"187 404 OFFCURVE",
"240 404 CURVE SMOOTH",
"329 404 OFFCURVE",
"373 378 OFFCURVE",
"373 315 CURVE SMOOTH",
"373 306 LINE",
"342 317 OFFCURVE",
"293 327 OFFCURVE",
"241 327 CURVE SMOOTH",
"116 327 OFFCURVE",
"29 269 OFFCURVE",
"29 157 CURVE SMOOTH",
"29 49 OFFCURVE",
"109 -12 OFFCURVE",
"214 -12 CURVE SMOOTH",
"285 -12 OFFCURVE",
"335 15 OFFCURVE",
"372 56 CURVE"
);
},
{
closed = 1;
nodes = (
"373 139 LINE",
"346 116 OFFCURVE",
"317 107 OFFCURVE",
"286 107 CURVE SMOOTH",
"247 107 OFFCURVE",
"214 133 OFFCURVE",
"214 170 CURVE SMOOTH",
"214 206 OFFCURVE",
"246 235 OFFCURVE",
"302 235 CURVE SMOOTH",
"329 235 OFFCURVE",
"356 229 OFFCURVE",
"373 221 CURVE"
);
}
);
width = 611;
}
);
unicode = 00E3;
},
{
glyphname = adieresis;
layers = (
{
hints = (
{
place = "{29, 185}";
type = Stem;
},
{
place = "{115, 176}";
type = Stem;
},
{
place = "{341, 176}";
type = Stem;
},
{
place = "{373, 185}";
type = Stem;
},
{
horizontal = 1;
place = "{-12, 119}";
type = Stem;
},
{
horizontal = 1;
place = "{235, 92}";
type = Stem;
},
{
horizontal = 1;
place = "{404, 145}";
type = Stem;
},
{
horizontal = 1;
place = "{629, 171}";
type = Stem;
}
);
layerId = "B00352CC-F18A-4BDE-802C-0D96B8769A1B";
paths = (
{
closed = 1;
nodes = (
"115 659 OFFCURVE",
"154 629 OFFCURVE",
"203 629 CURVE SMOOTH",
"252 629 OFFCURVE",
"291 659 OFFCURVE",
"291 715 CURVE SMOOTH",
"291 771 OFFCURVE",
"252 800 OFFCURVE",
"203 800 CURVE SMOOTH",
"154 800 OFFCURVE",
"115 771 OFFCURVE",
"115 715 CURVE SMOOTH"
);
},
{
closed = 1;
nodes = (
"341 659 OFFCURVE",
"380 629 OFFCURVE",
"429 629 CURVE SMOOTH",
"478 629 OFFCURVE",
"517 659 OFFCURVE",
"517 715 CURVE SMOOTH",
"517 771 OFFCURVE",
"478 800 OFFCURVE",
"429 800 CURVE SMOOTH",
"380 800 OFFCURVE",
"341 771 OFFCURVE",
"341 715 CURVE SMOOTH"
);
},
{
closed = 1;
nodes = (
"558 -12 LINE",
"558 311 LINE SMOOTH",
"558 466 OFFCURVE",
"478 549 OFFCURVE",
"290 549 CURVE SMOOTH",
"202 549 OFFCURVE",
"139 532 OFFCURVE",
"76 507 CURVE",
"76 373 LINE",
"136 396 OFFCURVE",
"187 404 OFFCURVE",
"240 404 CURVE SMOOTH",
"329 404 OFFCURVE",
"373 378 OFFCURVE",
"373 315 CURVE SMOOTH",
"373 306 LINE",
"342 317 OFFCURVE",
"293 327 OFFCURVE",
"241 327 CURVE SMOOTH",
"116 327 OFFCURVE",
"29 269 OFFCURVE",
"29 157 CURVE SMOOTH",
"29 49 OFFCURVE",
"109 -12 OFFCURVE",
"214 -12 CURVE SMOOTH",
"285 -12 OFFCURVE",
"335 15 OFFCURVE",
"372 56 CURVE"
);
},
{
closed = 1;
nodes = (
"373 139 LINE",
"346 116 OFFCURVE",
"317 107 OFFCURVE",
"286 107 CURVE SMOOTH",
"247 107 OFFCURVE",
"214 133 OFFCURVE",
"214 170 CURVE SMOOTH",
"214 206 OFFCURVE",
"246 235 OFFCURVE",
"302 235 CURVE SMOOTH",
"329 235 OFFCURVE",
"356 229 OFFCURVE",
"373 221 CURVE"
);
}
);
width = 611;
}
);
unicode = 00E4;
},
{
glyphname = aring;
layers = (
{
hints = (
{
place = "{29, 185}";
type = Stem;
},
{
place = "{175, 100}";
type = Stem;
},
{
place = "{322, 100}";
type = Stem;
},
{
place = "{373, 185}";
type = Stem;
},
{
horizontal = 1;
place = "{-12, 119}";
type = Stem;
},
{
horizontal = 1;
place = "{235, 92}";
type = Stem;
},
{
horizontal = 1;
place = "{404, 145}";
type = Stem;
},
{
horizontal = 1;
place = "{591, 96}";
type = Stem;
},
{
horizontal = 1;
place = "{735, 96}";
type = Stem;
}
);
layerId = "B00352CC-F18A-4BDE-802C-0D96B8769A1B";
paths = (
{
closed = 1;
nodes = (
"422 778 OFFCURVE",
"366 831 OFFCURVE",
"298 831 CURVE SMOOTH",
"233 831 OFFCURVE",
"175 778 OFFCURVE",
"175 711 CURVE SMOOTH",
"175 643 OFFCURVE",
"233 591 OFFCURVE",
"298 591 CURVE SMOOTH",
"366 591 OFFCURVE",
"422 643 OFFCURVE",
"422 712 CURVE SMOOTH"
);
},
{
closed = 1;
nodes = (
"322 696 OFFCURVE",
"313 687 OFFCURVE",
"298 687 CURVE SMOOTH",
"285 687 OFFCURVE",
"275 697 OFFCURVE",
"275 712 CURVE SMOOTH",
"275 724 OFFCURVE",
"285 735 OFFCURVE",
"298 735 CURVE SMOOTH",
"313 735 OFFCURVE",
"322 724 OFFCURVE",
"322 711 CURVE SMOOTH"
);
},
{
closed = 1;
nodes = (
"558 -12 LINE",
"558 311 LINE SMOOTH",
"558 466 OFFCURVE",
"478 549 OFFCURVE",
"290 549 CURVE SMOOTH",
"202 549 OFFCURVE",
"139 532 OFFCURVE",
"76 507 CURVE",
"76 373 LINE",
"136 396 OFFCURVE",
"187 404 OFFCURVE",
"240 404 CURVE SMOOTH",
"329 404 OFFCURVE",
"373 378 OFFCURVE",
"373 315 CURVE SMOOTH",
"373 306 LINE",
"342 317 OFFCURVE",
"293 327 OFFCURVE",
"241 327 CURVE SMOOTH",
"116 327 OFFCURVE",
"29 269 OFFCURVE",
"29 157 CURVE SMOOTH",
"29 49 OFFCURVE",
"109 -12 OFFCURVE",
"214 -12 CURVE SMOOTH",
"285 -12 OFFCURVE",
"335 15 OFFCURVE",
"372 56 CURVE"
);
},
{
closed = 1;
nodes = (
"373 139 LINE",
"346 116 OFFCURVE",
"317 107 OFFCURVE",
"286 107 CURVE SMOOTH",
"247 107 OFFCURVE",
"214 133 OFFCURVE",
"214 170 CURVE SMOOTH",
"214 206 OFFCURVE",
"246 235 OFFCURVE",
"302 235 CURVE SMOOTH",
"329 235 OFFCURVE",
"356 229 OFFCURVE",
"373 221 CURVE"
);
}
);
width = 611;
}
);
unicode = 00E5;
},
{
glyphname = ae;
layers = (
{
hints = (
{
place = "{26, 185}";
type = Stem;
},
{
place = "{370, 192}";
type = Stem;
},
{
horizontal = 1;
place = "{-17, 138}";
type = Stem;
},
{
horizontal = 1;
place = "{-12, 119}";
type = Stem;
},
{
horizontal = 1;
place = "{235, 92}";
type = Stem;
},
{
horizontal = 1;
place = "{404, 145}";
type = Stem;
},
{
horizontal = 1;
place = "{407, 141}";
type = Stem;
}
);
layerId = "B00352CC-F18A-4BDE-802C-0D96B8769A1B";
paths = (
{
closed = 1;
nodes = (
"631 121 OFFCURVE",
"601 128 OFFCURVE",
"577 148 CURVE",
"932 240 LINE",
"932 401 OFFCURVE",
"840 548 OFFCURVE",
"664 548 CURVE SMOOTH",
"595 548 OFFCURVE",
"535 527 OFFCURVE",
"488 491 CURVE",
"445 530 OFFCURVE",
"379 549 OFFCURVE",
"287 549 CURVE SMOOTH",
"212 549 OFFCURVE",
"143 536 OFFCURVE",
"73 507 CURVE",
"73 373 LINE",
"133 396 OFFCURVE",
"184 404 OFFCURVE",
"237 404 CURVE SMOOTH",
"326 404 OFFCURVE",
"370 378 OFFCURVE",
"370 315 CURVE SMOOTH",
"370 306 LINE",
"339 317 OFFCURVE",
"290 327 OFFCURVE",
"238 327 CURVE SMOOTH",
"126 327 OFFCURVE",
"26 280 OFFCURVE",
"26 157 CURVE SMOOTH",
"26 49 OFFCURVE",
"106 -12 OFFCURVE",
"211 -12 CURVE SMOOTH",
"299 -12 OFFCURVE",
"401 2 OFFCURVE",
"477 48 CURVE",
"525 7 OFFCURVE",
"588 -17 OFFCURVE",
"664 -17 CURVE SMOOTH",
"677 -17 OFFCURVE",
"692 -16 OFFCURVE",
"707 -15 CURVE",
"762 -8 OFFCURVE",
"824 7 OFFCURVE",
"879 42 CURVE",
"879 190 LINE",
"828 144 OFFCURVE",
"733 121 OFFCURVE",
"667 121 CURVE SMOOTH"
);
},
{
closed = 1;
nodes = (
"562 272 LINE",
"557 332 OFFCURVE",
"583 407 OFFCURVE",
"653 407 CURVE SMOOTH",
"700 407 OFFCURVE",
"734 375 OFFCURVE",
"746 319 CURVE"
);
},
{
closed = 1;
nodes = (
"370 139 LINE",
"343 116 OFFCURVE",
"314 107 OFFCURVE",
"283 107 CURVE SMOOTH",
"244 107 OFFCURVE",
"211 133 OFFCURVE",
"211 170 CURVE SMOOTH",
"211 206 OFFCURVE",
"243 235 OFFCURVE",
"299 235 CURVE SMOOTH",
"326 235 OFFCURVE",
"353 229 OFFCURVE",
"370 221 CURVE"
);
}
);
width = 962;
}
);
unicode = 00E6;
},
{
glyphname = ccedilla;
layers = (
{
hints = (
{
place = "{30, 185}";
type = Stem;
},
{
place = "{315, 83}";
type = Stem;
},
{
horizontal = 1;
place = "{-246, 66}";
type = Stem;
},
{
horizontal = 1;
place = "{-126, 58}";
type = Stem;
},
{
horizontal = 1;
place = "{-13, 160}";
type = Stem;
},
{
horizontal = 1;
place = "{-13, 21}";
target = up;
type = BottomGhost;
},
{
horizontal = 1;
place = "{-8, 21}";
target = up;
type = BottomGhost;
},
{
horizontal = 1;
place = "{392, 160}";
type = Stem;
}
);
layerId = "B00352CC-F18A-4BDE-802C-0D96B8769A1B";
paths = (
{
closed = 1;
nodes = (
"432 537 LINE",
"401 548 OFFCURVE",
"357 552 OFFCURVE",
"320 552 CURVE SMOOTH",
"149 552 OFFCURVE",
"30 422 OFFCURVE",
"30 270 CURVE SMOOTH",
"30 132 OFFCURVE",
"129 16 OFFCURVE",
"265 -8 CURVE",
"200 -110 LINE",
"231 -136 LINE",
"247 -129 OFFCURVE",
"261 -126 OFFCURVE",
"276 -126 CURVE SMOOTH",
"300 -126 OFFCURVE",
"315 -135 OFFCURVE",
"315 -151 CURVE SMOOTH",
"315 -172 OFFCURVE",
"282 -180 OFFCURVE",
"262 -180 CURVE SMOOTH",
"243 -180 OFFCURVE",
"217 -176 OFFCURVE",
"190 -164 CURVE",
"164 -220 LINE",
"199 -237 OFFCURVE",
"237 -246 OFFCURVE",
"272 -246 CURVE SMOOTH",
"327 -246 OFFCURVE",
"398 -223 OFFCURVE",
"398 -150 CURVE SMOOTH",
"398 -95 OFFCURVE",
"350 -68 OFFCURVE",
"306 -68 CURVE SMOOTH",
"298 -68 LINE",
"332 -13 LINE",
"369 -11 OFFCURVE",
"408 -5 OFFCURVE",
"437 6 CURVE",
"437 183 LINE",
"404 156 OFFCURVE",
"369 147 OFFCURVE",
"338 147 CURVE SMOOTH",
"269 147 OFFCURVE",
"215 201 OFFCURVE",
"215 270 CURVE SMOOTH",
"215 338 OFFCURVE",
"264 392 OFFCURVE",
"335 392 CURVE SMOOTH",
"374 392 OFFCURVE",
"403 378 OFFCURVE",
"432 355 CURVE"
);
}
);
width = 473;
}
);
unicode = 00E7;
},
{
glyphname = egrave;
layers = (
{
hints = (
{
horizontal = 1;
place = "{-17, 138}";
type = Stem;
},
{
horizontal = 1;
place = "{407, 141}";
type = Stem;
},
{
place = "{30, 180}";
type = Stem;
}
);
layerId = "B00352CC-F18A-4BDE-802C-0D96B8769A1B";
paths = (
{
closed = 1;
nodes = (
"244 616 LINE",
"378 616 LINE",
"274 801 LINE",
"97 744 LINE"
);
},
{
closed = 1;
nodes = (
"279 121 OFFCURVE",
"249 128 OFFCURVE",
"225 148 CURVE",
"580 240 LINE",
"580 401 OFFCURVE",
"488 548 OFFCURVE",
"312 548 CURVE SMOOTH",
"148 548 OFFCURVE",
"30 429 OFFCURVE",
"30 269 CURVE SMOOTH",
"30 104 OFFCURVE",
"145 -17 OFFCURVE",
"312 -17 CURVE SMOOTH",
"371 -17 OFFCURVE",
"458 -3 OFFCURVE",
"527 42 CURVE",
"527 190 LINE",
"476 144 OFFCURVE",
"381 121 OFFCURVE",
"315 121 CURVE SMOOTH"
);
},
{
closed = 1;
nodes = (
"210 275 LINE SMOOTH",
"210 334 OFFCURVE",
"232 407 OFFCURVE",
"301 407 CURVE SMOOTH",
"348 407 OFFCURVE",
"382 375 OFFCURVE",
"394 319 CURVE",
"210 272 LINE"
);
}
);
width = 609;
}
);
unicode = 00E8;
},
{
glyphname = eacute;
layers = (
{
hints = (
{
horizontal = 1;
place = "{-17, 138}";
type = Stem;
},
{
horizontal = 1;
place = "{407, 141}";
type = Stem;
},
{
place = "{30, 180}";
type = Stem;
}
);
layerId = "B00352CC-F18A-4BDE-802C-0D96B8769A1B";
paths = (
{
closed = 1;
nodes = (
"274 616 LINE",
"408 616 LINE",
"555 744 LINE",
"378 801 LINE"
);
},
{
closed = 1;
nodes = (
"279 121 OFFCURVE",
"249 128 OFFCURVE",
"225 148 CURVE",
"580 240 LINE",
"580 401 OFFCURVE",
"488 548 OFFCURVE",
"312 548 CURVE SMOOTH",
"148 548 OFFCURVE",
"30 429 OFFCURVE",
"30 269 CURVE SMOOTH",
"30 104 OFFCURVE",
"145 -17 OFFCURVE",
"312 -17 CURVE SMOOTH",
"371 -17 OFFCURVE",
"458 -3 OFFCURVE",
"527 42 CURVE",
"527 190 LINE",
"476 144 OFFCURVE",
"381 121 OFFCURVE",
"315 121 CURVE SMOOTH"
);
},
{
closed = 1;
nodes = (
"210 275 LINE SMOOTH",
"210 334 OFFCURVE",
"232 407 OFFCURVE",
"301 407 CURVE SMOOTH",
"348 407 OFFCURVE",
"382 375 OFFCURVE",
"394 319 CURVE",
"210 272 LINE"
);
}
);
width = 609;
}
);
unicode = 00E9;
},
{
glyphname = ecircumflex;
layers = (
{
hints = (
{
horizontal = 1;
place = "{-17, 138}";
type = Stem;
},
{
horizontal = 1;
place = "{407, 141}";
type = Stem;
},
{
horizontal = 1;
place = "{613, 186}";
type = Stem;
},
{
place = "{30, 180}";
type = Stem;
}
);
layerId = "B00352CC-F18A-4BDE-802C-0D96B8769A1B";
paths = (
{
closed = 1;
nodes = (
"356 799 LINE",
"257 799 LINE",
"117 613 LINE",
"248 613 LINE",
"307 674 LINE",
"366 613 LINE",
"496 613 LINE"
);
},
{
closed = 1;
nodes = (
"279 121 OFFCURVE",
"249 128 OFFCURVE",
"225 148 CURVE",
"580 240 LINE",
"580 401 OFFCURVE",
"488 548 OFFCURVE",
"312 548 CURVE SMOOTH",
"148 548 OFFCURVE",
"30 429 OFFCURVE",
"30 269 CURVE SMOOTH",
"30 104 OFFCURVE",
"145 -17 OFFCURVE",
"312 -17 CURVE SMOOTH",
"371 -17 OFFCURVE",
"458 -3 OFFCURVE",
"527 42 CURVE",
"527 190 LINE",
"476 144 OFFCURVE",
"381 121 OFFCURVE",
"315 121 CURVE SMOOTH"
);
},
{
closed = 1;
nodes = (
"210 275 LINE SMOOTH",
"210 334 OFFCURVE",
"232 407 OFFCURVE",
"301 407 CURVE SMOOTH",
"348 407 OFFCURVE",
"382 375 OFFCURVE",
"394 319 CURVE",
"210 272 LINE"
);
}
);
width = 609;
}
);
unicode = 00EA;
},
{
glyphname = edieresis;
layers = (
{
hints = (
{
place = "{30, 180}";
type = Stem;
},
{
place = "{98, 176}";
type = Stem;
},
{
place = "{324, 176}";
type = Stem;
},
{
horizontal = 1;
place = "{-17, 138}";
type = Stem;
},
{
horizontal = 1;
place = "{407, 141}";
type = Stem;
},
{
horizontal = 1;
place = "{629, 171}";
type = Stem;
}
);
layerId = "B00352CC-F18A-4BDE-802C-0D96B8769A1B";
paths = (
{
closed = 1;
nodes = (
"98 659 OFFCURVE",
"137 629 OFFCURVE",
"186 629 CURVE SMOOTH",
"235 629 OFFCURVE",
"274 659 OFFCURVE",
"274 715 CURVE SMOOTH",
"274 771 OFFCURVE",
"235 800 OFFCURVE",
"186 800 CURVE SMOOTH",
"137 800 OFFCURVE",
"98 771 OFFCURVE",
"98 715 CURVE SMOOTH"
);
},
{
closed = 1;
nodes = (
"324 659 OFFCURVE",
"363 629 OFFCURVE",
"412 629 CURVE SMOOTH",
"461 629 OFFCURVE",
"500 659 OFFCURVE",
"500 715 CURVE SMOOTH",
"500 771 OFFCURVE",
"461 800 OFFCURVE",
"412 800 CURVE SMOOTH",
"363 800 OFFCURVE",
"324 771 OFFCURVE",
"324 715 CURVE SMOOTH"
);
},
{
closed = 1;
nodes = (
"279 121 OFFCURVE",
"249 128 OFFCURVE",
"225 148 CURVE",
"580 240 LINE",
"580 401 OFFCURVE",
"488 548 OFFCURVE",
"312 548 CURVE SMOOTH",
"148 548 OFFCURVE",
"30 429 OFFCURVE",
"30 269 CURVE SMOOTH",
"30 104 OFFCURVE",
"145 -17 OFFCURVE",
"312 -17 CURVE SMOOTH",
"371 -17 OFFCURVE",
"458 -3 OFFCURVE",
"527 42 CURVE",
"527 190 LINE",
"476 144 OFFCURVE",
"381 121 OFFCURVE",
"315 121 CURVE SMOOTH"
);
},
{
closed = 1;
nodes = (
"210 275 LINE SMOOTH",
"210 334 OFFCURVE",
"232 407 OFFCURVE",
"301 407 CURVE SMOOTH",
"348 407 OFFCURVE",
"382 375 OFFCURVE",
"394 319 CURVE",
"210 272 LINE"
);
}
);
width = 609;
}
);
unicode = 00EB;
},
{
glyphname = igrave;
layers = (
{
hints = (
{
horizontal = 1;
place = "{0, 21}";
target = up;
type = BottomGhost;
},
{
place = "{73, 190}";
type = Stem;
}
);
layerId = "B00352CC-F18A-4BDE-802C-0D96B8769A1B";
paths = (
{
closed = 1;
nodes = (
"125 616 LINE",
"259 616 LINE",
"155 801 LINE",
"-22 744 LINE"
);
},
{
closed = 1;
nodes = (
"263 541 LINE",
"73 541 LINE",
"73 0 LINE",
"263 0 LINE"
);
}
);
width = 311;
}
);
unicode = 00EC;
},
{
glyphname = iacute;
layers = (
{
hints = (
{
horizontal = 1;
place = "{0, 21}";
target = up;
type = BottomGhost;
},
{
place = "{45, 190}";
type = Stem;
}
);
layerId = "B00352CC-F18A-4BDE-802C-0D96B8769A1B";
paths = (
{
closed = 1;
nodes = (
"70 616 LINE",
"204 616 LINE",
"351 744 LINE",
"174 801 LINE"
);
},
{
closed = 1;
nodes = (
"235 541 LINE",
"45 541 LINE",
"45 0 LINE",
"235 0 LINE"
);
}
);
width = 330;
}
);
unicode = 00ED;
},
{
glyphname = icircumflex;
layers = (
{
hints = (
{
horizontal = 1;
place = "{0, 21}";
target = up;
type = BottomGhost;
},
{
horizontal = 1;
place = "{613, 186}";
type = Stem;
},
{
place = "{50, 190}";
type = Stem;
}
);
layerId = "B00352CC-F18A-4BDE-802C-0D96B8769A1B";
paths = (
{
closed = 1;
nodes = (
"192 799 LINE",
"93 799 LINE",
"-47 613 LINE",
"84 613 LINE",
"143 674 LINE",
"202 613 LINE",
"332 613 LINE"
);
},
{
closed = 1;
nodes = (
"240 541 LINE",
"50 541 LINE",
"50 0 LINE",
"240 0 LINE"
);
}
);
width = 286;
}
);
unicode = 00EE;
},
{
glyphname = idieresis;
layers = (
{
hints = (
{
place = "{-51, 176}";
type = Stem;
},
{
place = "{55, 190}";
type = Stem;
},
{
place = "{175, 176}";
type = Stem;
},
{
horizontal = 1;
place = "{0, 21}";
target = up;
type = BottomGhost;
},
{
horizontal = 1;
place = "{629, 171}";
type = Stem;
}
);
layerId = "B00352CC-F18A-4BDE-802C-0D96B8769A1B";
paths = (
{
closed = 1;
nodes = (
"-51 659 OFFCURVE",
"-12 629 OFFCURVE",
"37 629 CURVE SMOOTH",
"86 629 OFFCURVE",
"125 659 OFFCURVE",
"125 715 CURVE SMOOTH",
"125 771 OFFCURVE",
"86 800 OFFCURVE",
"37 800 CURVE SMOOTH",
"-12 800 OFFCURVE",
"-51 771 OFFCURVE",
"-51 715 CURVE SMOOTH"
);
},
{
closed = 1;
nodes = (
"175 659 OFFCURVE",
"214 629 OFFCURVE",
"263 629 CURVE SMOOTH",
"312 629 OFFCURVE",
"351 659 OFFCURVE",
"351 715 CURVE SMOOTH",
"351 771 OFFCURVE",
"312 800 OFFCURVE",
"263 800 CURVE SMOOTH",
"214 800 OFFCURVE",
"175 771 OFFCURVE",
"175 715 CURVE SMOOTH"
);
},
{
closed = 1;
nodes = (
"245 541 LINE",
"55 541 LINE",
"55 0 LINE",
"245 0 LINE"
);
}
);
width = 300;
}
);
unicode = 00EF;
},
{
glyphname = eth;
layers = (
{
hints = (
{
horizontal = 1;
place = "{-13, 153}";
type = Stem;
},
{
horizontal = 1;
place = "{339, 144}";
type = Stem;
},
{
horizontal = 1;
place = "{708, -20}";
target = down;
type = TopGhost;
},
{
horizontal = 1;
place = "{714, -20}";
target = down;
type = TopGhost;
},
{
place = "{30, 184}";
type = Stem;
},
{
place = "{390, 183}";
type = Stem;
}
);
layerId = "B00352CC-F18A-4BDE-802C-0D96B8769A1B";
paths = (
{
closed = 1;
nodes = (
"103 708 LINE",
"134 685 OFFCURVE",
"160 667 OFFCURVE",
"191 640 CURVE",
"80 578 LINE",
"137 519 LINE",
"254 586 LINE",
"291 550 OFFCURVE",
"321 515 OFFCURVE",
"350 470 CURVE",
"333 476 OFFCURVE",
"309 483 OFFCURVE",
"272 483 CURVE SMOOTH",
"147 483 OFFCURVE",
"30 394 OFFCURVE",
"30 239 CURVE SMOOTH",
"30 69 OFFCURVE",
"170 -13 OFFCURVE",
"301 -13 CURVE SMOOTH",
"423 -13 OFFCURVE",
"573 61 OFFCURVE",
"573 268 CURVE SMOOTH",
"573 414 OFFCURVE",
"510 545 OFFCURVE",
"385 659 CURVE",
"493 722 LINE",
"437 780 LINE",
"323 714 LINE",
"288 744 OFFCURVE",
"261 766 OFFCURVE",
"224 787 CURVE"
);
},
{
closed = 1;
nodes = (
"356 339 OFFCURVE",
"390 289 OFFCURVE",
"390 238 CURVE SMOOTH",
"390 186 OFFCURVE",
"354 140 OFFCURVE",
"302 140 CURVE SMOOTH",
"250 140 OFFCURVE",
"214 186 OFFCURVE",
"214 238 CURVE SMOOTH",
"214 289 OFFCURVE",
"250 339 OFFCURVE",
"302 339 CURVE SMOOTH"
);
}
);
width = 603;
}
);
unicode = 00F0;
},
{
glyphname = ntilde;
layers = (
{
hints = (
{
place = "{51, 190}";
type = Stem;
},
{
place = "{397, 190}";
type = Stem;
},
{
horizontal = 1;
place = "{0, 21}";
target = up;
type = BottomGhost;
},
{
horizontal = 1;
place = "{384, 169}";
type = Stem;
},
{
horizontal = 1;
place = "{553, -20}";
target = down;
type = TopGhost;
},
{
horizontal = 1;
place = "{601, 119}";
type = Stem;
},
{
horizontal = 1;
place = "{636, 119}";
type = Stem;
}
);
layerId = "B00352CC-F18A-4BDE-802C-0D96B8769A1B";
paths = (
{
closed = 1;
nodes = (
"240 589 LINE",
"251 625 OFFCURVE",
"259 636 OFFCURVE",
"274 636 CURVE SMOOTH",
"301 636 OFFCURVE",
"341 601 OFFCURVE",
"389 601 CURVE SMOOTH",
"453 601 OFFCURVE",
"491 661 OFFCURVE",
"515 746 CURVE",
"413 765 LINE",
"405 732 OFFCURVE",
"395 720 OFFCURVE",
"382 720 CURVE SMOOTH",
"356 720 OFFCURVE",
"311 755 OFFCURVE",
"263 755 CURVE SMOOTH",
"200 755 OFFCURVE",
"160 694 OFFCURVE",
"137 607 CURVE"
);
},
{
closed = 1;
nodes = (
"326 553 OFFCURVE",
"276 510 OFFCURVE",
"241 465 CURVE",
"51 541 LINE",
"51 0 LINE",
"241 0 LINE",
"241 293 LINE SMOOTH",
"241 352 OFFCURVE",
"278 384 OFFCURVE",
"321 384 CURVE SMOOTH",
"364 384 OFFCURVE",
"397 352 OFFCURVE",
"397 293 CURVE SMOOTH",
"397 0 LINE",
"587 0 LINE",
"587 354 LINE SMOOTH",
"587 477 OFFCURVE",
"508 553 OFFCURVE",
"403 553 CURVE SMOOTH"
);
}
);
width = 635;
}
);
unicode = 00F1;
},
{
glyphname = ograve;
layers = (
{
hints = (
{
horizontal = 1;
place = "{-13, 161}";
type = Stem;
},
{
horizontal = 1;
place = "{392, 161}";
type = Stem;
},
{
place = "{30, 185}";
type = Stem;
},
{
place = "{443, 185}";
type = Stem;
}
);
layerId = "B00352CC-F18A-4BDE-802C-0D96B8769A1B";
paths = (
{
closed = 1;
nodes = (
"266 616 LINE",
"400 616 LINE",
"296 801 LINE",
"119 744 LINE"
);
},
{
closed = 1;
nodes = (
"628 427 OFFCURVE",
"503 553 OFFCURVE",
"330 553 CURVE SMOOTH",
"157 553 OFFCURVE",
"30 425 OFFCURVE",
"30 270 CURVE SMOOTH",
"30 115 OFFCURVE",
"155 -13 OFFCURVE",
"328 -13 CURVE SMOOTH",
"501 -13 OFFCURVE",
"628 118 OFFCURVE",
"628 272 CURVE SMOOTH"
);
},
{
closed = 1;
nodes = (
"443 205 OFFCURVE",
"399 148 OFFCURVE",
"330 148 CURVE SMOOTH",
"263 148 OFFCURVE",
"215 205 OFFCURVE",
"215 272 CURVE SMOOTH",
"215 337 OFFCURVE",
"259 392 OFFCURVE",
"328 392 CURVE SMOOTH",
"395 392 OFFCURVE",
"443 336 OFFCURVE",
"443 270 CURVE SMOOTH"
);
}
);
width = 657;
}
);
unicode = 00F2;
},
{
glyphname = oacute;
layers = (
{
hints = (
{
horizontal = 1;
place = "{-13, 161}";
type = Stem;
},
{
horizontal = 1;
place = "{392, 161}";
type = Stem;
},
{
place = "{30, 185}";
type = Stem;
},
{
place = "{443, 185}";
type = Stem;
}
);
layerId = "B00352CC-F18A-4BDE-802C-0D96B8769A1B";
paths = (
{
closed = 1;
nodes = (
"268 616 LINE",
"402 616 LINE",
"549 744 LINE",
"372 801 LINE"
);
},
{
closed = 1;
nodes = (
"628 427 OFFCURVE",
"503 553 OFFCURVE",
"330 553 CURVE SMOOTH",
"157 553 OFFCURVE",
"30 425 OFFCURVE",
"30 270 CURVE SMOOTH",
"30 115 OFFCURVE",
"155 -13 OFFCURVE",
"328 -13 CURVE SMOOTH",
"501 -13 OFFCURVE",
"628 118 OFFCURVE",
"628 272 CURVE SMOOTH"
);
},
{
closed = 1;
nodes = (
"443 205 OFFCURVE",
"399 148 OFFCURVE",
"330 148 CURVE SMOOTH",
"263 148 OFFCURVE",
"215 205 OFFCURVE",
"215 272 CURVE SMOOTH",
"215 337 OFFCURVE",
"259 392 OFFCURVE",
"328 392 CURVE SMOOTH",
"395 392 OFFCURVE",
"443 336 OFFCURVE",
"443 270 CURVE SMOOTH"
);
}
);
width = 657;
}
);
unicode = 00F3;
},
{
glyphname = ocircumflex;
layers = (
{
hints = (
{
horizontal = 1;
place = "{-13, 161}";
type = Stem;
},
{
horizontal = 1;
place = "{392, 161}";
type = Stem;
},
{
horizontal = 1;
place = "{613, 186}";
type = Stem;
},
{
place = "{30, 185}";
type = Stem;
},
{
place = "{443, 185}";
type = Stem;
}
);
layerId = "B00352CC-F18A-4BDE-802C-0D96B8769A1B";
paths = (
{
closed = 1;
nodes = (
"379 799 LINE",
"280 799 LINE",
"140 613 LINE",
"271 613 LINE",
"330 674 LINE",
"389 613 LINE",
"519 613 LINE"
);
},
{
closed = 1;
nodes = (
"628 427 OFFCURVE",
"503 553 OFFCURVE",
"330 553 CURVE SMOOTH",
"157 553 OFFCURVE",
"30 425 OFFCURVE",
"30 270 CURVE SMOOTH",
"30 115 OFFCURVE",
"155 -13 OFFCURVE",
"328 -13 CURVE SMOOTH",
"501 -13 OFFCURVE",
"628 118 OFFCURVE",
"628 272 CURVE SMOOTH"
);
},
{
closed = 1;
nodes = (
"443 205 OFFCURVE",
"399 148 OFFCURVE",
"330 148 CURVE SMOOTH",
"263 148 OFFCURVE",
"215 205 OFFCURVE",
"215 272 CURVE SMOOTH",
"215 337 OFFCURVE",
"259 392 OFFCURVE",
"328 392 CURVE SMOOTH",
"395 392 OFFCURVE",
"443 336 OFFCURVE",
"443 270 CURVE SMOOTH"
);
}
);
width = 657;
}
);
unicode = 00F4;
},
{
glyphname = otilde;
layers = (
{
hints = (
{
place = "{30, 185}";
type = Stem;
},
{
place = "{443, 185}";
type = Stem;
},
{
horizontal = 1;
place = "{-13, 161}";
type = Stem;
},
{
horizontal = 1;
place = "{392, 161}";
type = Stem;
},
{
horizontal = 1;
place = "{601, 119}";
type = Stem;
},
{
horizontal = 1;
place = "{636, 119}";
type = Stem;
}
);
layerId = "B00352CC-F18A-4BDE-802C-0D96B8769A1B";
paths = (
{
closed = 1;
nodes = (
"246 589 LINE",
"257 625 OFFCURVE",
"265 636 OFFCURVE",
"280 636 CURVE SMOOTH",
"307 636 OFFCURVE",
"347 601 OFFCURVE",
"395 601 CURVE SMOOTH",
"459 601 OFFCURVE",
"497 661 OFFCURVE",
"521 746 CURVE",
"419 765 LINE",
"411 732 OFFCURVE",
"401 720 OFFCURVE",
"388 720 CURVE SMOOTH",
"362 720 OFFCURVE",
"317 755 OFFCURVE",
"269 755 CURVE SMOOTH",
"206 755 OFFCURVE",
"166 694 OFFCURVE",
"143 607 CURVE"
);
},
{
closed = 1;
nodes = (
"628 427 OFFCURVE",
"503 553 OFFCURVE",
"330 553 CURVE SMOOTH",
"157 553 OFFCURVE",
"30 425 OFFCURVE",
"30 270 CURVE SMOOTH",
"30 115 OFFCURVE",
"155 -13 OFFCURVE",
"328 -13 CURVE SMOOTH",
"501 -13 OFFCURVE",
"628 118 OFFCURVE",
"628 272 CURVE SMOOTH"
);
},
{
closed = 1;
nodes = (
"443 205 OFFCURVE",
"399 148 OFFCURVE",
"330 148 CURVE SMOOTH",
"263 148 OFFCURVE",
"215 205 OFFCURVE",
"215 272 CURVE SMOOTH",
"215 337 OFFCURVE",
"259 392 OFFCURVE",
"328 392 CURVE SMOOTH",
"395 392 OFFCURVE",
"443 336 OFFCURVE",
"443 270 CURVE SMOOTH"
);
}
);
width = 657;
}
);
unicode = 00F5;
},
{
glyphname = odieresis;
layers = (
{
hints = (
{
place = "{30, 185}";
type = Stem;
},
{
place = "{128, 176}";
type = Stem;
},
{
place = "{354, 176}";
type = Stem;
},
{
place = "{443, 185}";
type = Stem;
},
{
horizontal = 1;
place = "{-13, 161}";
type = Stem;
},
{
horizontal = 1;
place = "{392, 161}";
type = Stem;
},
{
horizontal = 1;
place = "{629, 171}";
type = Stem;
}
);
layerId = "B00352CC-F18A-4BDE-802C-0D96B8769A1B";
paths = (
{
closed = 1;
nodes = (
"128 659 OFFCURVE",
"167 629 OFFCURVE",
"216 629 CURVE SMOOTH",
"265 629 OFFCURVE",
"304 659 OFFCURVE",
"304 715 CURVE SMOOTH",
"304 771 OFFCURVE",
"265 800 OFFCURVE",
"216 800 CURVE SMOOTH",
"167 800 OFFCURVE",
"128 771 OFFCURVE",
"128 715 CURVE SMOOTH"
);
},
{
closed = 1;
nodes = (
"354 659 OFFCURVE",
"393 629 OFFCURVE",
"442 629 CURVE SMOOTH",
"491 629 OFFCURVE",
"530 659 OFFCURVE",
"530 715 CURVE SMOOTH",
"530 771 OFFCURVE",
"491 800 OFFCURVE",
"442 800 CURVE SMOOTH",
"393 800 OFFCURVE",
"354 771 OFFCURVE",
"354 715 CURVE SMOOTH"
);
},
{
closed = 1;
nodes = (
"628 427 OFFCURVE",
"503 553 OFFCURVE",
"330 553 CURVE SMOOTH",
"157 553 OFFCURVE",
"30 425 OFFCURVE",
"30 270 CURVE SMOOTH",
"30 115 OFFCURVE",
"155 -13 OFFCURVE",
"328 -13 CURVE SMOOTH",
"501 -13 OFFCURVE",
"628 118 OFFCURVE",
"628 272 CURVE SMOOTH"
);
},
{
closed = 1;
nodes = (
"443 205 OFFCURVE",
"399 148 OFFCURVE",
"330 148 CURVE SMOOTH",
"263 148 OFFCURVE",
"215 205 OFFCURVE",
"215 272 CURVE SMOOTH",
"215 337 OFFCURVE",
"259 392 OFFCURVE",
"328 392 CURVE SMOOTH",
"395 392 OFFCURVE",
"443 336 OFFCURVE",
"443 270 CURVE SMOOTH"
);
}
);
width = 657;
}
);
unicode = 00F6;
},
{
glyphname = divide;
layers = (
{
hints = (
{
horizontal = 1;
place = "{128, 145}";
type = Stem;
},
{
horizontal = 1;
place = "{302, 100}";
type = Stem;
},
{
horizontal = 1;
place = "{432, 145}";
type = Stem;
},
{
place = "{268, 149}";
type = Stem;
}
);
layerId = "B00352CC-F18A-4BDE-802C-0D96B8769A1B";
paths = (
{
closed = 1;
nodes = (
"417 543 OFFCURVE",
"387 577 OFFCURVE",
"343 577 CURVE SMOOTH",
"299 577 OFFCURVE",
"268 543 OFFCURVE",
"268 504 CURVE SMOOTH",
"268 465 OFFCURVE",
"299 432 OFFCURVE",
"343 432 CURVE SMOOTH",
"387 432 OFFCURVE",
"417 465 OFFCURVE",
"417 504 CURVE SMOOTH"
);
},
{
closed = 1;
nodes = (
"604 402 LINE",
"81 402 LINE",
"81 302 LINE",
"604 302 LINE"
);
},
{
closed = 1;
nodes = (
"417 241 OFFCURVE",
"387 273 OFFCURVE",
"343 273 CURVE SMOOTH",
"299 273 OFFCURVE",
"268 241 OFFCURVE",
"268 202 CURVE SMOOTH",
"268 162 OFFCURVE",
"299 128 OFFCURVE",
"343 128 CURVE SMOOTH",
"387 128 OFFCURVE",
"417 162 OFFCURVE",
"417 202 CURVE SMOOTH"
);
}
);
width = 685;
}
);
unicode = 00F7;
},
{
glyphname = oslash;
layers = (
{
hints = (
{
place = "{45, 177}";
type = Stem;
},
{
place = "{466, 177}";
type = Stem;
},
{
horizontal = 1;
place = "{-13, 153}";
type = Stem;
},
{
horizontal = 1;
place = "{-5, 21}";
target = up;
type = BottomGhost;
},
{
horizontal = 1;
place = "{400, 153}";
type = Stem;
},
{
horizontal = 1;
place = "{546, -20}";
target = down;
type = TopGhost;
}
);
layerId = "B00352CC-F18A-4BDE-802C-0D96B8769A1B";
paths = (
{
closed = 1;
nodes = (
"30 -5 LINE",
"98 -70 LINE",
"191 25 LINE",
"235 1 OFFCURVE",
"286 -13 OFFCURVE",
"343 -13 CURVE SMOOTH",
"516 -13 OFFCURVE",
"643 115 OFFCURVE",
"643 270 CURVE SMOOTH",
"643 342 OFFCURVE",
"618 405 OFFCURVE",
"575 454 CURVE",
"658 546 LINE",
"574 608 LINE",
"496 515 LINE",
"453 539 OFFCURVE",
"401 553 OFFCURVE",
"345 553 CURVE SMOOTH",
"172 553 OFFCURVE",
"45 425 OFFCURVE",
"45 270 CURVE SMOOTH",
"45 198 OFFCURVE",
"70 136 OFFCURVE",
"113 87 CURVE"
);
},
{
closed = 1;
nodes = (
"232 218 LINE",
"225 234 OFFCURVE",
"222 251 OFFCURVE",
"222 270 CURVE SMOOTH",
"222 341 OFFCURVE",
"270 400 OFFCURVE",
"343 400 CURVE SMOOTH",
"359 400 OFFCURVE",
"375 398 OFFCURVE",
"388 391 CURVE"
);
},
{
closed = 1;
nodes = (
"456 322 LINE",
"463 306 OFFCURVE",
"466 289 OFFCURVE",
"466 270 CURVE SMOOTH",
"466 199 OFFCURVE",
"418 140 OFFCURVE",
"345 140 CURVE SMOOTH",
"329 140 OFFCURVE",
"314 143 OFFCURVE",
"301 148 CURVE"
);
}
);
width = 687;
}
);
unicode = 00F8;
},
{
glyphname = ugrave;
layers = (
{
hints = (
{
place = "{48, 190}";
type = Stem;
},
{
place = "{394, 190}";
type = Stem;
},
{
horizontal = 1;
place = "{-12, 169}";
type = Stem;
},
{
horizontal = 1;
place = "{-12, 21}";
target = up;
type = BottomGhost;
}
);
layerId = "B00352CC-F18A-4BDE-802C-0D96B8769A1B";
paths = (
{
closed = 1;
nodes = (
"275 616 LINE",
"409 616 LINE",
"305 801 LINE",
"128 744 LINE"
);
},
{
closed = 1;
nodes = (
"309 -12 OFFCURVE",
"363 21 OFFCURVE",
"394 62 CURVE",
"584 -12 LINE",
"584 541 LINE",
"394 541 LINE",
"394 248 LINE SMOOTH",
"394 189 OFFCURVE",
"360 157 OFFCURVE",
"315 157 CURVE SMOOTH",
"269 157 OFFCURVE",
"238 189 OFFCURVE",
"238 248 CURVE SMOOTH",
"238 541 LINE",
"48 541 LINE",
"48 187 LINE SMOOTH",
"48 63 OFFCURVE",
"116 -12 OFFCURVE",
"232 -12 CURVE SMOOTH"
);
}
);
width = 631;
}
);
unicode = 00F9;
},
{
glyphname = uacute;
layers = (
{
hints = (
{
place = "{48, 190}";
type = Stem;
},
{
place = "{394, 190}";
type = Stem;
},
{
horizontal = 1;
place = "{-12, 169}";
type = Stem;
},
{
horizontal = 1;
place = "{-12, 21}";
target = up;
type = BottomGhost;
}
);
layerId = "B00352CC-F18A-4BDE-802C-0D96B8769A1B";
paths = (
{
closed = 1;
nodes = (
"254 616 LINE",
"388 616 LINE",
"535 744 LINE",
"358 801 LINE"
);
},
{
closed = 1;
nodes = (
"309 -12 OFFCURVE",
"363 21 OFFCURVE",
"394 62 CURVE",
"584 -12 LINE",
"584 541 LINE",
"394 541 LINE",
"394 248 LINE SMOOTH",
"394 189 OFFCURVE",
"360 157 OFFCURVE",
"315 157 CURVE SMOOTH",
"269 157 OFFCURVE",
"238 189 OFFCURVE",
"238 248 CURVE SMOOTH",
"238 541 LINE",
"48 541 LINE",
"48 187 LINE SMOOTH",
"48 63 OFFCURVE",
"116 -12 OFFCURVE",
"232 -12 CURVE SMOOTH"
);
}
);
width = 631;
}
);
unicode = 00FA;
},
{
glyphname = ucircumflex;
layers = (
{
hints = (
{
place = "{48, 190}";
type = Stem;
},
{
place = "{394, 190}";
type = Stem;
},
{
horizontal = 1;
place = "{-12, 169}";
type = Stem;
},
{
horizontal = 1;
place = "{-12, 21}";
target = up;
type = BottomGhost;
},
{
horizontal = 1;
place = "{613, 186}";
type = Stem;
}
);
layerId = "B00352CC-F18A-4BDE-802C-0D96B8769A1B";
paths = (
{
closed = 1;
nodes = (
"364 799 LINE",
"265 799 LINE",
"125 613 LINE",
"256 613 LINE",
"315 674 LINE",
"374 613 LINE",
"504 613 LINE"
);
},
{
closed = 1;
nodes = (
"309 -12 OFFCURVE",
"363 21 OFFCURVE",
"394 62 CURVE",
"584 -12 LINE",
"584 541 LINE",
"394 541 LINE",
"394 248 LINE SMOOTH",
"394 189 OFFCURVE",
"360 157 OFFCURVE",
"315 157 CURVE SMOOTH",
"269 157 OFFCURVE",
"238 189 OFFCURVE",
"238 248 CURVE SMOOTH",
"238 541 LINE",
"48 541 LINE",
"48 187 LINE SMOOTH",
"48 63 OFFCURVE",
"116 -12 OFFCURVE",
"232 -12 CURVE SMOOTH"
);
}
);
width = 631;
}
);
unicode = 00FB;
},
{
glyphname = udieresis;
layers = (
{
hints = (
{
place = "{48, 190}";
type = Stem;
},
{
place = "{113, 176}";
type = Stem;
},
{
place = "{339, 176}";
type = Stem;
},
{
place = "{394, 190}";
type = Stem;
},
{
horizontal = 1;
place = "{-12, 169}";
type = Stem;
},
{
horizontal = 1;
place = "{-12, 21}";
target = up;
type = BottomGhost;
},
{
horizontal = 1;
place = "{629, 171}";
type = Stem;
}
);
layerId = "B00352CC-F18A-4BDE-802C-0D96B8769A1B";
paths = (
{
closed = 1;
nodes = (
"113 659 OFFCURVE",
"152 629 OFFCURVE",
"201 629 CURVE SMOOTH",
"250 629 OFFCURVE",
"289 659 OFFCURVE",
"289 715 CURVE SMOOTH",
"289 771 OFFCURVE",
"250 800 OFFCURVE",
"201 800 CURVE SMOOTH",
"152 800 OFFCURVE",
"113 771 OFFCURVE",
"113 715 CURVE SMOOTH"
);
},
{
closed = 1;
nodes = (
"339 659 OFFCURVE",
"378 629 OFFCURVE",
"427 629 CURVE SMOOTH",
"476 629 OFFCURVE",
"515 659 OFFCURVE",
"515 715 CURVE SMOOTH",
"515 771 OFFCURVE",
"476 800 OFFCURVE",
"427 800 CURVE SMOOTH",
"378 800 OFFCURVE",
"339 771 OFFCURVE",
"339 715 CURVE SMOOTH"
);
},
{
closed = 1;
nodes = (
"309 -12 OFFCURVE",
"363 21 OFFCURVE",
"394 62 CURVE",
"584 -12 LINE",
"584 541 LINE",
"394 541 LINE",
"394 248 LINE SMOOTH",
"394 189 OFFCURVE",
"360 157 OFFCURVE",
"315 157 CURVE SMOOTH",
"269 157 OFFCURVE",
"238 189 OFFCURVE",
"238 248 CURVE SMOOTH",
"238 541 LINE",
"48 541 LINE",
"48 187 LINE SMOOTH",
"48 63 OFFCURVE",
"116 -12 OFFCURVE",
"232 -12 CURVE SMOOTH"
);
}
);
width = 631;
}
);
unicode = 00FC;
},
{
glyphname = yacute;
layers = (
{
hints = (
{
horizontal = 1;
place = "{-160, 21}";
target = up;
type = BottomGhost;
},
{
place = "{-6, 604}";
type = Stem;
}
);
layerId = "B00352CC-F18A-4BDE-802C-0D96B8769A1B";
paths = (
{
closed = 1;
nodes = (
"232 616 LINE",
"366 616 LINE",
"513 744 LINE",
"336 801 LINE"
);
},
{
closed = 1;
nodes = (
"222 -6 LINE",
"173 -160 LINE",
"334 -160 LINE",
"598 541 LINE",
"403 541 LINE",
"301 195 LINE",
"193 541 LINE",
"-6 541 LINE"
);
}
);
width = 593;
}
);
unicode = 00FD;
},
{
glyphname = thorn;
layers = (
{
hints = (
{
horizontal = 1;
place = "{-13, 153}";
type = Stem;
},
{
horizontal = 1;
place = "{339, 153}";
type = Stem;
},
{
place = "{52, 186}";
type = Stem;
},
{
place = "{397, 186}";
type = Stem;
}
);
layerId = "B00352CC-F18A-4BDE-802C-0D96B8769A1B";
paths = (
{
closed = 1;
nodes = (
"52 -225 LINE",
"238 -225 LINE",
"238 -20 LINE",
"233 55 LINE",
"237 55 LINE",
"262 14 OFFCURVE",
"324 -13 OFFCURVE",
"372 -13 CURVE SMOOTH",
"508 -13 OFFCURVE",
"583 121 OFFCURVE",
"583 243 CURVE SMOOTH",
"583 366 OFFCURVE",
"510 492 OFFCURVE",
"374 492 CURVE SMOOTH",
"359 492 OFFCURVE",
"345 489 OFFCURVE",
"330 485 CURVE",
"287 470 OFFCURVE",
"251 441 OFFCURVE",
"232 418 CURVE",
"233 438 OFFCURVE",
"234 459 OFFCURVE",
"235 480 CURVE",
"235 511 OFFCURVE",
"236 542 OFFCURVE",
"238 571 CURVE",
"238 776 LINE",
"52 776 LINE"
);
},
{
closed = 1;
nodes = (
"259 140 OFFCURVE",
"226 189 OFFCURVE",
"226 240 CURVE SMOOTH",
"226 288 OFFCURVE",
"259 339 OFFCURVE",
"311 339 CURVE SMOOTH",
"364 339 OFFCURVE",
"397 289 OFFCURVE",
"397 241 CURVE SMOOTH",
"397 193 OFFCURVE",
"364 140 OFFCURVE",
"311 140 CURVE SMOOTH"
);
}
);
width = 612;
}
);
unicode = 00FE;
},
{
glyphname = ydieresis;
layers = (
{
hints = (
{
horizontal = 1;
place = "{-160, 21}";
target = up;
type = BottomGhost;
},
{
horizontal = 1;
place = "{629, 171}";
type = Stem;
},
{
place = "{100, 176}";
type = Stem;
},
{
place = "{326, 176}";
type = Stem;
}
);
layerId = "B00352CC-F18A-4BDE-802C-0D96B8769A1B";
paths = (
{
closed = 1;
nodes = (
"100 659 OFFCURVE",
"139 629 OFFCURVE",
"188 629 CURVE SMOOTH",
"237 629 OFFCURVE",
"276 659 OFFCURVE",
"276 715 CURVE SMOOTH",
"276 771 OFFCURVE",
"237 800 OFFCURVE",
"188 800 CURVE SMOOTH",
"139 800 OFFCURVE",
"100 771 OFFCURVE",
"100 715 CURVE SMOOTH"
);
},
{
closed = 1;
nodes = (
"326 659 OFFCURVE",
"365 629 OFFCURVE",
"414 629 CURVE SMOOTH",
"463 629 OFFCURVE",
"502 659 OFFCURVE",
"502 715 CURVE SMOOTH",
"502 771 OFFCURVE",
"463 800 OFFCURVE",
"414 800 CURVE SMOOTH",
"365 800 OFFCURVE",
"326 771 OFFCURVE",
"326 715 CURVE SMOOTH"
);
},
{
closed = 1;
nodes = (
"222 -6 LINE",
"173 -160 LINE",
"334 -160 LINE",
"598 541 LINE",
"403 541 LINE",
"301 195 LINE",
"193 541 LINE",
"-6 541 LINE"
);
}
);
width = 593;
}
);
unicode = 00FF;
},
{
glyphname = Amacron;
layers = (
{
hints = (
{
horizontal = 1;
place = "{0, 21}";
target = up;
type = BottomGhost;
},
{
horizontal = 1;
place = "{125, 151}";
type = Stem;
},
{
horizontal = 1;
place = "{705, -20}";
target = down;
type = TopGhost;
},
{
horizontal = 1;
place = "{744, 117}";
type = Stem;
},
{
place = "{-8, 783}";
type = Stem;
}
);
layerId = "B00352CC-F18A-4BDE-802C-0D96B8769A1B";
paths = (
{
closed = 1;
nodes = (
"568 861 LINE",
"197 861 LINE",
"197 744 LINE",
"568 744 LINE"
);
},
{
closed = 1;
nodes = (
"516 125 LINE",
"567 0 LINE",
"775 0 LINE",
"477 705 LINE",
"290 705 LINE",
"-8 0 LINE",
"196 0 LINE",
"246 125 LINE"
);
},
{
closed = 1;
nodes = (
"382 475 LINE",
"460 276 LINE",
"303 276 LINE"
);
}
);
width = 767;
}
);
unicode = 0100;
},
{
glyphname = amacron;
layers = (
{
hints = (
{
horizontal = 1;
place = "{-12, 119}";
type = Stem;
},
{
horizontal = 1;
place = "{235, 92}";
type = Stem;
},
{
horizontal = 1;
place = "{404, 145}";
type = Stem;
},
{
horizontal = 1;
place = "{579, 117}";
type = Stem;
},
{
place = "{29, 185}";
type = Stem;
},
{
place = "{373, 185}";
type = Stem;
}
);
layerId = "B00352CC-F18A-4BDE-802C-0D96B8769A1B";
paths = (
{
closed = 1;
nodes = (
"478 696 LINE",
"107 696 LINE",
"107 579 LINE",
"478 579 LINE"
);
},
{
closed = 1;
nodes = (
"558 -12 LINE",
"558 311 LINE SMOOTH",
"558 466 OFFCURVE",
"478 549 OFFCURVE",
"290 549 CURVE SMOOTH",
"202 549 OFFCURVE",
"139 532 OFFCURVE",
"76 507 CURVE",
"76 373 LINE",
"136 396 OFFCURVE",
"187 404 OFFCURVE",
"240 404 CURVE SMOOTH",
"329 404 OFFCURVE",
"373 378 OFFCURVE",
"373 315 CURVE SMOOTH",
"373 306 LINE",
"342 317 OFFCURVE",
"293 327 OFFCURVE",
"241 327 CURVE SMOOTH",
"116 327 OFFCURVE",
"29 269 OFFCURVE",
"29 157 CURVE SMOOTH",
"29 49 OFFCURVE",
"109 -12 OFFCURVE",
"214 -12 CURVE SMOOTH",
"285 -12 OFFCURVE",
"335 15 OFFCURVE",
"372 56 CURVE"
);
},
{
closed = 1;
nodes = (
"373 139 LINE",
"346 116 OFFCURVE",
"317 107 OFFCURVE",
"286 107 CURVE SMOOTH",
"247 107 OFFCURVE",
"214 133 OFFCURVE",
"214 170 CURVE SMOOTH",
"214 206 OFFCURVE",
"246 235 OFFCURVE",
"302 235 CURVE SMOOTH",
"329 235 OFFCURVE",
"356 229 OFFCURVE",
"373 221 CURVE"
);
}
);
width = 611;
}
);
unicode = 0101;
},
{
glyphname = Abreve;
layers = (
{
hints = (
{
horizontal = 1;
place = "{0, 21}";
target = up;
type = BottomGhost;
},
{
horizontal = 1;
place = "{125, 151}";
type = Stem;
},
{
horizontal = 1;
place = "{705, -20}";
target = down;
type = TopGhost;
},
{
horizontal = 1;
place = "{759, 183}";
type = Stem;
},
{
place = "{-8, 783}";
type = Stem;
}
);
layerId = "B00352CC-F18A-4BDE-802C-0D96B8769A1B";
paths = (
{
closed = 1;
nodes = (
"449 942 LINE",
"437 901 OFFCURVE",
"414 876 OFFCURVE",
"385 876 CURVE SMOOTH",
"356 876 OFFCURVE",
"330 901 OFFCURVE",
"318 942 CURVE",
"214 942 LINE",
"222 834 OFFCURVE",
"292 759 OFFCURVE",
"383 759 CURVE SMOOTH",
"475 759 OFFCURVE",
"545 834 OFFCURVE",
"553 942 CURVE"
);
},
{
closed = 1;
nodes = (
"516 125 LINE",
"567 0 LINE",
"775 0 LINE",
"477 705 LINE",
"290 705 LINE",
"-8 0 LINE",
"196 0 LINE",
"246 125 LINE"
);
},
{
closed = 1;
nodes = (
"382 475 LINE",
"460 276 LINE",
"303 276 LINE"
);
}
);
width = 767;
}
);
unicode = 0102;
},
{
glyphname = abreve;
layers = (
{
hints = (
{
horizontal = 1;
place = "{-12, 119}";
type = Stem;
},
{
horizontal = 1;
place = "{235, 92}";
type = Stem;
},
{
horizontal = 1;
place = "{404, 145}";
type = Stem;
},
{
horizontal = 1;
place = "{574, 183}";
type = Stem;
},
{
place = "{29, 185}";
type = Stem;
},
{
place = "{373, 185}";
type = Stem;
}
);
layerId = "B00352CC-F18A-4BDE-802C-0D96B8769A1B";
paths = (
{
closed = 1;
nodes = (
"377 757 LINE",
"365 716 OFFCURVE",
"342 691 OFFCURVE",
"313 691 CURVE SMOOTH",
"284 691 OFFCURVE",
"258 716 OFFCURVE",
"246 757 CURVE",
"142 757 LINE",
"150 649 OFFCURVE",
"220 574 OFFCURVE",
"311 574 CURVE SMOOTH",
"403 574 OFFCURVE",
"473 649 OFFCURVE",
"481 757 CURVE"
);
},
{
closed = 1;
nodes = (
"558 -12 LINE",
"558 311 LINE SMOOTH",
"558 466 OFFCURVE",
"478 549 OFFCURVE",
"290 549 CURVE SMOOTH",
"202 549 OFFCURVE",
"139 532 OFFCURVE",
"76 507 CURVE",
"76 373 LINE",
"136 396 OFFCURVE",
"187 404 OFFCURVE",
"240 404 CURVE SMOOTH",
"329 404 OFFCURVE",
"373 378 OFFCURVE",
"373 315 CURVE SMOOTH",
"373 306 LINE",
"342 317 OFFCURVE",
"293 327 OFFCURVE",
"241 327 CURVE SMOOTH",
"116 327 OFFCURVE",
"29 269 OFFCURVE",
"29 157 CURVE SMOOTH",
"29 49 OFFCURVE",
"109 -12 OFFCURVE",
"214 -12 CURVE SMOOTH",
"285 -12 OFFCURVE",
"335 15 OFFCURVE",
"372 56 CURVE"
);
},
{
closed = 1;
nodes = (
"373 139 LINE",
"346 116 OFFCURVE",
"317 107 OFFCURVE",
"286 107 CURVE SMOOTH",
"247 107 OFFCURVE",
"214 133 OFFCURVE",
"214 170 CURVE SMOOTH",
"214 206 OFFCURVE",
"246 235 OFFCURVE",
"302 235 CURVE SMOOTH",
"329 235 OFFCURVE",
"356 229 OFFCURVE",
"373 221 CURVE"
);
}
);
width = 611;
}
);
unicode = 0103;
},
{
glyphname = Aogonek;
layers = (
{
hints = (
{
place = "{-8, 783}";
type = Stem;
},
{
place = "{504, 123}";
type = Stem;
},
{
horizontal = 1;
place = "{-238, 105}";
type = Stem;
},
{
horizontal = 1;
place = "{0, 21}";
target = up;
type = BottomGhost;
},
{
horizontal = 1;
place = "{125, 151}";
type = Stem;
},
{
horizontal = 1;
place = "{705, -20}";
target = down;
type = TopGhost;
}
);
layerId = "B00352CC-F18A-4BDE-802C-0D96B8769A1B";
paths = (
{
closed = 1;
nodes = (
"516 125 LINE",
"567 0 LINE",
"536 -35 OFFCURVE",
"504 -77 OFFCURVE",
"504 -128 CURVE SMOOTH",
"504 -196 OFFCURVE",
"559 -238 OFFCURVE",
"632 -238 CURVE SMOOTH",
"665 -238 OFFCURVE",
"701 -230 OFFCURVE",
"736 -211 CURVE",
"713 -118 LINE",
"684 -130 OFFCURVE",
"668 -133 OFFCURVE",
"657 -133 CURVE SMOOTH",
"641 -133 OFFCURVE",
"627 -126 OFFCURVE",
"627 -109 CURVE SMOOTH",
"627 -95 OFFCURVE",
"637 -66 OFFCURVE",
"693 0 CURVE",
"775 0 LINE",
"477 705 LINE",
"290 705 LINE",
"-8 0 LINE",
"196 0 LINE",
"246 125 LINE"
);
},
{
closed = 1;
nodes = (
"382 475 LINE",
"460 276 LINE",
"303 276 LINE"
);
}
);
width = 767;
}
);
unicode = 0104;
},
{
glyphname = aogonek;
layers = (
{
hints = (
{
place = "{29, 185}";
type = Stem;
},
{
place = "{369, 123}";
type = Stem;
},
{
place = "{373, 185}";
type = Stem;
},
{
horizontal = 1;
place = "{-238, 105}";
type = Stem;
},
{
horizontal = 1;
place = "{-12, 119}";
type = Stem;
},
{
horizontal = 1;
place = "{235, 92}";
type = Stem;
},
{
horizontal = 1;
place = "{404, 145}";
type = Stem;
}
);
layerId = "B00352CC-F18A-4BDE-802C-0D96B8769A1B";
paths = (
{
closed = 1;
nodes = (
"558 311 LINE SMOOTH",
"558 466 OFFCURVE",
"478 549 OFFCURVE",
"290 549 CURVE SMOOTH",
"202 549 OFFCURVE",
"139 532 OFFCURVE",
"76 507 CURVE",
"76 373 LINE",
"136 396 OFFCURVE",
"187 404 OFFCURVE",
"240 404 CURVE SMOOTH",
"329 404 OFFCURVE",
"373 378 OFFCURVE",
"373 315 CURVE SMOOTH",
"373 306 LINE",
"342 317 OFFCURVE",
"293 327 OFFCURVE",
"241 327 CURVE SMOOTH",
"116 327 OFFCURVE",
"29 269 OFFCURVE",
"29 157 CURVE SMOOTH",
"29 49 OFFCURVE",
"109 -12 OFFCURVE",
"214 -12 CURVE SMOOTH",
"285 -12 OFFCURVE",
"335 15 OFFCURVE",
"372 56 CURVE",
"456 25 LINE",
"400 -37 OFFCURVE",
"369 -78 OFFCURVE",
"369 -128 CURVE SMOOTH",
"369 -196 OFFCURVE",
"424 -238 OFFCURVE",
"497 -238 CURVE SMOOTH",
"530 -238 OFFCURVE",
"566 -230 OFFCURVE",
"601 -211 CURVE",
"578 -118 LINE",
"549 -130 OFFCURVE",
"533 -133 OFFCURVE",
"522 -133 CURVE SMOOTH",
"506 -133 OFFCURVE",
"492 -126 OFFCURVE",
"492 -109 CURVE SMOOTH",
"492 -95 OFFCURVE",
"502 -66 OFFCURVE",
"558 -12 CURVE"
);
},
{
closed = 1;
nodes = (
"373 139 LINE",
"346 116 OFFCURVE",
"317 107 OFFCURVE",
"286 107 CURVE SMOOTH",
"247 107 OFFCURVE",
"214 133 OFFCURVE",
"214 170 CURVE SMOOTH",
"214 206 OFFCURVE",
"246 235 OFFCURVE",
"302 235 CURVE SMOOTH",
"329 235 OFFCURVE",
"356 229 OFFCURVE",
"373 221 CURVE"
);
}
);
width = 638;
}
);
unicode = 0105;
},
{
glyphname = Cacute;
layers = (
{
hints = (
{
horizontal = 1;
place = "{-14, 177}";
type = Stem;
},
{
horizontal = 1;
place = "{537, 177}";
type = Stem;
},
{
place = "{37, 200}";
type = Stem;
}
);
layerId = "B00352CC-F18A-4BDE-802C-0D96B8769A1B";
paths = (
{
closed = 1;
nodes = (
"308 781 LINE",
"442 781 LINE",
"589 909 LINE",
"412 966 LINE"
);
},
{
closed = 1;
nodes = (
"622 248 LINE",
"561 192 OFFCURVE",
"498 163 OFFCURVE",
"424 163 CURVE SMOOTH",
"305 163 OFFCURVE",
"237 245 OFFCURVE",
"237 352 CURVE SMOOTH",
"237 454 OFFCURVE",
"306 537 OFFCURVE",
"424 537 CURVE SMOOTH",
"503 537 OFFCURVE",
"572 502 OFFCURVE",
"617 455 CURVE",
"617 652 LINE",
"562 691 OFFCURVE",
"494 714 OFFCURVE",
"406 714 CURVE SMOOTH",
"194 714 OFFCURVE",
"37 554 OFFCURVE",
"37 350 CURVE SMOOTH",
"37 141 OFFCURVE",
"198 -14 OFFCURVE",
"398 -14 CURVE SMOOTH",
"486 -14 OFFCURVE",
"557 9 OFFCURVE",
"622 54 CURVE"
);
}
);
width = 665;
}
);
unicode = 0106;
},
{
glyphname = cacute;
layers = (
{
hints = (
{
horizontal = 1;
place = "{-13, 160}";
type = Stem;
},
{
horizontal = 1;
place = "{392, 160}";
type = Stem;
},
{
place = "{30, 185}";
type = Stem;
}
);
layerId = "B00352CC-F18A-4BDE-802C-0D96B8769A1B";
paths = (
{
closed = 1;
nodes = (
"219 616 LINE",
"353 616 LINE",
"500 744 LINE",
"323 801 LINE"
);
},
{
closed = 1;
nodes = (
"432 537 LINE",
"401 548 OFFCURVE",
"357 552 OFFCURVE",
"320 552 CURVE SMOOTH",
"149 552 OFFCURVE",
"30 422 OFFCURVE",
"30 270 CURVE SMOOTH",
"30 115 OFFCURVE",
"155 -13 OFFCURVE",
"318 -13 CURVE SMOOTH",
"358 -13 OFFCURVE",
"404 -6 OFFCURVE",
"437 6 CURVE",
"437 183 LINE",
"404 156 OFFCURVE",
"369 147 OFFCURVE",
"338 147 CURVE SMOOTH",
"269 147 OFFCURVE",
"215 201 OFFCURVE",
"215 270 CURVE SMOOTH",
"215 338 OFFCURVE",
"264 392 OFFCURVE",
"335 392 CURVE SMOOTH",
"374 392 OFFCURVE",
"403 378 OFFCURVE",
"432 355 CURVE"
);
}
);
width = 518;
}
);
unicode = 0107;
},
{
glyphname = Ccircumflex;
layers = (
{
hints = (
{
horizontal = 1;
place = "{-14, 177}";
type = Stem;
},
{
horizontal = 1;
place = "{537, 177}";
type = Stem;
},
{
horizontal = 1;
place = "{778, 186}";
type = Stem;
},
{
place = "{37, 200}";
type = Stem;
}
);
layerId = "B00352CC-F18A-4BDE-802C-0D96B8769A1B";
paths = (
{
closed = 1;
nodes = (
"435 964 LINE",
"336 964 LINE",
"196 778 LINE",
"327 778 LINE",
"386 839 LINE",
"445 778 LINE",
"575 778 LINE"
);
},
{
closed = 1;
nodes = (
"622 248 LINE",
"561 192 OFFCURVE",
"498 163 OFFCURVE",
"424 163 CURVE SMOOTH",
"305 163 OFFCURVE",
"237 245 OFFCURVE",
"237 352 CURVE SMOOTH",
"237 454 OFFCURVE",
"306 537 OFFCURVE",
"424 537 CURVE SMOOTH",
"503 537 OFFCURVE",
"572 502 OFFCURVE",
"617 455 CURVE",
"617 652 LINE",
"562 691 OFFCURVE",
"494 714 OFFCURVE",
"406 714 CURVE SMOOTH",
"194 714 OFFCURVE",
"37 554 OFFCURVE",
"37 350 CURVE SMOOTH",
"37 141 OFFCURVE",
"198 -14 OFFCURVE",
"398 -14 CURVE SMOOTH",
"486 -14 OFFCURVE",
"557 9 OFFCURVE",
"622 54 CURVE"
);
}
);
width = 665;
}
);
unicode = 0108;
},
{
glyphname = ccircumflex;
layers = (
{
hints = (
{
horizontal = 1;
place = "{-13, 160}";
type = Stem;
},
{
horizontal = 1;
place = "{392, 160}";
type = Stem;
},
{
horizontal = 1;
place = "{613, 186}";
type = Stem;
},
{
place = "{30, 185}";
type = Stem;
}
);
layerId = "B00352CC-F18A-4BDE-802C-0D96B8769A1B";
paths = (
{
closed = 1;
nodes = (
"334 799 LINE",
"235 799 LINE",
"95 613 LINE",
"226 613 LINE",
"285 674 LINE",
"344 613 LINE",
"474 613 LINE"
);
},
{
closed = 1;
nodes = (
"432 537 LINE",
"401 548 OFFCURVE",
"357 552 OFFCURVE",
"320 552 CURVE SMOOTH",
"149 552 OFFCURVE",
"30 422 OFFCURVE",
"30 270 CURVE SMOOTH",
"30 115 OFFCURVE",
"155 -13 OFFCURVE",
"318 -13 CURVE SMOOTH",
"358 -13 OFFCURVE",
"404 -6 OFFCURVE",
"437 6 CURVE",
"437 183 LINE",
"404 156 OFFCURVE",
"369 147 OFFCURVE",
"338 147 CURVE SMOOTH",
"269 147 OFFCURVE",
"215 201 OFFCURVE",
"215 270 CURVE SMOOTH",
"215 338 OFFCURVE",
"264 392 OFFCURVE",
"335 392 CURVE SMOOTH",
"374 392 OFFCURVE",
"403 378 OFFCURVE",
"432 355 CURVE"
);
}
);
width = 467;
}
);
unicode = 0109;
},
{
glyphname = Cdotaccent;
layers = (
{
hints = (
{
horizontal = 1;
place = "{-14, 177}";
type = Stem;
},
{
horizontal = 1;
place = "{537, 177}";
type = Stem;
},
{
horizontal = 1;
place = "{769, 152}";
type = Stem;
},
{
place = "{36, 200}";
type = Stem;
},
{
place = "{327, 155}";
type = Stem;
}
);
layerId = "B00352CC-F18A-4BDE-802C-0D96B8769A1B";
paths = (
{
closed = 1;
nodes = (
"482 890 OFFCURVE",
"443 921 OFFCURVE",
"404 921 CURVE SMOOTH",
"365 921 OFFCURVE",
"327 890 OFFCURVE",
"327 846 CURVE SMOOTH",
"327 799 OFFCURVE",
"365 769 OFFCURVE",
"404 769 CURVE SMOOTH",
"443 769 OFFCURVE",
"482 799 OFFCURVE",
"482 846 CURVE SMOOTH"
);
},
{
closed = 1;
nodes = (
"621 248 LINE",
"560 192 OFFCURVE",
"497 163 OFFCURVE",
"423 163 CURVE SMOOTH",
"304 163 OFFCURVE",
"236 245 OFFCURVE",
"236 352 CURVE SMOOTH",
"236 454 OFFCURVE",
"305 537 OFFCURVE",
"423 537 CURVE SMOOTH",
"502 537 OFFCURVE",
"571 502 OFFCURVE",
"616 455 CURVE",
"616 652 LINE",
"561 691 OFFCURVE",
"493 714 OFFCURVE",
"405 714 CURVE SMOOTH",
"193 714 OFFCURVE",
"36 554 OFFCURVE",
"36 350 CURVE SMOOTH",
"36 141 OFFCURVE",
"197 -14 OFFCURVE",
"397 -14 CURVE SMOOTH",
"485 -14 OFFCURVE",
"556 9 OFFCURVE",
"621 54 CURVE"
);
}
);
width = 648;
}
);
unicode = 010A;
},
{
glyphname = cdotaccent;
layers = (
{
hints = (
{
horizontal = 1;
place = "{-13, 160}";
type = Stem;
},
{
horizontal = 1;
place = "{392, 160}";
type = Stem;
},
{
horizontal = 1;
place = "{604, 152}";
type = Stem;
},
{
place = "{32, 185}";
type = Stem;
},
{
place = "{234, 155}";
type = Stem;
}
);
layerId = "B00352CC-F18A-4BDE-802C-0D96B8769A1B";
paths = (
{
closed = 1;
nodes = (
"389 725 OFFCURVE",
"350 756 OFFCURVE",
"311 756 CURVE SMOOTH",
"272 756 OFFCURVE",
"234 725 OFFCURVE",
"234 681 CURVE SMOOTH",
"234 634 OFFCURVE",
"272 604 OFFCURVE",
"311 604 CURVE SMOOTH",
"350 604 OFFCURVE",
"389 634 OFFCURVE",
"389 681 CURVE SMOOTH"
);
},
{
closed = 1;
nodes = (
"434 537 LINE",
"403 548 OFFCURVE",
"359 552 OFFCURVE",
"322 552 CURVE SMOOTH",
"151 552 OFFCURVE",
"32 422 OFFCURVE",
"32 270 CURVE SMOOTH",
"32 115 OFFCURVE",
"157 -13 OFFCURVE",
"320 -13 CURVE SMOOTH",
"360 -13 OFFCURVE",
"406 -6 OFFCURVE",
"439 6 CURVE",
"439 183 LINE",
"406 156 OFFCURVE",
"371 147 OFFCURVE",
"340 147 CURVE SMOOTH",
"271 147 OFFCURVE",
"217 201 OFFCURVE",
"217 270 CURVE SMOOTH",
"217 338 OFFCURVE",
"266 392 OFFCURVE",
"337 392 CURVE SMOOTH",
"376 392 OFFCURVE",
"405 378 OFFCURVE",
"434 355 CURVE"
);
}
);
width = 458;
}
);
unicode = 010B;
},
{
glyphname = Ccaron;
layers = (
{
hints = (
{
horizontal = 1;
place = "{-14, 177}";
type = Stem;
},
{
horizontal = 1;
place = "{537, 177}";
type = Stem;
},
{
horizontal = 1;
place = "{755, 187}";
type = Stem;
},
{
place = "{37, 200}";
type = Stem;
}
);
layerId = "B00352CC-F18A-4BDE-802C-0D96B8769A1B";
paths = (
{
closed = 1;
nodes = (
"467 942 LINE",
"411 879 LINE",
"353 942 LINE",
"213 942 LINE",
"359 755 LINE",
"459 755 LINE",
"604 942 LINE"
);
},
{
closed = 1;
nodes = (
"622 248 LINE",
"561 192 OFFCURVE",
"498 163 OFFCURVE",
"424 163 CURVE SMOOTH",
"305 163 OFFCURVE",
"237 245 OFFCURVE",
"237 352 CURVE SMOOTH",
"237 454 OFFCURVE",
"306 537 OFFCURVE",
"424 537 CURVE SMOOTH",
"503 537 OFFCURVE",
"572 502 OFFCURVE",
"617 455 CURVE",
"617 652 LINE",
"562 691 OFFCURVE",
"494 714 OFFCURVE",
"406 714 CURVE SMOOTH",
"194 714 OFFCURVE",
"37 554 OFFCURVE",
"37 350 CURVE SMOOTH",
"37 141 OFFCURVE",
"198 -14 OFFCURVE",
"398 -14 CURVE SMOOTH",
"486 -14 OFFCURVE",
"557 9 OFFCURVE",
"622 54 CURVE"
);
}
);
width = 665;
}
);
unicode = 010C;
},
{
glyphname = ccaron;
layers = (
{
hints = (
{
place = "{30, 185}";
type = Stem;
},
{
horizontal = 1;
place = "{-13, 160}";
type = Stem;
},
{
horizontal = 1;
place = "{392, 160}";
type = Stem;
},
{
horizontal = 1;
place = "{590, 187}";
type = Stem;
},
{
horizontal = 1;
place = "{714, -20}";
target = down;
type = TopGhost;
}
);
layerId = "B00352CC-F18A-4BDE-802C-0D96B8769A1B";
paths = (
{
closed = 1;
nodes = (
"354 777 LINE",
"298 714 LINE",
"240 777 LINE",
"100 777 LINE",
"246 590 LINE",
"346 590 LINE",
"491 777 LINE"
);
},
{
closed = 1;
nodes = (
"432 537 LINE",
"401 548 OFFCURVE",
"357 552 OFFCURVE",
"320 552 CURVE SMOOTH",
"149 552 OFFCURVE",
"30 422 OFFCURVE",
"30 270 CURVE SMOOTH",
"30 115 OFFCURVE",
"155 -13 OFFCURVE",
"318 -13 CURVE SMOOTH",
"358 -13 OFFCURVE",
"404 -6 OFFCURVE",
"437 6 CURVE",
"437 183 LINE",
"404 156 OFFCURVE",
"369 147 OFFCURVE",
"338 147 CURVE SMOOTH",
"269 147 OFFCURVE",
"215 201 OFFCURVE",
"215 270 CURVE SMOOTH",
"215 338 OFFCURVE",
"264 392 OFFCURVE",
"335 392 CURVE SMOOTH",
"374 392 OFFCURVE",
"403 378 OFFCURVE",
"432 355 CURVE"
);
}
);
width = 483;
}
);
unicode = 010D;
},
{
glyphname = Dcaron;
layers = (
{
hints = (
{
horizontal = 1;
place = "{0, 172}";
type = Stem;
},
{
horizontal = 1;
place = "{528, 172}";
type = Stem;
},
{
horizontal = 1;
place = "{755, 187}";
type = Stem;
},
{
place = "{58, 194}";
type = Stem;
},
{
place = "{524, 199}";
type = Stem;
}
);
layerId = "B00352CC-F18A-4BDE-802C-0D96B8769A1B";
paths = (
{
closed = 1;
nodes = (
"428 942 LINE",
"372 879 LINE",
"314 942 LINE",
"174 942 LINE",
"320 755 LINE",
"420 755 LINE",
"565 942 LINE"
);
},
{
closed = 1;
nodes = (
"58 0 LINE",
"324 0 LINE SMOOTH",
"576 0 OFFCURVE",
"723 152 OFFCURVE",
"723 354 CURVE SMOOTH",
"723 557 OFFCURVE",
"579 700 OFFCURVE",
"328 700 CURVE SMOOTH",
"58 700 LINE"
);
},
{
closed = 1;
nodes = (
"252 528 LINE",
"331 528 LINE SMOOTH",
"446 528 OFFCURVE",
"524 463 OFFCURVE",
"524 351 CURVE SMOOTH",
"524 238 OFFCURVE",
"447 172 OFFCURVE",
"331 172 CURVE SMOOTH",
"252 172 LINE"
);
}
);
width = 761;
}
);
unicode = 010E;
},
{
glyphname = dcaron;
layers = (
{
hints = (
{
horizontal = 1;
place = "{-12, 159}";
type = Stem;
},
{
horizontal = 1;
place = "{394, 159}";
type = Stem;
},
{
horizontal = 1;
place = "{586, 144}";
type = Stem;
},
{
place = "{29, 187}";
type = Stem;
},
{
place = "{433, 190}";
type = Stem;
}
);
layerId = "B00352CC-F18A-4BDE-802C-0D96B8769A1B";
paths = (
{
closed = 1;
nodes = (
"823 820 LINE",
"698 820 LINE",
"657 586 LINE",
"756 586 LINE"
);
},
{
closed = 1;
nodes = (
"623 -12 LINE",
"623 730 LINE",
"433 730 LINE",
"433 475 LINE",
"397 516 OFFCURVE",
"349 553 OFFCURVE",
"268 553 CURVE SMOOTH",
"140 553 OFFCURVE",
"29 446 OFFCURVE",
"29 270 CURVE SMOOTH",
"29 95 OFFCURVE",
"141 -12 OFFCURVE",
"269 -12 CURVE SMOOTH",
"349 -12 OFFCURVE",
"396 27 OFFCURVE",
"433 72 CURVE"
);
},
{
closed = 1;
nodes = (
"216 344 OFFCURVE",
"267 394 OFFCURVE",
"326 394 CURVE SMOOTH",
"387 394 OFFCURVE",
"436 343 OFFCURVE",
"436 272 CURVE SMOOTH",
"436 197 OFFCURVE",
"387 147 OFFCURVE",
"326 147 CURVE SMOOTH",
"267 147 OFFCURVE",
"216 198 OFFCURVE",
"216 270 CURVE SMOOTH"
);
}
);
width = 639;
}
);
unicode = 010F;
},
{
glyphname = Dcroat;
layers = (
{
hints = (
{
horizontal = 1;
place = "{0, 172}";
type = Stem;
},
{
horizontal = 1;
place = "{249, 167}";
type = Stem;
},
{
horizontal = 1;
place = "{528, 172}";
type = Stem;
},
{
place = "{81, 194}";
type = Stem;
},
{
place = "{547, 199}";
type = Stem;
}
);
layerId = "B00352CC-F18A-4BDE-802C-0D96B8769A1B";
paths = (
{
closed = 1;
nodes = (
"81 0 LINE",
"347 0 LINE SMOOTH",
"599 0 OFFCURVE",
"746 152 OFFCURVE",
"746 354 CURVE SMOOTH",
"746 557 OFFCURVE",
"602 700 OFFCURVE",
"351 700 CURVE SMOOTH",
"81 700 LINE",
"81 416 LINE",
"7 416 LINE",
"7 249 LINE",
"81 249 LINE"
);
},
{
closed = 1;
nodes = (
"275 528 LINE",
"354 528 LINE SMOOTH",
"469 528 OFFCURVE",
"547 463 OFFCURVE",
"547 351 CURVE SMOOTH",
"547 238 OFFCURVE",
"470 172 OFFCURVE",
"354 172 CURVE SMOOTH",
"275 172 LINE",
"275 249 LINE",
"335 249 LINE",
"335 416 LINE",
"275 416 LINE"
);
}
);
width = 784;
}
);
unicode = 0110;
},
{
glyphname = dcroat;
layers = (
{
hints = (
{
place = "{30, 187}";
type = Stem;
},
{
place = "{434, 190}";
type = Stem;
},
{
horizontal = 1;
place = "{-12, 159}";
type = Stem;
},
{
horizontal = 1;
place = "{394, 159}";
type = Stem;
},
{
horizontal = 1;
place = "{542, 167}";
type = Stem;
},
{
horizontal = 1;
place = "{542, 188}";
type = Stem;
}
);
layerId = "B00352CC-F18A-4BDE-802C-0D96B8769A1B";
paths = (
{
closed = 1;
nodes = (
"624 -12 LINE",
"624 542 LINE",
"684 542 LINE",
"684 709 LINE",
"624 709 LINE",
"624 730 LINE",
"434 730 LINE",
"434 709 LINE",
"356 709 LINE",
"356 542 LINE",
"434 542 LINE",
"434 475 LINE",
"398 516 OFFCURVE",
"350 553 OFFCURVE",
"269 553 CURVE SMOOTH",
"141 553 OFFCURVE",
"30 446 OFFCURVE",
"30 270 CURVE SMOOTH",
"30 95 OFFCURVE",
"142 -12 OFFCURVE",
"270 -12 CURVE SMOOTH",
"350 -12 OFFCURVE",
"397 27 OFFCURVE",
"434 72 CURVE"
);
},
{
closed = 1;
nodes = (
"217 344 OFFCURVE",
"268 394 OFFCURVE",
"327 394 CURVE SMOOTH",
"388 394 OFFCURVE",
"437 343 OFFCURVE",
"437 272 CURVE SMOOTH",
"437 197 OFFCURVE",
"388 147 OFFCURVE",
"327 147 CURVE SMOOTH",
"268 147 OFFCURVE",
"217 198 OFFCURVE",
"217 270 CURVE SMOOTH"
);
}
);
width = 681;
}
);
unicode = 0111;
},
{
glyphname = Emacron;
layers = (
{
hints = (
{
place = "{58, 192}";
type = Stem;
},
{
place = "{169, 371}";
type = Stem;
},
{
horizontal = 1;
place = "{0, 165}";
type = Stem;
},
{
horizontal = 1;
place = "{276, 153}";
type = Stem;
},
{
horizontal = 1;
place = "{535, 165}";
type = Stem;
},
{
horizontal = 1;
place = "{744, 117}";
type = Stem;
}
);
layerId = "B00352CC-F18A-4BDE-802C-0D96B8769A1B";
paths = (
{
closed = 1;
nodes = (
"540 861 LINE",
"169 861 LINE",
"169 744 LINE",
"540 744 LINE"
);
},
{
closed = 1;
nodes = (
"250 276 LINE",
"586 276 LINE",
"586 429 LINE",
"250 429 LINE",
"250 535 LINE",
"621 535 LINE",
"621 700 LINE",
"58 700 LINE",
"58 0 LINE",
"626 0 LINE",
"626 165 LINE",
"250 165 LINE"
);
}
);
width = 675;
}
);
unicode = 0112;
},
{
glyphname = emacron;
layers = (
{
hints = (
{
horizontal = 1;
place = "{-17, 138}";
type = Stem;
},
{
horizontal = 1;
place = "{407, 141}";
type = Stem;
},
{
horizontal = 1;
place = "{579, 117}";
type = Stem;
},
{
place = "{30, 180}";
type = Stem;
}
);
layerId = "B00352CC-F18A-4BDE-802C-0D96B8769A1B";
paths = (
{
closed = 1;
nodes = (
"491 696 LINE",
"120 696 LINE",
"120 579 LINE",
"491 579 LINE"
);
},
{
closed = 1;
nodes = (
"279 121 OFFCURVE",
"249 128 OFFCURVE",
"225 148 CURVE",
"580 240 LINE",
"580 401 OFFCURVE",
"488 548 OFFCURVE",
"312 548 CURVE SMOOTH",
"148 548 OFFCURVE",
"30 429 OFFCURVE",
"30 269 CURVE SMOOTH",
"30 104 OFFCURVE",
"145 -17 OFFCURVE",
"312 -17 CURVE SMOOTH",
"371 -17 OFFCURVE",
"458 -3 OFFCURVE",
"527 42 CURVE",
"527 190 LINE",
"476 144 OFFCURVE",
"381 121 OFFCURVE",
"315 121 CURVE SMOOTH"
);
},
{
closed = 1;
nodes = (
"210 275 LINE SMOOTH",
"210 334 OFFCURVE",
"232 407 OFFCURVE",
"301 407 CURVE SMOOTH",
"348 407 OFFCURVE",
"382 375 OFFCURVE",
"394 319 CURVE",
"210 272 LINE"
);
}
);
width = 609;
}
);
unicode = 0113;
},
{
glyphname = Ebreve;
layers = (
{
hints = (
{
horizontal = 1;
place = "{0, 165}";
type = Stem;
},
{
horizontal = 1;
place = "{276, 153}";
type = Stem;
},
{
horizontal = 1;
place = "{535, 165}";
type = Stem;
},
{
horizontal = 1;
place = "{739, 183}";
type = Stem;
},
{
place = "{58, 192}";
type = Stem;
}
);
layerId = "B00352CC-F18A-4BDE-802C-0D96B8769A1B";
paths = (
{
closed = 1;
nodes = (
"407 922 LINE",
"395 881 OFFCURVE",
"372 856 OFFCURVE",
"343 856 CURVE SMOOTH",
"314 856 OFFCURVE",
"288 881 OFFCURVE",
"276 922 CURVE",
"172 922 LINE",
"180 814 OFFCURVE",
"250 739 OFFCURVE",
"341 739 CURVE SMOOTH",
"433 739 OFFCURVE",
"503 814 OFFCURVE",
"511 922 CURVE"
);
},
{
closed = 1;
nodes = (
"250 276 LINE",
"586 276 LINE",
"586 429 LINE",
"250 429 LINE",
"250 535 LINE",
"621 535 LINE",
"621 700 LINE",
"58 700 LINE",
"58 0 LINE",
"626 0 LINE",
"626 165 LINE",
"250 165 LINE"
);
}
);
width = 675;
}
);
unicode = 0114;
},
{
glyphname = ebreve;
layers = (
{
hints = (
{
horizontal = 1;
place = "{-17, 138}";
type = Stem;
},
{
horizontal = 1;
place = "{407, 141}";
type = Stem;
},
{
horizontal = 1;
place = "{574, 183}";
type = Stem;
},
{
place = "{30, 180}";
type = Stem;
}
);
layerId = "B00352CC-F18A-4BDE-802C-0D96B8769A1B";
paths = (
{
closed = 1;
nodes = (
"383 757 LINE",
"371 716 OFFCURVE",
"348 691 OFFCURVE",
"319 691 CURVE SMOOTH",
"290 691 OFFCURVE",
"264 716 OFFCURVE",
"252 757 CURVE",
"148 757 LINE",
"156 649 OFFCURVE",
"226 574 OFFCURVE",
"317 574 CURVE SMOOTH",
"409 574 OFFCURVE",
"479 649 OFFCURVE",
"487 757 CURVE"
);
},
{
closed = 1;
nodes = (
"279 121 OFFCURVE",
"249 128 OFFCURVE",
"225 148 CURVE",
"580 240 LINE",
"580 401 OFFCURVE",
"488 548 OFFCURVE",
"312 548 CURVE SMOOTH",
"148 548 OFFCURVE",
"30 429 OFFCURVE",
"30 269 CURVE SMOOTH",
"30 104 OFFCURVE",
"145 -17 OFFCURVE",
"312 -17 CURVE SMOOTH",
"371 -17 OFFCURVE",
"458 -3 OFFCURVE",
"527 42 CURVE",
"527 190 LINE",
"476 144 OFFCURVE",
"381 121 OFFCURVE",
"315 121 CURVE SMOOTH"
);
},
{
closed = 1;
nodes = (
"210 275 LINE SMOOTH",
"210 334 OFFCURVE",
"232 407 OFFCURVE",
"301 407 CURVE SMOOTH",
"348 407 OFFCURVE",
"382 375 OFFCURVE",
"394 319 CURVE",
"210 272 LINE"
);
}
);
width = 609;
}
);
unicode = 0115;
},
{
glyphname = Edotaccent;
layers = (
{
hints = (
{
horizontal = 1;
place = "{0, 165}";
type = Stem;
},
{
horizontal = 1;
place = "{276, 153}";
type = Stem;
},
{
horizontal = 1;
place = "{535, 165}";
type = Stem;
},
{
horizontal = 1;
place = "{769, 152}";
type = Stem;
},
{
place = "{58, 192}";
type = Stem;
},
{
place = "{263, 155}";
type = Stem;
}
);
layerId = "B00352CC-F18A-4BDE-802C-0D96B8769A1B";
paths = (
{
closed = 1;
nodes = (
"418 890 OFFCURVE",
"379 921 OFFCURVE",
"340 921 CURVE SMOOTH",
"301 921 OFFCURVE",
"263 890 OFFCURVE",
"263 846 CURVE SMOOTH",
"263 799 OFFCURVE",
"301 769 OFFCURVE",
"340 769 CURVE SMOOTH",
"379 769 OFFCURVE",
"418 799 OFFCURVE",
"418 846 CURVE SMOOTH"
);
},
{
closed = 1;
nodes = (
"250 276 LINE",
"586 276 LINE",
"586 429 LINE",
"250 429 LINE",
"250 535 LINE",
"621 535 LINE",
"621 700 LINE",
"58 700 LINE",
"58 0 LINE",
"626 0 LINE",
"626 165 LINE",
"250 165 LINE"
);
}
);
width = 675;
}
);
unicode = 0116;
},
{
glyphname = edotaccent;
layers = (
{
hints = (
{
horizontal = 1;
place = "{-17, 138}";
type = Stem;
},
{
horizontal = 1;
place = "{407, 141}";
type = Stem;
},
{
horizontal = 1;
place = "{604, 152}";
type = Stem;
},
{
place = "{30, 180}";
type = Stem;
},
{
place = "{226, 155}";
type = Stem;
}
);
layerId = "B00352CC-F18A-4BDE-802C-0D96B8769A1B";
paths = (
{
closed = 1;
nodes = (
"381 725 OFFCURVE",
"342 756 OFFCURVE",
"303 756 CURVE SMOOTH",
"264 756 OFFCURVE",
"226 725 OFFCURVE",
"226 681 CURVE SMOOTH",
"226 634 OFFCURVE",
"264 604 OFFCURVE",
"303 604 CURVE SMOOTH",
"342 604 OFFCURVE",
"381 634 OFFCURVE",
"381 681 CURVE SMOOTH"
);
},
{
closed = 1;
nodes = (
"279 121 OFFCURVE",
"249 128 OFFCURVE",
"225 148 CURVE",
"580 240 LINE",
"580 401 OFFCURVE",
"488 548 OFFCURVE",
"312 548 CURVE SMOOTH",
"148 548 OFFCURVE",
"30 429 OFFCURVE",
"30 269 CURVE SMOOTH",
"30 104 OFFCURVE",
"145 -17 OFFCURVE",
"312 -17 CURVE SMOOTH",
"371 -17 OFFCURVE",
"458 -3 OFFCURVE",
"527 42 CURVE",
"527 190 LINE",
"476 144 OFFCURVE",
"381 121 OFFCURVE",
"315 121 CURVE SMOOTH"
);
},
{
closed = 1;
nodes = (
"210 275 LINE SMOOTH",
"210 334 OFFCURVE",
"232 407 OFFCURVE",
"301 407 CURVE SMOOTH",
"348 407 OFFCURVE",
"382 375 OFFCURVE",
"394 319 CURVE",
"210 272 LINE"
);
}
);
width = 609;
}
);
unicode = 0117;
},
{
glyphname = Eogonek;
layers = (
{
hints = (
{
horizontal = 1;
place = "{-238, 105}";
type = Stem;
},
{
horizontal = 1;
place = "{0, 165}";
type = Stem;
},
{
horizontal = 1;
place = "{276, 153}";
type = Stem;
},
{
horizontal = 1;
place = "{535, 165}";
type = Stem;
},
{
place = "{58, 192}";
type = Stem;
},
{
place = "{437, 123}";
type = Stem;
}
);
layerId = "B00352CC-F18A-4BDE-802C-0D96B8769A1B";
paths = (
{
closed = 1;
nodes = (
"250 276 LINE",
"586 276 LINE",
"586 429 LINE",
"250 429 LINE",
"250 535 LINE",
"621 535 LINE",
"621 700 LINE",
"58 700 LINE",
"58 0 LINE",
"500 0 LINE",
"469 -35 OFFCURVE",
"437 -77 OFFCURVE",
"437 -128 CURVE SMOOTH",
"437 -196 OFFCURVE",
"492 -238 OFFCURVE",
"565 -238 CURVE SMOOTH",
"598 -238 OFFCURVE",
"634 -230 OFFCURVE",
"669 -211 CURVE",
"646 -118 LINE",
"617 -130 OFFCURVE",
"601 -133 OFFCURVE",
"590 -133 CURVE SMOOTH",
"574 -133 OFFCURVE",
"560 -126 OFFCURVE",
"560 -109 CURVE SMOOTH",
"560 -95 OFFCURVE",
"570 -66 OFFCURVE",
"626 0 CURVE",
"626 165 LINE",
"250 165 LINE"
);
}
);
width = 718;
}
);
unicode = 0118;
},
{
glyphname = eogonek;
layers = (
{
hints = (
{
horizontal = 1;
place = "{-237, 105}";
type = Stem;
},
{
horizontal = 1;
place = "{-17, 138}";
type = Stem;
},
{
horizontal = 1;
place = "{407, 141}";
type = Stem;
},
{
place = "{30, 180}";
type = Stem;
},
{
place = "{307, 123}";
type = Stem;
}
);
layerId = "B00352CC-F18A-4BDE-802C-0D96B8769A1B";
paths = (
{
closed = 1;
nodes = (
"516 -117 LINE",
"487 -129 OFFCURVE",
"471 -132 OFFCURVE",
"460 -132 CURVE SMOOTH",
"444 -132 OFFCURVE",
"430 -125 OFFCURVE",
"430 -104 CURVE SMOOTH",
"430 -57 OFFCURVE",
"497 12 OFFCURVE",
"527 42 CURVE",
"527 190 LINE",
"476 144 OFFCURVE",
"381 121 OFFCURVE",
"315 121 CURVE SMOOTH",
"279 121 OFFCURVE",
"249 128 OFFCURVE",
"225 148 CURVE",
"580 240 LINE",
"580 401 OFFCURVE",
"488 548 OFFCURVE",
"312 548 CURVE SMOOTH",
"148 548 OFFCURVE",
"30 429 OFFCURVE",
"30 269 CURVE SMOOTH",
"30 104 OFFCURVE",
"145 -17 OFFCURVE",
"312 -17 CURVE SMOOTH",
"326 -17 OFFCURVE",
"341 -16 OFFCURVE",
"357 -15 CURVE",
"330 -46 OFFCURVE",
"307 -83 OFFCURVE",
"307 -127 CURVE SMOOTH",
"307 -195 OFFCURVE",
"362 -237 OFFCURVE",
"435 -237 CURVE SMOOTH",
"468 -237 OFFCURVE",
"504 -229 OFFCURVE",
"539 -210 CURVE"
);
},
{
closed = 1;
nodes = (
"210 275 LINE SMOOTH",
"210 334 OFFCURVE",
"232 407 OFFCURVE",
"301 407 CURVE SMOOTH",
"348 407 OFFCURVE",
"382 375 OFFCURVE",
"394 319 CURVE",
"210 272 LINE"
);
}
);
width = 609;
}
);
unicode = 0119;
},
{
glyphname = Ecaron;
layers = (
{
hints = (
{
horizontal = 1;
place = "{0, 165}";
type = Stem;
},
{
horizontal = 1;
place = "{276, 153}";
type = Stem;
},
{
horizontal = 1;
place = "{535, 165}";
type = Stem;
},
{
horizontal = 1;
place = "{755, 187}";
type = Stem;
},
{
place = "{58, 192}";
type = Stem;
}
);
layerId = "B00352CC-F18A-4BDE-802C-0D96B8769A1B";
paths = (
{
closed = 1;
nodes = (
"413 942 LINE",
"357 879 LINE",
"299 942 LINE",
"159 942 LINE",
"305 755 LINE",
"405 755 LINE",
"550 942 LINE"
);
},
{
closed = 1;
nodes = (
"250 276 LINE",
"586 276 LINE",
"586 429 LINE",
"250 429 LINE",
"250 535 LINE",
"621 535 LINE",
"621 700 LINE",
"58 700 LINE",
"58 0 LINE",
"626 0 LINE",
"626 165 LINE",
"250 165 LINE"
);
}
);
width = 675;
}
);
unicode = 011A;
},
